<svg width="240" height="19" viewBox="0 0 240 19" fill="none" xmlns="http://www.w3.org/2000/svg">
<path d="M24.1525 3.92599H3.55779V7.27383H17.2876V10.875H3.55779V17.8241H0V0.324725H24.1522L24.1525 3.92599ZM50.931 14.0382L52.692 14.0115L52.7447 17.5769L50.9837 17.6036C50.7096 17.6078 50.3996 17.6126 50.0612 17.6126C47.6154 17.6126 43.6925 17.3671 41.2141 14.8957C40.1109 13.7954 39.416 12.3967 39.1383 10.7231H32.7652L32.74 17.6103L29.2173 17.597L29.2739 2.06123V0.276397H29.2805V0.269775L31.0401 0.276397H47.6357C49.8677 0.276397 53.1879 1.66745 53.1879 5.49943C53.1879 9.33172 50.1022 10.7228 48.0282 10.7228H42.7506C42.9407 11.375 43.2483 11.9182 43.6861 12.3549C45.4569 14.1205 49.1538 14.0647 50.9305 14.0376L50.931 14.0382ZM32.7972 7.1574L48.0129 7.15737C48.1667 7.15195 48.6255 7.09338 49.0037 6.88169C49.3312 6.6983 49.6657 6.39072 49.6657 5.49993C49.6657 4.78366 49.4263 4.39589 48.8113 4.11678C48.2524 3.86319 47.6422 3.84272 47.6364 3.84272H32.7973L32.7972 7.1574ZM82.4362 3.90451L61.8414 3.90454V7.25837L75.5773 7.31014L75.5642 10.9117L61.8412 10.8599V14.2013H82.436V17.8028H58.2837V0.303432H82.436L82.4362 3.90451ZM111.654 3.90451L91.059 3.90454V7.25837L104.795 7.31014L104.782 10.9117L91.0588 10.8599V14.2013H111.654V17.8028H87.5013V0.303432H111.654L111.654 3.90451Z" fill="#496AF1"/>
<path d="M149.616 0.251022H154.092L140.201 19L134.776 11.6794L129.353 19L115.461 0.251022H119.937L129.353 12.9591L132.539 8.65913L126.309 0.251022H130.785L134.777 5.63853L138.768 0.251022H143.244L137.015 8.65913L140.201 12.9591L149.616 0.251022ZM179.602 1.66386C181.016 3.08278 181.004 5.13514 180.987 8.24183C180.985 8.47313 180.984 8.71278 180.983 8.96101C180.976 10.8047 180.971 12.1369 180.78 13.2603C180.617 14.2181 180.241 15.5987 178.864 16.528C177.12 17.7048 174.515 17.7313 168.807 17.7891C167.916 17.7981 167.094 17.8048 166.335 17.8048C161.813 17.8048 159.54 17.5625 158.088 16.1016C156.575 14.5801 156.583 12.3393 156.596 8.94756C156.61 5.16315 156.618 2.8789 158.513 1.46076C160.148 0.237389 162.523 0.205171 167.725 0.134404L168.764 0.119937C175.247 0.0261281 177.931 -0.0131073 179.602 1.66386ZM177.393 8.22156C177.403 6.43633 177.414 4.58997 177.072 4.24689C176.647 3.82083 174.742 3.72233 172.206 3.72233C171.163 3.72233 170.012 3.73906 168.814 3.75639L167.773 3.77085C164.045 3.82144 161.353 3.85814 160.648 4.38536C160.203 4.71824 160.196 6.68458 160.187 8.96165C160.179 11.0761 160.172 13.0732 160.619 13.5227C161.32 14.2284 165.108 14.1898 168.77 14.1531C172.976 14.1107 176.015 14.0799 176.87 13.5027C177.374 13.1629 177.38 11.3949 177.389 8.9479C177.39 8.69724 177.392 8.45529 177.393 8.22156ZM208.213 13.9958L210.003 13.9686L210.057 17.593L208.266 17.6202C207.988 17.6245 207.673 17.6294 207.329 17.6294C204.842 17.6294 200.855 17.3798 198.335 14.8673C197.214 13.7488 196.508 12.327 196.225 10.6257H189.747L189.721 17.6269L186.14 17.6134L186.198 1.82112V0.006731H186.204V0L187.993 0.006731H204.863C207.132 0.006731 210.508 1.42079 210.508 5.31626C210.508 9.21202 207.371 10.6261 205.262 10.6261H199.897C200.091 11.2892 200.403 11.8413 200.848 12.2853C202.649 14.0802 206.407 14.0234 208.213 13.9958ZM189.78 7.00084L205.248 7.00081C205.404 6.9953 205.871 6.93575 206.255 6.72057C206.588 6.53414 206.928 6.22146 206.928 5.3159C206.928 4.58777 206.685 4.19355 206.06 3.90983C205.492 3.65204 204.871 3.63123 204.865 3.63123H189.78L189.78 7.00084ZM239.946 14.0925L240 17.7172L238.21 17.7444C237.932 17.7486 237.617 17.7535 237.274 17.7535C234.795 17.7535 230.82 17.5043 228.305 14.9965C227.11 13.8054 226.388 12.2687 226.146 10.4174C224.83 10.6113 223.382 10.7168 221.798 10.7168H219.27V17.7111H215.688V0.0974031H219.27V7.0919H221.798C229.128 7.0919 232.963 4.55752 232.963 2.0537V0.241183H236.544V2.05355C236.544 5.03345 234.366 8.03145 229.66 9.59992C229.755 10.8092 230.136 11.7345 230.818 12.4145C232.613 14.2044 236.357 14.1477 238.156 14.1204L239.946 14.0925Z" fill="#161C2D"/>
</svg>
