
<svg width="140" height="36" viewBox="0 0 140 36" fill="none" xmlns="http://www.w3.org/2000/svg">
<g clip-path="url(#clip0_78_4447)">
<path d="M51.8 26.4001V23.9041H60.5728V26.4001H51.8ZM51.8 12.0961V9.6001H60.5728V12.0961H51.8ZM51.8 18.6241V16.1761H60.0758V18.6241H51.8ZM49.9858 9.6001H52.8687V26.4001H49.9858V9.6001ZM65.6499 22.9681C65.6499 23.3361 65.741 23.6561 65.9232 23.9281C66.1055 24.1841 66.354 24.3761 66.6688 24.5041C67.0001 24.6321 67.3729 24.6961 67.7871 24.6961C68.3173 24.6961 68.7978 24.5921 69.2286 24.3841C69.6759 24.1761 70.0321 23.8721 70.2972 23.4721C70.5788 23.0561 70.7197 22.5761 70.7197 22.0321L71.1173 23.4721C71.1173 24.1761 70.9019 24.7681 70.4712 25.2481C70.057 25.7121 69.5268 26.0641 68.8806 26.3041C68.251 26.5281 67.6049 26.6401 66.9422 26.6401C66.2297 26.6401 65.567 26.5041 64.954 26.2321C64.341 25.9601 63.8522 25.5601 63.4877 25.0321C63.1232 24.5041 62.941 23.8641 62.941 23.1121C62.941 22.0401 63.3303 21.1921 64.109 20.5681C64.8877 19.9281 65.9895 19.6081 67.4143 19.6081C68.1765 19.6081 68.8309 19.6881 69.3777 19.8481C69.941 20.0081 70.4049 20.2001 70.7694 20.4241C71.1339 20.6321 71.3907 20.8241 71.5398 21.0001V22.3201C71.0262 21.9681 70.4794 21.7121 69.8996 21.5521C69.3197 21.3921 68.7067 21.3121 68.0605 21.3121C67.4972 21.3121 67.0416 21.3841 66.6936 21.5281C66.3457 21.6561 66.0806 21.8401 65.8984 22.0801C65.7327 22.3201 65.6499 22.6161 65.6499 22.9681ZM64.8049 18.2401L63.7114 16.4161C64.225 16.1121 64.8877 15.8161 65.6996 15.5281C66.528 15.2401 67.4723 15.0961 68.5327 15.0961C69.4771 15.0961 70.3055 15.2321 71.0179 15.5041C71.7469 15.7761 72.3185 16.1681 72.7327 16.6801C73.1469 17.1761 73.354 17.7921 73.354 18.5281V26.4001H70.7197V19.0321C70.7197 18.6801 70.6534 18.3921 70.5209 18.1681C70.4049 17.9441 70.2392 17.7601 70.0238 17.6161C69.8084 17.4721 69.5516 17.3681 69.2534 17.3041C68.9552 17.2401 68.6321 17.2081 68.2842 17.2081C67.754 17.2081 67.2487 17.2721 66.7682 17.4001C66.3043 17.5121 65.8984 17.6561 65.5504 17.8321C65.2191 17.9921 64.9706 18.1281 64.8049 18.2401ZM77.0049 22.7761C77.3694 23.1601 77.7339 23.4961 78.0984 23.7841C78.4795 24.0561 78.8605 24.2641 79.2416 24.4081C79.6227 24.5361 80.0037 24.6001 80.3848 24.6001C80.8653 24.6001 81.2381 24.4961 81.5032 24.2881C81.7848 24.0801 81.9256 23.7921 81.9256 23.4241C81.9256 23.1041 81.8179 22.8321 81.6026 22.6081C81.3872 22.3681 81.089 22.1681 80.7079 22.0081C80.3268 21.8321 79.8795 21.6561 79.3659 21.4801C78.8523 21.2881 78.3387 21.0641 77.825 20.8081C77.328 20.5361 76.9138 20.1841 76.5824 19.7521C76.2676 19.3201 76.1103 18.7761 76.1103 18.1201C76.1103 17.4481 76.2842 16.8881 76.6321 16.4401C76.9966 15.9921 77.4771 15.6641 78.0736 15.4561C78.6866 15.2321 79.341 15.1201 80.0369 15.1201C80.6665 15.1201 81.2546 15.2081 81.8014 15.3841C82.3647 15.5601 82.8701 15.7921 83.3174 16.0801C83.7648 16.3681 84.1458 16.6961 84.4606 17.0641L82.9695 18.6001C82.5884 18.1681 82.1327 17.8161 81.6026 17.5441C81.0724 17.2721 80.5256 17.1361 79.9623 17.1361C79.5813 17.1361 79.2665 17.2161 79.0179 17.3761C78.7694 17.5361 78.6452 17.7681 78.6452 18.0721C78.6452 18.3281 78.7529 18.5601 78.9682 18.7681C79.2002 18.9601 79.4984 19.1361 79.8629 19.2961C80.244 19.4561 80.6665 19.6241 81.1304 19.8001C81.76 20.0401 82.3398 20.3041 82.8701 20.5921C83.4003 20.8801 83.8228 21.2321 84.1376 21.6481C84.4689 22.0641 84.6346 22.6081 84.6346 23.2801C84.6346 24.3201 84.2618 25.1601 83.5163 25.8001C82.7872 26.4241 81.7931 26.7361 80.5339 26.7361C79.7552 26.7361 79.0345 26.6241 78.3718 26.4001C77.7256 26.1601 77.154 25.8561 76.657 25.4881C76.1765 25.1041 75.7706 24.7041 75.4392 24.2881L77.0049 22.7761ZM97.0093 15.3601L89.5536 31.6801H86.6957L89.6779 25.1041L85.0803 15.3601H88.1619L91.8152 24.0961L90.5477 24.0241L94.1264 15.3601H97.0093ZM97.6546 15.3601H100.562L103.246 21.9361L106.403 14.5201L109.758 21.9601L112.442 15.3601H115.349L110.006 27.1921L106.427 19.7281L102.998 27.1921L97.6546 15.3601ZM118.752 22.9681C118.752 23.3361 118.843 23.6561 119.025 23.9281C119.207 24.1841 119.456 24.3761 119.77 24.5041C120.102 24.6321 120.475 24.6961 120.889 24.6961C121.419 24.6961 121.899 24.5921 122.33 24.3841C122.778 24.1761 123.134 23.8721 123.399 23.4721C123.681 23.0561 123.821 22.5761 123.821 22.0321L124.219 23.4721C124.219 24.1761 124.004 24.7681 123.573 25.2481C123.159 25.7121 122.628 26.0641 121.982 26.3041C121.353 26.5281 120.707 26.6401 120.044 26.6401C119.331 26.6401 118.669 26.5041 118.056 26.2321C117.443 25.9601 116.954 25.5601 116.589 25.0321C116.225 24.5041 116.043 23.8641 116.043 23.1121C116.043 22.0401 116.432 21.1921 117.211 20.5681C117.989 19.9281 119.091 19.6081 120.516 19.6081C121.278 19.6081 121.933 19.6881 122.479 19.8481C123.043 20.0081 123.507 20.2001 123.871 20.4241C124.236 20.6321 124.492 20.8241 124.641 21.0001V22.3201C124.128 21.9681 123.581 21.7121 123.001 21.5521C122.421 21.3921 121.808 21.3121 121.162 21.3121C120.599 21.3121 120.143 21.3841 119.795 21.5281C119.447 21.6561 119.182 21.8401 119 22.0801C118.834 22.3201 118.752 22.6161 118.752 22.9681ZM117.907 18.2401L116.813 16.4161C117.327 16.1121 117.989 15.8161 118.801 15.5281C119.63 15.2401 120.574 15.0961 121.634 15.0961C122.579 15.0961 123.407 15.2321 124.12 15.5041C124.849 15.7761 125.42 16.1681 125.834 16.6801C126.249 17.1761 126.456 17.7921 126.456 18.5281V26.4001H123.821V19.0321C123.821 18.6801 123.755 18.3921 123.623 18.1681C123.507 17.9441 123.341 17.7601 123.125 17.6161C122.91 17.4721 122.653 17.3681 122.355 17.3041C122.057 17.2401 121.734 17.2081 121.386 17.2081C120.856 17.2081 120.35 17.2721 119.87 17.4001C119.406 17.5121 119 17.6561 118.652 17.8321C118.321 17.9921 118.072 18.1281 117.907 18.2401ZM139.578 15.3601L132.123 31.6801H129.265L132.247 25.1041L127.649 15.3601H130.731L134.384 24.0961L133.117 24.0241L136.696 15.3601H139.578Z" fill="#222222"/>
<path fill-rule="evenodd" clip-rule="evenodd" d="M8.30742 27.4652C7.65597 27.095 7.01752 26.7376 6.36605 26.3674C6.09243 26.2143 5.8579 26.0739 5.64942 25.9334L0.828511 23.1509C0.80245 26.3547 1.12819 27.0567 3.72106 28.5374C6.8742 30.3372 10.0534 32.0731 13.2065 33.8985C13.415 34.0261 13.6235 34.1282 13.8189 34.2431C16.477 35.7109 17.2196 35.5068 20.3989 33.6432C22.2099 32.5837 24.0992 31.5625 25.9494 30.5286C27.2914 29.7883 28.6335 29.0352 29.9103 28.2565C32.0472 26.9673 32.3338 26.1505 32.3078 23.2274C32.3078 23.2146 32.3078 23.2019 32.3078 23.1891L26.7833 26.3929C26.7051 26.4441 26.627 26.4823 26.5488 26.5206C26.0666 26.8014 25.5846 27.0822 25.0894 27.3631L22.9005 28.6268C22.9136 28.6012 22.9266 28.5757 22.9396 28.5501C21.8191 29.1756 20.6985 29.7883 19.604 30.4265C16.9069 32.0221 16.4118 32.0859 13.8971 30.6308C12.0339 29.5585 10.1707 28.5119 8.30742 27.4652ZM29.8973 21.9127C31.93 20.6745 32.2817 19.8832 32.2948 17.2792C32.2948 17.1516 32.2948 17.0112 32.2948 16.8835C32.2948 16.8708 32.2948 16.8453 32.2948 16.8325L29.0505 18.7089L27.1481 19.8065C26.9397 19.9342 26.7442 20.0491 26.5357 20.1767C25.8842 20.5597 25.2328 20.9298 24.5683 21.3L23.2914 22.0403C23.2914 22.0276 23.2914 22.0148 23.2914 22.0021C22.0536 22.6785 20.8027 23.3678 19.591 24.0826C16.8939 25.6654 16.3988 25.742 13.8841 24.2869C9.54522 21.7723 5.21945 19.2705 0.867595 16.7559C0.867595 17.343 0.867595 17.9302 0.867595 18.5173C1.03698 20.3171 1.6624 21.0192 3.70803 22.1807C3.8253 22.2445 3.94256 22.3084 4.05983 22.3849C7.0957 24.1209 10.1446 25.7803 13.1805 27.5417C16.3467 29.3671 16.959 29.2777 20.3598 27.2737C21.3109 26.7121 22.3011 26.1632 23.2784 25.6144C24.3598 25.0145 25.4413 24.4273 26.5097 23.8273C27.3566 23.355 28.2165 22.87 29.0374 22.3849C29.3501 22.2445 29.6237 22.0786 29.8973 21.9127ZM29.0635 7.25916C25.8582 5.45939 22.6529 3.62132 19.4607 1.82154C16.6464 0.251517 15.9558 0.468512 12.5551 2.48528C9.92314 4.02977 7.33024 5.48492 4.65919 6.95282L4.60707 6.96558L4.47677 7.0294C4.34648 7.10599 4.21618 7.16981 4.08589 7.2464L4.05983 7.25916C3.90347 7.34852 3.76014 7.4251 3.61682 7.51445C2.4572 8.19093 1.76664 8.71429 1.36272 9.39085C0.78942 10.3609 0.737302 12.0841 1.10212 13.1563C1.37575 13.9605 1.8839 14.5093 2.84808 15.1348C3.10867 15.3007 3.39532 15.4794 3.72106 15.6581C3.83833 15.722 3.95559 15.7985 4.07286 15.8624L4.09891 15.8751C7.12176 17.6111 10.1707 19.2705 13.1935 21.0192C16.3597 22.8445 16.9721 22.7551 20.3728 20.7511C21.3239 20.1895 22.3141 19.6406 23.3044 19.0917C24.3859 18.4918 25.4673 17.9047 26.5357 17.3047C26.5357 16.9218 26.5357 16.5389 26.5357 16.156C26.5357 15.1221 26.4706 14.3817 26.2751 13.7817C25.9233 12.7096 25.1285 12.1097 23.4608 11.1523L17.415 7.70592C16.933 7.43786 16.959 7.45063 16.2163 7.91015L15.5388 8.33133C14.7831 8.80365 14.8613 9.92693 15.5519 10.3354C17.3238 11.3437 19.0959 12.3521 20.8679 13.3478C22.262 14.1392 22.8745 14.637 23.1481 15.556C21.9624 16.207 20.7637 16.858 19.6171 17.5473C16.92 19.1301 16.4249 19.2066 13.9102 17.7515C11.3824 16.3091 8.86775 14.9305 6.36605 13.4882C5.79275 13.1563 5.34975 12.8755 5.02401 12.5819C4.33345 11.9565 4.11194 11.548 4.73736 10.8205C5.16734 10.3226 5.8579 9.88861 6.97844 9.27597C9.14137 8.11437 11.2521 6.94005 13.3759 5.68914C13.4411 5.65085 13.5062 5.61256 13.5713 5.57427C16.0991 4.08083 16.6854 3.95319 18.8613 5.1658C21.4412 6.60818 24.0341 8.10165 26.6139 9.55677C29.6758 11.28 29.1286 12.7606 29.272 15.7602C29.5586 15.5943 29.6107 15.556 29.8973 15.3901C31.6955 14.2924 32.1775 13.552 32.2817 11.5735C32.1775 9.37805 31.5782 8.70157 29.2198 7.37404C29.1677 7.32299 29.1156 7.29745 29.0635 7.25916Z" fill="#234DD4"/>
</g>
<defs>
<clipPath id="clip0_78_4447">
<rect width="140" height="36" fill="white"/>
</clipPath>
</defs>
</svg>
