<?xml version="1.0" standalone="no"?>
<!DOCTYPE svg PUBLIC "-//W3C//DTD SVG 20010904//EN"
 "http://www.w3.org/TR/2001/REC-SVG-20010904/DTD/svg10.dtd">
<svg version="1.0" xmlns="http://www.w3.org/2000/svg"
 width="80.000000pt" height="80.000000pt" viewBox="0 0 80.000000 80.000000"
 preserveAspectRatio="xMidYMid meet">
<metadata>
Created by potrace 1.14, written by Peter Selinger 2001-2017
</metadata>
<g transform="translate(0.000000,80.000000) scale(0.100000,-0.100000)"
fill="#000000" stroke="none">
<path d="M367 595 c-48 -17 -81 -47 -115 -105 -35 -59 -37 -166 -4 -221 30
-49 93 -82 155 -82 66 1 127 29 127 58 0 25 -29 38 -51 24 -40 -25 -116 0
-137 44 -32 66 41 166 99 136 29 -15 143 79 131 109 -7 20 -88 52 -130 52 -20
-1 -54 -7 -75 -15z"/>
</g>
</svg>
