<?xml version="1.0" standalone="no"?>
<!DOCTYPE svg PUBLIC "-//W3C//DTD SVG 20010904//EN"
 "http://www.w3.org/TR/2001/REC-SVG-20010904/DTD/svg10.dtd">
<svg version="1.0" xmlns="http://www.w3.org/2000/svg"
 width="443.000000pt" height="443.000000pt" viewBox="0 0 443.000000 443.000000"
 preserveAspectRatio="xMidYMid meet">
<metadata>
Created by potrace 1.14, written by Peter Selinger 2001-2017
</metadata>
<g transform="translate(0.000000,443.000000) scale(0.100000,-0.100000)"
fill="#000000" stroke="none">
<path d="M2160 3216 c-3 -2 -19 -7 -35 -10 -17 -2 -30 -5 -30 -6 0 -2 -9 -4
-20 -6 -27 -4 -64 -12 -144 -30 -36 -9 -79 -18 -96 -21 -50 -8 -59 -10 -90
-18 -16 -5 -39 -9 -50 -10 -11 -1 -27 -5 -35 -8 -8 -3 -28 -8 -45 -11 -16 -3
-43 -8 -60 -11 -16 -4 -40 -9 -52 -11 -13 -2 -33 -6 -45 -8 -105 -19 -128 -30
-128 -60 0 -22 8 -27 68 -45 37 -11 84 -23 104 -26 62 -12 73 -25 71 -92 0
-32 -8 -71 -16 -87 -12 -22 -13 -35 -5 -55 6 -16 7 -62 2 -121 -10 -119 -10
-183 -1 -285 8 -88 42 -222 61 -239 43 -40 112 -40 192 -1 69 34 73 57 23 122
-22 26 -39 53 -39 60 0 6 -3 13 -7 15 -18 8 -85 187 -97 260 -3 15 -7 32 -11
38 -7 11 -16 49 -17 65 0 14 13 89 17 93 1 2 -5 34 -15 71 -14 56 -15 71 -4
86 13 18 138 58 148 47 3 -3 6 -1 6 5 0 6 10 11 23 11 21 1 62 9 62 12 0 1 7
3 15 5 8 2 25 6 38 9 12 3 31 8 43 11 11 2 30 7 42 11 12 4 29 9 37 10 22 4
55 12 55 14 0 1 17 3 37 6 29 3 40 -1 48 -16 5 -10 10 -21 10 -24 0 -14 -84
-44 -176 -61 -11 -2 -19 -4 -19 -5 0 -1 -11 -4 -25 -7 -34 -6 -42 -9 -62 -17
-19 -9 -45 -14 -70 -15 -34 -2 -18 -18 25 -26 50 -9 40 -7 102 -24 28 -8 56
-18 63 -24 6 -5 12 -7 12 -4 0 3 19 -1 43 -7 23 -7 62 -11 87 -10 25 2 60 4
78 5 17 1 32 6 32 11 0 5 3 7 8 4 4 -2 32 2 62 10 30 9 64 17 75 19 11 3 78
20 149 40 70 19 134 35 142 35 8 0 14 5 14 11 0 5 4 8 8 5 5 -3 33 2 63 10 30
8 61 16 69 18 8 2 35 9 60 16 25 7 50 13 55 15 46 10 67 20 75 35 13 24 -16
54 -55 57 -54 4 -65 7 -65 16 0 4 -4 6 -8 3 -4 -2 -45 4 -90 14 -45 10 -85 18
-87 19 -3 1 -6 1 -7 2 -5 1 -32 7 -63 12 -30 6 -52 10 -110 22 -48 10 -68 14
-105 20 -19 4 -53 11 -75 17 -22 5 -51 12 -65 13 -42 6 -55 10 -62 20 -5 6 -8
5 -8 -3 0 -9 -5 -10 -17 -4 -20 10 -106 16 -113 8z"/>
<path d="M2610 2755 c0 -6 -11 -12 -26 -13 -14 -1 -33 -6 -42 -11 -9 -4 -35
-12 -57 -16 -45 -9 -54 -12 -57 -15 -2 -1 -10 -3 -18 -5 -33 -8 -61 -15 -77
-20 -99 -26 -129 -28 -198 -11 -11 3 -40 10 -65 16 -25 6 -52 13 -60 17 -8 3
-22 7 -30 8 -19 4 -41 9 -111 28 -31 8 -62 11 -69 7 -9 -6 -11 -33 -7 -101 9
-137 26 -190 79 -250 32 -37 115 -88 163 -100 22 -5 47 -13 55 -16 29 -12 46
-13 120 -13 104 1 140 4 140 12 0 5 7 8 15 8 16 0 107 43 132 63 58 46 103
101 118 146 19 59 24 227 7 257 -6 10 -12 14 -12 9z"/>
<path d="M114 1746 c-80 -37 -112 -96 -100 -180 7 -45 49 -106 72 -106 8 0 14
-4 14 -10 0 -5 10 -10 23 -10 13 0 28 -5 35 -12 7 -7 12 -9 12 -6 0 4 15 2 33
-3 17 -6 43 -12 57 -15 81 -17 82 -102 2 -109 -16 -1 -33 -4 -38 -7 -20 -11
-75 23 -89 55 -13 31 -15 33 -67 31 -29 -1 -56 -2 -60 -3 -14 -2 -8 -26 18
-78 37 -76 81 -95 213 -92 94 1 104 4 140 30 21 15 45 41 53 57 22 42 20 121
-3 154 -23 32 -85 72 -119 76 -14 1 -32 5 -40 9 -8 3 -22 7 -30 9 -8 1 -24 5
-35 8 -11 2 -23 5 -27 5 -16 2 -46 44 -43 59 2 9 4 21 4 25 2 18 64 34 100 26
35 -8 71 -40 71 -63 0 -20 107 -19 119 1 17 31 -52 143 -89 143 -9 0 -21 5
-27 11 -5 5 -41 12 -79 14 -57 4 -78 0 -120 -19z"/>
<path d="M2930 1754 c-19 -8 -43 -17 -52 -20 -10 -4 -18 -10 -18 -15 0 -5 -5
-9 -12 -9 -16 0 -76 -67 -92 -104 -23 -51 -29 -78 -27 -131 3 -113 60 -203
156 -251 51 -24 62 -26 158 -22 97 3 105 5 146 35 24 18 54 47 66 66 33 47 57
127 53 173 l-3 38 -143 1 -142 0 0 -56 0 -56 55 0 c106 -2 99 1 79 -32 -16
-27 -49 -50 -84 -58 -40 -9 -81 -10 -86 -2 -3 5 -13 9 -24 9 -28 0 -88 67 -96
106 -10 54 1 119 26 153 61 87 200 90 269 7 11 -13 14 -13 29 2 10 9 30 27 45
39 l28 22 -22 30 c-12 17 -31 33 -41 37 -10 3 -18 10 -18 15 0 5 -8 9 -18 9
-10 0 -23 5 -28 10 -17 17 -164 19 -204 4z"/>
<path d="M3435 1761 c-11 -5 -30 -7 -42 -5 -12 2 -24 0 -28 -5 -3 -5 -5 -47
-5 -93 1 -46 1 -92 1 -103 -4 -211 12 -267 93 -322 46 -31 53 -33 137 -33 126
0 179 25 222 105 20 37 22 58 25 246 l4 206 -64 -1 -63 -1 -1 -172 c-1 -94 -4
-183 -8 -198 -7 -29 -50 -78 -60 -68 -3 3 -11 2 -18 -4 -11 -8 -32 -10 -40 -4
-2 2 -14 4 -28 7 -33 6 -70 51 -71 89 -1 17 -2 102 -3 190 -1 150 -2 160 -20
157 -11 -2 -15 1 -11 7 7 12 7 12 -20 2z"/>
<path d="M4211 1765 c-1 -6 -28 -10 -66 -9 -39 1 -68 -3 -73 -10 -7 -11 -132
-352 -136 -371 -1 -5 -4 -14 -7 -20 -3 -5 -12 -31 -19 -57 -7 -27 -16 -48 -19
-48 -4 0 -8 -11 -9 -25 -2 -26 -1 -26 59 -23 l61 3 18 45 17 45 109 0 108 0
16 -45 16 -45 66 -1 c77 -2 75 -14 23 131 -20 55 -51 145 -70 200 -20 55 -38
107 -42 115 -3 8 -7 20 -8 26 -5 21 -43 99 -44 89z m-32 -245 c37 -111 37
-119 11 -117 -11 1 -20 5 -20 10 0 4 -5 5 -12 1 -16 -10 -56 -11 -70 -3 -7 5
-2 33 17 90 24 72 29 92 34 118 2 12 13 -13 40 -99z"/>
<path d="M506 1752 c-3 -3 -6 -128 -6 -278 l0 -272 63 2 62 1 0 107 c1 59 4
110 7 113 3 3 13 -7 23 -22 10 -15 23 -33 29 -40 6 -6 38 -46 71 -87 l60 -75
78 -1 c42 0 77 4 77 9 0 5 -3 11 -7 13 -5 2 -24 24 -43 49 -49 63 -99 125
-138 170 l-33 38 20 20 c12 12 21 24 21 27 0 7 92 118 103 122 4 2 7 8 7 14 0
5 16 26 34 46 19 20 33 39 30 41 -2 3 -33 6 -69 7 l-64 3 -39 -47 c-21 -26
-65 -82 -97 -124 -31 -43 -60 -78 -64 -78 -3 0 -6 55 -5 123 l1 123 -58 1
c-32 1 -60 -1 -63 -5z"/>
<path d="M990 1749 c0 -5 17 -37 38 -71 21 -35 41 -70 45 -78 4 -8 17 -31 29
-50 78 -129 82 -140 84 -240 1 -52 2 -98 3 -102 0 -5 28 -8 61 -8 l60 0 1 33
c4 195 0 175 55 267 63 105 144 248 144 253 0 2 -30 4 -66 3 l-66 -1 -49 -90
c-27 -49 -55 -100 -61 -112 -6 -13 -14 -23 -17 -23 -3 0 -33 51 -67 113 l-60
112 -67 2 c-37 1 -67 -3 -67 -8z"/>
<path d="M1557 1746 c-2 -6 -3 -130 -3 -276 l1 -265 190 0 190 0 0 55 0 55
-120 0 c-73 -1 -122 3 -126 10 -4 5 -6 97 -5 203 0 106 -2 200 -5 210 -5 13
-19 17 -62 18 -33 1 -58 -4 -60 -10z"/>
<path d="M1998 1741 c-2 -9 -3 -133 -3 -276 l1 -260 64 0 65 0 0 275 0 275
-62 1 c-49 1 -62 -2 -65 -15z"/>
<path d="M2196 1753 c-3 -4 -6 -129 -6 -278 l0 -271 60 -2 60 -1 1 102 c0 56
0 134 -1 172 -1 44 2 66 8 60 12 -13 108 -157 113 -170 2 -5 26 -45 54 -87
l50 -77 67 0 c38 1 68 4 69 7 3 20 4 520 1 533 -3 13 -16 16 -60 15 l-57 -1
-3 -175 -3 -175 -49 78 c-28 42 -50 81 -50 86 0 4 -9 16 -20 26 -11 10 -20 22
-20 27 0 5 -8 21 -18 36 -11 15 -29 43 -42 63 -23 35 -25 36 -86 37 -34 0 -65
-2 -68 -5z"/>
</g>
</svg>
