<svg width="140" height="37" viewBox="0 0 140 37" fill="none" xmlns="http://www.w3.org/2000/svg">
  <path d="M51.8 27.1516V24.6556H60.5728V27.1516H51.8ZM51.8 12.8476V10.3516H60.5728V12.8476H51.8ZM51.8 19.3756V16.9276H60.0758V19.3756H51.8ZM49.9858 10.3516H52.8687V27.1516H49.9858V10.3516ZM65.6499 23.7196C65.6499 24.0876 65.741 24.4076 65.9232 24.6796C66.1055 24.9356 66.354 25.1276 66.6688 25.2556C67.0001 25.3836 67.3729 25.4476 67.7871 25.4476C68.3173 25.4476 68.7978 25.3436 69.2286 25.1356C69.6759 24.9276 70.0321 24.6236 70.2972 24.2236C70.5788 23.8076 70.7197 23.3276 70.7197 22.7836L71.1173 24.2236C71.1173 24.9276 70.9019 25.5196 70.4712 25.9996C70.057 26.4636 69.5268 26.8156 68.8806 27.0556C68.251 27.2796 67.6049 27.3916 66.9422 27.3916C66.2297 27.3916 65.567 27.2556 64.954 26.9836C64.341 26.7116 63.8522 26.3116 63.4877 25.7836C63.1232 25.2556 62.941 24.6156 62.941 23.8636C62.941 22.7916 63.3303 21.9436 64.109 21.3196C64.8877 20.6796 65.9895 20.3596 67.4143 20.3596C68.1765 20.3596 68.8309 20.4396 69.3777 20.5996C69.941 20.7596 70.4049 20.9516 70.7694 21.1756C71.1339 21.3836 71.3907 21.5756 71.5398 21.7516V23.0716C71.0262 22.7196 70.4794 22.4636 69.8996 22.3036C69.3197 22.1436 68.7067 22.0636 68.0605 22.0636C67.4972 22.0636 67.0416 22.1356 66.6936 22.2796C66.3457 22.4076 66.0806 22.5916 65.8984 22.8316C65.7327 23.0716 65.6499 23.3676 65.6499 23.7196ZM64.8049 18.9916L63.7114 17.1676C64.225 16.8636 64.8877 16.5676 65.6996 16.2796C66.528 15.9916 67.4723 15.8476 68.5327 15.8476C69.4771 15.8476 70.3055 15.9836 71.0179 16.2556C71.7469 16.5276 72.3185 16.9196 72.7327 17.4316C73.1469 17.9276 73.354 18.5436 73.354 19.2796V27.1516H70.7197V19.7836C70.7197 19.4316 70.6534 19.1436 70.5209 18.9196C70.4049 18.6956 70.2392 18.5116 70.0238 18.3676C69.8084 18.2236 69.5516 18.1196 69.2534 18.0556C68.9552 17.9916 68.6321 17.9596 68.2842 17.9596C67.754 17.9596 67.2487 18.0236 66.7682 18.1516C66.3043 18.2636 65.8984 18.4076 65.5504 18.5836C65.2191 18.7436 64.9706 18.8796 64.8049 18.9916ZM77.0049 23.5276C77.3694 23.9116 77.7339 24.2476 78.0984 24.5356C78.4795 24.8076 78.8605 25.0156 79.2416 25.1596C79.6227 25.2876 80.0037 25.3516 80.3848 25.3516C80.8653 25.3516 81.2381 25.2476 81.5032 25.0396C81.7848 24.8316 81.9256 24.5436 81.9256 24.1756C81.9256 23.8556 81.8179 23.5836 81.6026 23.3596C81.3872 23.1196 81.089 22.9196 80.7079 22.7596C80.3268 22.5836 79.8795 22.4076 79.3659 22.2316C78.8523 22.0396 78.3387 21.8156 77.825 21.5596C77.328 21.2876 76.9138 20.9356 76.5824 20.5036C76.2676 20.0716 76.1103 19.5276 76.1103 18.8716C76.1103 18.1996 76.2842 17.6396 76.6321 17.1916C76.9966 16.7436 77.4771 16.4156 78.0736 16.2076C78.6866 15.9836 79.341 15.8716 80.0369 15.8716C80.6665 15.8716 81.2546 15.9596 81.8014 16.1356C82.3647 16.3116 82.8701 16.5436 83.3174 16.8316C83.7648 17.1196 84.1458 17.4476 84.4606 17.8156L82.9695 19.3516C82.5884 18.9196 82.1327 18.5676 81.6026 18.2956C81.0724 18.0236 80.5256 17.8876 79.9623 17.8876C79.5813 17.8876 79.2665 17.9676 79.0179 18.1276C78.7694 18.2876 78.6452 18.5196 78.6452 18.8236C78.6452 19.0796 78.7529 19.3116 78.9682 19.5196C79.2002 19.7116 79.4984 19.8876 79.8629 20.0476C80.244 20.2076 80.6665 20.3756 81.1304 20.5516C81.76 20.7916 82.3398 21.0556 82.8701 21.3436C83.4003 21.6316 83.8228 21.9836 84.1376 22.3996C84.4689 22.8156 84.6346 23.3596 84.6346 24.0316C84.6346 25.0716 84.2618 25.9116 83.5163 26.5516C82.7872 27.1756 81.7931 27.4876 80.5339 27.4876C79.7552 27.4876 79.0345 27.3756 78.3718 27.1516C77.7256 26.9116 77.154 26.6076 76.657 26.2396C76.1765 25.8556 75.7706 25.4556 75.4392 25.0396L77.0049 23.5276ZM97.0093 16.1116L89.5536 32.4316H86.6957L89.6779 25.8556L85.0803 16.1116H88.1619L91.8152 24.8476L90.5477 24.7756L94.1264 16.1116H97.0093ZM97.6546 16.1116H100.562L103.246 22.6876L106.403 15.2716L109.758 22.7116L112.442 16.1116H115.349L110.006 27.9436L106.427 20.4796L102.998 27.9436L97.6546 16.1116ZM118.752 23.7196C118.752 24.0876 118.843 24.4076 119.025 24.6796C119.207 24.9356 119.456 25.1276 119.77 25.2556C120.102 25.3836 120.475 25.4476 120.889 25.4476C121.419 25.4476 121.899 25.3436 122.33 25.1356C122.778 24.9276 123.134 24.6236 123.399 24.2236C123.681 23.8076 123.821 23.3276 123.821 22.7836L124.219 24.2236C124.219 24.9276 124.004 25.5196 123.573 25.9996C123.159 26.4636 122.628 26.8156 121.982 27.0556C121.353 27.2796 120.707 27.3916 120.044 27.3916C119.331 27.3916 118.669 27.2556 118.056 26.9836C117.443 26.7116 116.954 26.3116 116.589 25.7836C116.225 25.2556 116.043 24.6156 116.043 23.8636C116.043 22.7916 116.432 21.9436 117.211 21.3196C117.989 20.6796 119.091 20.3596 120.516 20.3596C121.278 20.3596 121.933 20.4396 122.479 20.5996C123.043 20.7596 123.507 20.9516 123.871 21.1756C124.236 21.3836 124.492 21.5756 124.641 21.7516V23.0716C124.128 22.7196 123.581 22.4636 123.001 22.3036C122.421 22.1436 121.808 22.0636 121.162 22.0636C120.599 22.0636 120.143 22.1356 119.795 22.2796C119.447 22.4076 119.182 22.5916 119 22.8316C118.834 23.0716 118.752 23.3676 118.752 23.7196ZM117.907 18.9916L116.813 17.1676C117.327 16.8636 117.989 16.5676 118.801 16.2796C119.63 15.9916 120.574 15.8476 121.634 15.8476C122.579 15.8476 123.407 15.9836 124.12 16.2556C124.849 16.5276 125.42 16.9196 125.834 17.4316C126.249 17.9276 126.456 18.5436 126.456 19.2796V27.1516H123.821V19.7836C123.821 19.4316 123.755 19.1436 123.623 18.9196C123.507 18.6956 123.341 18.5116 123.125 18.3676C122.91 18.2236 122.653 18.1196 122.355 18.0556C122.057 17.9916 121.734 17.9596 121.386 17.9596C120.856 17.9596 120.35 18.0236 119.87 18.1516C119.406 18.2636 119 18.4076 118.652 18.5836C118.321 18.7436 118.072 18.8796 117.907 18.9916ZM139.578 16.1116L132.123 32.4316H129.265L132.247 25.8556L127.649 16.1116H130.731L134.384 24.8476L133.117 24.7756L136.696 16.1116H139.578Z" fill="white" />
  <path fill-rule="evenodd" clip-rule="evenodd" d="M8.30742 28.2181C7.65597 27.8479 7.01752 27.4905 6.36605 27.1203C6.09243 26.9672 5.8579 26.8268 5.64942 26.6863L0.828511 23.9038C0.80245 27.1076 1.12819 27.8096 3.72106 29.2903C6.8742 31.0901 10.0534 32.826 13.2065 34.6514C13.415 34.779 13.6235 34.8811 13.8189 34.996C16.477 36.4639 17.2196 36.2597 20.3989 34.3961C22.2099 33.3367 24.0992 32.3155 25.9494 31.2815C27.2914 30.5412 28.6335 29.7881 29.9103 29.0095C32.0472 27.7203 32.3338 26.9034 32.3078 23.9803C32.3078 23.9675 32.3078 23.9548 32.3078 23.942L26.7833 27.1459C26.7051 27.197 26.627 27.2352 26.5488 27.2735C26.0666 27.5543 25.5846 27.8351 25.0894 28.116L22.9005 29.3797C22.9136 29.3541 22.9266 29.3286 22.9396 29.3031C21.8191 29.9285 20.6985 30.5412 19.604 31.1795C16.9069 32.775 16.4118 32.8388 13.8971 31.3837C12.0339 30.3115 10.1707 29.2648 8.30742 28.2181ZM29.8973 22.6656C31.93 21.4275 32.2817 20.6361 32.2948 18.0321C32.2948 17.9045 32.2948 17.7641 32.2948 17.6364C32.2948 17.6237 32.2948 17.5982 32.2948 17.5854L29.0505 19.4618L27.1481 20.5595C26.9397 20.6871 26.7442 20.802 26.5357 20.9296C25.8842 21.3126 25.2328 21.6827 24.5683 22.0529L23.2914 22.7932C23.2914 22.7805 23.2914 22.7677 23.2914 22.755C22.0536 23.4315 20.8027 24.1207 19.591 24.8355C16.8939 26.4183 16.3988 26.4949 13.8841 25.0398C9.54522 22.5252 5.21945 20.0234 0.867595 17.5088C0.867595 18.0959 0.867595 18.6831 0.867595 19.2703C1.03698 21.07 1.6624 21.7721 3.70803 22.9336C3.8253 22.9975 3.94256 23.0613 4.05983 23.1379C7.0957 24.8739 10.1446 26.5332 13.1805 28.2947C16.3467 30.12 16.959 30.0307 20.3598 28.0267C21.3109 27.465 22.3011 26.9161 23.2784 26.3673C24.3598 25.7674 25.4413 25.1802 26.5097 24.5803C27.3566 24.1079 28.2165 23.6229 29.0374 23.1379C29.3501 22.9975 29.6237 22.8315 29.8973 22.6656ZM29.0635 8.01209C25.8582 6.21232 22.6529 4.37425 19.4607 2.57447C16.6464 1.00445 15.9558 1.22144 12.5551 3.23821C9.92314 4.7827 7.33024 6.23785 4.65918 7.70575L4.60707 7.71851L4.47677 7.78233C4.34648 7.85892 4.21618 7.92274 4.08589 7.99933L4.05983 8.01209C3.90347 8.10145 3.76014 8.17803 3.61682 8.26738C2.4572 8.94386 1.76664 9.46722 1.36272 10.1438C0.78942 11.1139 0.737302 12.8371 1.10212 13.9092C1.37575 14.7134 1.8839 15.2623 2.84808 15.8877C3.10867 16.0536 3.39532 16.2323 3.72106 16.4111C3.83833 16.4749 3.95559 16.5515 4.07286 16.6153L4.09891 16.628C7.12176 18.364 10.1707 20.0234 13.1935 21.7721C16.3597 23.5974 16.9721 23.508 20.3728 21.504C21.3239 20.9424 22.3141 20.3935 23.3044 19.8447C24.3859 19.2447 25.4673 18.6576 26.5357 18.0576C26.5357 17.6747 26.5357 17.2918 26.5357 16.9089C26.5357 15.875 26.4706 15.1346 26.2751 14.5347C25.9233 13.4625 25.1285 12.8626 23.4608 11.9052L17.415 8.45885C16.933 8.19079 16.959 8.20356 16.2163 8.66308L15.5388 9.08426C14.7831 9.55658 14.8613 10.6799 15.5519 11.0883C17.3238 12.0967 19.0959 13.1051 20.8679 14.1007C22.262 14.8921 22.8745 15.3899 23.1481 16.3089C21.9624 16.9599 20.7637 17.6109 19.6171 18.3002C16.92 19.883 16.4249 19.9595 13.9102 18.5044C11.3824 17.062 8.86775 15.6835 6.36605 14.2411C5.79275 13.9092 5.34975 13.6284 5.02401 13.3348C4.33345 12.7094 4.11194 12.3009 4.73736 11.5734C5.16734 11.0755 5.8579 10.6415 6.97844 10.0289C9.14137 8.8673 11.2521 7.69298 13.3759 6.44207C13.4411 6.40378 13.5062 6.36549 13.5713 6.3272C16.0991 4.83376 16.6854 4.70612 18.8613 5.91873C21.4412 7.36111 24.0341 8.85458 26.6139 10.3097C29.6758 12.0329 29.1286 13.5135 29.272 16.5131C29.5586 16.3472 29.6107 16.3089 29.8973 16.143C31.6955 15.0453 32.1775 14.3049 32.2817 12.3264C32.1775 10.131 31.5782 9.4545 29.2198 8.12697C29.1677 8.07592 29.1156 8.05038 29.0635 8.01209Z" fill="#234DD4" />
</svg>