<svg width="120" height="24" viewBox="0 0 120 24" fill="none" xmlns="http://www.w3.org/2000/svg">
<path d="M33.3276 3.49408L33.4421 3.98079L33.3276 3.49408ZM54.3188 1.25233L54.3135 0.752364L54.3188 1.25233ZM97.2872 11.3825L97.4985 10.9293L97.2872 11.3825ZM119.719 23.8393L113.98 23.2162L117.389 18.557L119.719 23.8393ZM0.154516 15.3197C0.546428 15.1337 1.24974 14.826 2.18686 14.4295L2.57652 15.3505C1.63924 15.747 0.953739 16.0473 0.583277 16.2231L0.154516 15.3197ZM6.25556 12.7492C7.50658 12.2415 8.8868 11.688 10.3462 11.1103L10.7142 12.0401C9.25743 12.6168 7.87986 13.1693 6.63156 13.6758L6.25556 12.7492ZM14.4486 9.50523C15.806 8.98047 17.1893 8.45215 18.5656 7.93451L18.9176 8.87051C17.5445 9.38695 16.164 9.91418 14.8092 10.438L14.4486 9.50523ZM22.6985 6.40703C24.1475 5.88208 25.5492 5.38683 26.8607 4.93988L27.1832 5.88642C25.879 6.33088 24.4836 6.82394 23.0392 7.34723L22.6985 6.40703ZM31.0716 3.58546C31.8718 3.34914 32.5927 3.1533 33.2131 3.00736L33.4421 3.98079C32.8458 4.12106 32.144 4.31144 31.3548 4.54451L31.0716 3.58546ZM33.2131 3.00736C33.8119 2.8665 34.3868 2.73474 34.9413 2.61145L35.1583 3.58761C34.6083 3.70992 34.0374 3.84077 33.4421 3.98079L33.2131 3.00736ZM38.4158 1.9009C39.6473 1.67495 40.7978 1.49564 41.9277 1.35265L42.0533 2.34474C40.9432 2.48522 39.8111 2.6616 38.5963 2.88448L38.4158 1.9009ZM45.4676 1.01185C46.5914 0.935393 47.7539 0.883297 49.0108 0.845633L49.0408 1.84519C47.7928 1.88258 46.6435 1.93416 45.5355 2.00954L45.4676 1.01185ZM52.5457 0.773555C53.1123 0.765808 53.7005 0.758933 54.3135 0.752364L54.3242 1.75231C53.7117 1.75887 53.1246 1.76573 52.5594 1.77346L52.5457 0.773555ZM54.3135 0.752364C54.8969 0.746113 55.5414 0.761914 56.2312 0.795698L56.1823 1.7945C55.5067 1.76141 54.8828 1.74632 54.3242 1.75231L54.3135 0.752364ZM60.0319 1.10072C61.2529 1.22779 62.5278 1.38225 63.8055 1.55165L63.6741 2.54298C62.4034 2.37452 61.1381 2.22124 59.9284 2.09534L60.0319 1.10072ZM67.5633 2.08712C68.8854 2.28729 70.1545 2.49067 71.3084 2.68211L71.1447 3.66862C69.9947 3.47783 68.7303 3.27521 67.4136 3.07585L67.5633 2.08712ZM75.0459 3.32726C76.0884 3.51451 76.7666 3.64321 76.9141 3.67315L76.715 4.65315C76.5799 4.62571 75.9118 4.49879 74.8691 4.3115L75.0459 3.32726ZM76.9141 3.67315C76.9989 3.69039 77.1479 3.70508 77.469 3.7483C77.7682 3.78858 78.1721 3.84881 78.6992 3.95054L78.5097 4.93242C78.0049 4.835 77.6202 4.77767 77.3356 4.73937C77.0729 4.70401 76.8429 4.67911 76.715 4.65315L76.9141 3.67315ZM82.2653 4.84924C83.2557 5.14515 84.4055 5.51996 85.7355 5.99645L85.3983 6.93786C84.0837 6.46692 82.9509 6.09778 81.979 5.80739L82.2653 4.84924ZM89.1494 7.293C90.1882 7.70778 91.3076 8.17159 92.5131 8.69044L92.1178 9.60898C90.92 9.09344 89.8087 8.63303 88.7786 8.2217L89.1494 7.293ZM95.8407 10.1654C96.3789 10.4104 96.9314 10.665 97.4985 10.9293L97.076 11.8357C96.5115 11.5726 95.9617 11.3193 95.4263 11.0755L95.8407 10.1654ZM97.4985 10.9293C98.1701 11.2424 98.8184 11.5458 99.4448 11.8404L99.0193 12.7453C98.3939 12.4513 97.7467 12.1483 97.076 11.8357L97.4985 10.9293ZM103.319 13.6847C104.72 14.3614 105.994 14.9901 107.167 15.5849L106.715 16.4768C105.549 15.8855 104.28 15.2597 102.884 14.5851L103.319 13.6847ZM110.974 17.5905C112.328 18.3363 113.545 19.0491 114.695 19.7675L114.165 20.6156C113.032 19.9079 111.831 19.2043 110.492 18.4664L110.974 17.5905Z" fill="#7D3C88"/>
</svg>
