<svg width="114" height="20" viewBox="0 0 114 20" fill="none" xmlns="http://www.w3.org/2000/svg">
<path d="M19.7741 13.6991L19.9461 13.2296L19.7741 13.6991ZM40.3455 18.4396L40.2803 18.9353L40.3455 18.4396ZM84.2181 13.5301L84.3736 14.0054L84.2181 13.5301ZM113.289 0.782545L107.516 0.727456L110.355 5.75477L113.289 0.782545ZM0.733047 5.22392C1.13115 5.47529 1.64186 5.77703 2.24309 6.11645L2.73469 5.24563C2.14165 4.91084 1.64628 4.6179 1.26695 4.37838L0.733047 5.22392ZM5.31422 7.76695C6.27379 8.26277 7.32135 8.78885 8.42526 9.32622L8.86294 8.42709C7.76601 7.89312 6.72557 7.3706 5.77328 6.87854L5.31422 7.76695ZM11.5695 10.8136C12.6149 11.2937 13.6822 11.7693 14.7495 12.2272L15.1437 11.3081C14.0849 10.854 13.0253 10.3818 11.9869 9.9049L11.5695 10.8136ZM17.9723 13.551C18.5226 13.766 19.0669 13.9726 19.6021 14.1686L19.9461 13.2296C19.4182 13.0363 18.8805 12.8323 18.3363 12.6196L17.9723 13.551ZM19.6021 14.1686C20.1798 14.3802 20.7347 14.5799 21.2704 14.7687L21.6028 13.8256C21.0714 13.6383 20.5203 13.44 19.9461 13.2296L19.6021 14.1686ZM24.6348 15.8904C25.8303 16.2623 26.9511 16.5781 28.0557 16.8554L28.2992 15.8855C27.214 15.6131 26.1111 15.3023 24.9318 14.9355L24.6348 15.8904ZM31.5293 17.6179C32.6358 17.8284 33.7837 18.0194 35.0271 18.2074L35.1765 17.2186C33.9421 17.032 32.8072 16.8431 31.7162 16.6355L31.5293 17.6179ZM38.5278 18.7025C39.0894 18.778 39.6725 18.8553 40.2803 18.9353L40.4108 17.9438C39.8035 17.8639 39.2214 17.7868 38.6612 17.7114L38.5278 18.7025ZM40.2803 18.9353C40.8588 19.0114 41.5005 19.0729 42.1895 19.122L42.2606 18.1245C41.5858 18.0764 40.9646 18.0167 40.4108 17.9438L40.2803 18.9353ZM45.9993 19.2745C47.2268 19.2947 48.511 19.294 49.7998 19.2789L49.7881 18.279C48.5064 18.294 47.2318 18.2946 46.0157 18.2747L45.9993 19.2745ZM53.5946 19.1975C54.9312 19.1572 56.2155 19.1073 57.384 19.0555L57.3397 18.0565C56.1752 18.1081 54.8956 18.1578 53.5645 18.198L53.5946 19.1975ZM61.172 18.8628C62.2293 18.8018 62.9181 18.7552 63.0681 18.7432L62.9879 17.7464C62.8505 17.7574 62.1719 17.8034 61.1144 17.8644L61.172 18.8628ZM63.0681 18.7432C63.1544 18.7362 63.3041 18.7395 63.628 18.735C63.9299 18.7309 64.3381 18.7195 64.8736 18.6817L64.8031 17.6841C64.2903 17.7204 63.9014 17.7312 63.6143 17.7351C63.3493 17.7388 63.1179 17.7359 62.9879 17.7464L63.0681 18.7432ZM68.5217 18.2167C69.5404 18.0415 70.7268 17.8072 72.1044 17.4935L71.8823 16.5184C70.5208 16.8285 69.3519 17.0592 68.3523 17.2311L68.5217 18.2167ZM75.649 16.6152C76.73 16.3279 77.8969 16.0015 79.1559 15.6309L78.8735 14.6716C77.6225 15.0399 76.4641 15.3639 75.3921 15.6488L75.649 16.6152ZM82.6362 14.5652C83.1999 14.3864 83.7789 14.1999 84.3736 14.0054L84.0627 13.0549C83.4708 13.2485 82.8946 13.4341 82.3338 13.612L82.6362 14.5652ZM84.3736 14.0054C85.0116 13.7966 85.6425 13.5861 86.2661 13.3741L85.9442 12.4273C85.3242 12.6381 84.697 12.8474 84.0627 13.0549L84.3736 14.0054ZM90.0244 12.047C91.3019 11.5791 92.5444 11.1065 93.751 10.632L93.385 9.70135C92.1856 10.173 90.9504 10.6428 89.6804 11.108L90.0244 12.047ZM97.4439 9.12855C98.7096 8.59546 99.9286 8.06339 101.099 7.53608L100.689 6.62429C99.5253 7.1483 98.3137 7.6771 97.0557 8.20696L97.4439 9.12855ZM104.714 5.85283C105.974 5.24623 107.165 4.65187 108.282 4.07591L107.824 3.18697C106.714 3.75885 105.532 4.34918 104.28 4.9518L104.714 5.85283Z" fill="#7D3C88"/>
</svg>
