<svg width="37" height="37" viewBox="0 0 37 37" fill="none" xmlns="http://www.w3.org/2000/svg">
<path d="M33.0767 8.85964L32.6218 8.65208L33.0767 8.85964ZM28.1721 16.8555L28.572 17.1555L28.1721 16.8555ZM13.0233 29.3918L13.2595 29.8325L13.0233 29.3918ZM0.0212327 34.8436L3.91864 30.5841L5.65879 36.0891L0.0212327 34.8436ZM36.6136 0.296203C36.5023 0.796822 36.2774 1.59843 35.9785 2.55033L35.0244 2.25075C35.3207 1.30727 35.5354 0.537769 35.6374 0.0791634L36.6136 0.296203ZM34.436 6.92315C34.1451 7.66224 33.8403 8.39048 33.5315 9.06721L32.6218 8.65208C32.9216 7.99496 33.2195 7.28355 33.5054 6.55692L34.436 6.92315ZM33.5315 9.06721C33.1616 9.8779 32.8263 10.5753 32.4995 11.2079L31.611 10.749C31.9284 10.1346 32.2565 9.45252 32.6218 8.65208L33.5315 9.06721ZM29.9764 15.2572C29.5641 15.8288 29.1033 16.4474 28.572 17.1555L27.7721 16.5554C28.3029 15.8479 28.7589 15.2357 29.1654 14.6722L29.9764 15.2572ZM28.572 17.1555C28.1472 17.7219 27.5478 18.4015 26.883 19.1079L26.1548 18.4226C26.8113 17.725 27.3807 17.0771 27.7721 16.5554L28.572 17.1555ZM23.2702 22.6893C22.2625 23.6406 21.5011 24.3296 21.4019 24.4169L20.7413 23.6661C20.8281 23.5898 21.5801 22.9096 22.5837 21.9621L23.2702 22.6893ZM21.4019 24.4169C21.4023 24.4165 21.3995 24.419 21.3919 24.4264C21.3847 24.4334 21.3754 24.4426 21.3631 24.4551C21.3508 24.4675 21.337 24.4815 21.3205 24.4983C21.3043 24.5148 21.286 24.5334 21.2658 24.5537C21.1844 24.6358 21.074 24.745 20.9258 24.8812C20.6295 25.1536 20.188 25.5288 19.5278 26.0144L18.9353 25.2088C20.2079 24.2728 20.5641 23.8221 20.7413 23.6661L21.4019 24.4169ZM15.3944 28.6502C14.7527 29.0185 14.0434 29.4124 13.2595 29.8325L12.7871 28.951C13.5631 28.5352 14.2638 28.1461 14.8967 27.7829L15.3944 28.6502ZM13.2595 29.8325C12.7271 30.1177 12.2016 30.3915 11.6837 30.654L11.2316 29.7621C11.7427 29.5029 12.2616 29.2327 12.7871 28.951L13.2595 29.8325ZM8.47873 32.1875C7.32624 32.7066 6.23009 33.1657 5.20357 33.5699L4.83722 32.6394C5.84937 32.2409 6.93072 31.788 8.06808 31.2757L8.47873 32.1875Z" fill="#7D3C88"/>
</svg>
