<svg width="309" height="278" viewBox="0 0 309 278" fill="none" xmlns="http://www.w3.org/2000/svg">
  <path d="M-52.9236 113.61C-44.4497 112.097 -35.854 101.571 -28.9236 97.1023C-27.6013 96.2497 -26.6795 94.7107 -25.868 93.2978C-24.6117 91.1105 -21.6744 90.5451 -19.9236 88.9774C-15.5854 85.093 -11.9115 82.2224 -7.14581 78.7891C1.80623 72.3397 11.4162 66.495 20.0764 59.3151C32.2675 49.2078 47.5313 43.8943 62.0209 39.9701C77.5662 35.7599 92.4128 29.0865 108.632 30.1041C112.54 30.3493 124.076 30.056 124.076 36.4235C124.076 42.9464 122.719 46.9015 119.299 52.093C113.619 60.7137 104.79 66.1671 96.632 71.18C88.1402 76.3981 80.2276 82.8088 72.0764 88.5905C69.5554 90.3788 67.7981 93.0007 65.2986 94.7809C62.4764 96.7911 59.2678 97.6634 56.6875 100.198C52.2335 104.572 47.0226 106.837 42.7431 111.805C40.2276 114.724 39.7054 123.53 43.5209 124.637C60.4852 129.559 77.5095 122.074 94.3542 120.51C102.698 119.735 111.164 118.253 119.576 118.253C125.699 118.253 137.526 115.365 142.521 120.058C153.613 130.481 137.645 139.312 130.576 142.047C113.304 148.73 96.2392 154.117 79.7431 163.262C60.0054 174.204 41.0796 187.861 21.8542 200.018C8.33992 208.563 -8.69323 220.392 -17.1458 235.742C-28.2281 255.866 -22.1075 273.345 -5.59025 286.168C9.43879 297.835 26.8267 304.594 44.9098 304.932C65.0046 305.308 82.3996 296.588 101.021 288.94C120.073 281.115 139.422 274.587 158.632 267.338C175.317 261.043 191.608 253.755 208.521 248.251C226.284 242.471 250.303 232.945 267.965 244.963C290.425 260.244 273.662 290.26 261.132 306.673C247.763 324.186 233.132 341.574 223.076 362" stroke="#F5B841" stroke-width="60" stroke-linecap="round" />
</svg>