<svg width="16" height="16" viewBox="0 0 16 16" fill="none" xmlns="http://www.w3.org/2000/svg">
<g clip-path="url(#clip0_87_5802)">
<path d="M15.75 8C15.75 12.275 12.275 15.75 8 15.75C3.725 15.75 0.25 12.275 0.25 8C0.25 3.725 3.725 0.25 8 0.25C12.275 0.25 15.75 3.725 15.75 8ZM10.8938 9.725C10.8938 8.1 9.15625 7.6375 8.40625 7.425C6.9875 7.03125 6.86875 6.51875 6.8875 6.25625C6.9375 5.61875 7.6375 5.4625 8.2875 5.6C8.8 5.7125 9.325 6.0125 9.61875 6.24375L10.55 5.15625C10.0938 4.84375 9.50625 4.4375 8.65 4.275V3.21875H7.29375V4.2375C5.98125 4.3375 5.10625 5.1625 5.10625 6.29375C5.10625 7.4 5.90625 7.91875 6.70625 8.30625C7.375 8.625 9.2375 8.95625 9.13125 9.8C9.075 10.2563 8.5875 10.5938 7.78125 10.4937C7.08125 10.4062 6.33125 9.81875 6.33125 9.81875L5.30625 10.8375C5.925 11.3375 6.58125 11.65 7.29375 11.7937V12.7875H8.65V11.8438C9.94375 11.7 10.8938 10.8188 10.8938 9.725Z" fill="#0F0F34"/>
</g>
<defs>
<clipPath id="clip0_87_5802">
<rect width="16" height="16" fill="white"/>
</clipPath>
</defs>
</svg>
