<svg width="24" height="25" viewBox="0 0 24 25" fill="none" xmlns="http://www.w3.org/2000/svg">
<g id="check-square-svgrepo-com 1">
<path id="Vector" d="M19.8466 4.5H4.1543V20.1923H19.8466V4.5Z" fill="white"/>
<path id="Vector_2" fill-rule="evenodd" clip-rule="evenodd" d="M7.25007 2.88782C8.54878 2.5992 10.1243 2.5 12 2.5C13.8757 2.5 15.4512 2.5992 16.7499 2.88782C18.06 3.17897 19.1488 3.676 19.9864 4.51358C20.824 5.35116 21.321 6.44002 21.6122 7.75007C21.9008 9.04878 22 10.6243 22 12.5C22 14.3757 21.9008 15.9512 21.6122 17.2499C21.321 18.56 20.824 19.6488 19.9864 20.4864C19.1488 21.324 18.06 21.821 16.7499 22.1122C15.4512 22.4008 13.8757 22.5 12 22.5C10.1243 22.5 8.54878 22.4008 7.25007 22.1122C5.94002 21.821 4.85116 21.324 4.01358 20.4864C3.176 19.6488 2.67897 18.56 2.38782 17.2499C2.0992 15.9512 2 14.3757 2 12.5C2 10.6243 2.0992 9.04878 2.38782 7.75007C2.67897 6.44002 3.176 5.35116 4.01358 4.51358C4.85116 3.676 5.94002 3.17897 7.25007 2.88782ZM15.7071 9.79289C16.0976 10.1834 16.0976 10.8166 15.7071 11.2071L12.0243 14.8899C11.4586 15.4556 10.5414 15.4556 9.97568 14.8899L8.29289 13.2071C7.90237 12.8166 7.90237 12.1834 8.29289 11.7929C8.68342 11.4024 9.31658 11.4024 9.70711 11.7929L11 13.0858L14.2929 9.79289C14.6834 9.40237 15.3166 9.40237 15.7071 9.79289Z" fill="#496AF1"/>
</g>
</svg>
