<svg xmlns="http://www.w3.org/2000/svg" width="25" height="25" viewBox="0 0 25 25" fill="none">
<path d="M18.604 6.02002H5.64404V18.98H18.604V6.02002Z" fill="white"/>
<path fill-rule="evenodd" clip-rule="evenodd" d="M2.12402 12.5C2.12402 6.97715 6.60117 2.5 12.124 2.5C17.6468 2.5 22.124 6.97715 22.124 12.5C22.124 18.0228 17.6468 22.5 12.124 22.5C6.60117 22.5 2.12402 18.0228 2.12402 12.5ZM15.8311 9.79289C16.2216 10.1834 16.2216 10.8166 15.8311 11.2071L12.1483 14.8899C11.5826 15.4556 10.6654 15.4556 10.0997 14.8899L8.41691 13.2071C8.02639 12.8166 8.02639 12.1834 8.41691 11.7929C8.80744 11.4024 9.4406 11.4024 9.83113 11.7929L11.124 13.0858L14.4169 9.79289C14.8074 9.40237 15.4406 9.40237 15.8311 9.79289Z" fill="#7D3C88"/>
</svg>