<svg width="33" height="32" viewBox="0 0 33 32" fill="none" xmlns="http://www.w3.org/2000/svg">
<circle cx="16.5" cy="16" r="16" fill="white"/>
<g clip-path="url(#clip0_1_300)">
<path d="M16.5124 14.825C18.9374 14.825 20.9374 12.85 20.9374 10.4C20.9374 7.97499 18.9374 6 16.5124 6C14.0874 6 12.0874 7.97499 12.0874 10.425C12.0874 12.85 14.0874 14.825 16.5124 14.825Z" fill="#111111"/>
<path d="M20.3624 15.0751C20.2124 15.0751 20.0874 15.1251 19.9874 15.2251C19.0624 16.1251 17.8124 16.6251 16.5124 16.6251C15.2124 16.6251 13.9874 16.1251 13.0374 15.2251C12.9374 15.1251 12.7874 15.0751 12.6624 15.0751C9.93741 15.2751 7.78741 17.5751 7.78741 20.3251V22.75C7.78741 24.55 9.23741 26 11.0374 26H21.9624C23.7624 26 25.2124 24.55 25.2124 22.75V20.3251C25.2374 17.5751 23.0874 15.2751 20.3624 15.0751ZM14.4374 22.15C14.6374 22.35 14.6374 22.65 14.4374 22.85C14.3374 22.95 14.2124 23 14.0874 23C13.9624 23 13.8374 22.95 13.7374 22.85L12.4624 21.5751C12.2624 21.3751 12.2624 21.0751 12.4624 20.8751L13.7374 19.6001C13.9374 19.4001 14.2374 19.4001 14.4374 19.6001C14.6374 19.8001 14.6374 20.1251 14.4374 20.3251L13.5124 21.2501L14.4374 22.15ZM17.7874 18.9001L16.3874 23.875C16.3374 24.1 16.1374 24.25 15.9124 24.25C15.8874 24.25 15.8374 24.25 15.7874 24.225C15.5124 24.15 15.3624 23.875 15.4374 23.6L16.8374 18.6251C16.9124 18.3501 17.1874 18.2001 17.4624 18.2751C17.7124 18.3501 17.8624 18.6251 17.7874 18.9001ZM20.5624 21.6001L19.2874 22.875C19.1874 22.975 19.0624 23.025 18.9374 23.025C18.8124 23.025 18.6874 22.975 18.5874 22.875C18.3874 22.675 18.3874 22.375 18.5874 22.175L19.5124 21.2501L18.5874 20.3001C18.3874 20.1001 18.3874 19.8001 18.5874 19.6001C18.7874 19.4001 19.0874 19.4001 19.2874 19.6001L20.5624 20.9001C20.7624 21.1001 20.7624 21.4001 20.5624 21.6001Z" fill="#111111"/>
</g>
<defs>
<clipPath id="clip0_1_300">
<rect width="20" height="20" fill="white" transform="translate(6.5 6)"/>
</clipPath>
</defs>
</svg>
