<svg width="18" height="18" viewBox="0 0 18 18" fill="none" xmlns="http://www.w3.org/2000/svg">
<g clip-path="url(#clip0_32_1901)">
<path d="M16.5048 3.20574C15.5398 2.24113 14.257 1.70989 12.8925 1.70989C12.102 1.70989 11.3499 1.88152 10.6571 2.22007L9.00018 3.02997L7.34272 2.21982C6.65011 1.88147 5.89815 1.70984 5.10785 1.70984C3.74321 1.70984 2.46005 2.24137 1.49457 3.20661C0.538676 4.16265 0.00787078 5.43496 8.69926e-05 6.7891C-0.00769679 8.14168 0.507103 9.41899 1.44972 10.3857C1.48981 10.4268 1.53145 10.4665 1.5745 10.5044L7.4625 15.708C7.9016 16.0961 8.45084 16.2901 9.00009 16.2901C9.54933 16.2901 10.0986 16.0961 10.5377 15.708L16.4263 10.504C16.4695 10.4657 16.5113 10.4261 16.5516 10.3846C17.4937 9.41778 18.0081 8.14061 17.9999 6.78803C17.9918 5.43414 17.461 4.16212 16.5048 3.20574Z" fill="#B34D75"/>
</g>
<defs>
<clipPath id="clip0_32_1901">
<rect width="18" height="18" fill="white"/>
</clipPath>
</defs>
</svg>
