<svg width="138" height="112" viewBox="0 0 138 112" fill="none" xmlns="http://www.w3.org/2000/svg">
<path d="M113 50.5C113 50.2239 112.776 50 112.5 50C112.224 50 112 50.2239 112 50.5H113ZM91.1464 72.6464C90.9512 72.8417 90.9512 73.1583 91.1464 73.3536L94.3284 76.5355C94.5237 76.7308 94.8403 76.7308 95.0355 76.5355C95.2308 76.3403 95.2308 76.0237 95.0355 75.8284L92.2071 73L95.0355 70.1716C95.2308 69.9763 95.2308 69.6597 95.0355 69.4645C94.8403 69.2692 94.5237 69.2692 94.3284 69.4645L91.1464 72.6464ZM112 50.5V68H113V50.5H112ZM107.5 72.5H91.5V73.5H107.5V72.5ZM112 68C112 70.4853 109.985 72.5 107.5 72.5V73.5C110.538 73.5 113 71.0376 113 68H112Z" fill="white"/>
<path d="M22 51V68C22 70.7614 24.2386 73 27 73H43" stroke="white" stroke-linecap="round"/>
<path d="M48.5 24C48.5 36.969 37.7646 47.5 24.5 47.5C11.2354 47.5 0.5 36.969 0.5 24C0.5 11.031 11.2354 0.5 24.5 0.5C37.7646 0.5 48.5 11.031 48.5 24Z" stroke="white"/>
<path d="M24.1836 9C19.8219 9 16.2734 12.5485 16.2734 16.9102C16.2734 21.2718 19.8219 24.8203 24.1836 24.8203C28.5453 24.8203 32.0938 21.2718 32.0938 16.9102C32.0938 12.5485 28.5453 9 24.1836 9Z" fill="white"/>
<path d="M34.0254 29.988C31.8597 27.7891 28.9888 26.5781 25.9414 26.5781H22.4258C19.3784 26.5781 16.5075 27.7891 14.3418 29.988C12.1868 32.1761 11 35.0644 11 38.1211C11 38.6065 11.3935 39 11.8789 39H36.4883C36.9737 39 37.3672 38.6065 37.3672 38.1211C37.3672 35.0644 36.1804 32.1761 34.0254 29.988Z" fill="white"/>
<path d="M137.5 24C137.5 36.969 126.765 47.5 113.5 47.5C100.235 47.5 89.5 36.969 89.5 24C89.5 11.031 100.235 0.5 113.5 0.5C126.765 0.5 137.5 11.031 137.5 24Z" stroke="white"/>
<path d="M113.184 9C108.822 9 105.273 12.5485 105.273 16.9102C105.273 21.2718 108.822 24.8203 113.184 24.8203C117.545 24.8203 121.094 21.2718 121.094 16.9102C121.094 12.5485 117.545 9 113.184 9Z" fill="white"/>
<path d="M123.025 29.988C120.86 27.7891 117.989 26.5781 114.941 26.5781H111.426C108.378 26.5781 105.507 27.7891 103.342 29.988C101.187 32.1761 100 35.0644 100 38.1211C100 38.6065 100.394 39 100.879 39H125.488C125.974 39 126.367 38.6065 126.367 38.1211C126.367 35.0644 125.18 32.1761 123.025 29.988Z" fill="white"/>
<circle cx="69" cy="88" r="23.5" stroke="white"/>
<path d="M61.7734 78.9102C61.7734 74.8246 65.0981 71.5 69.1836 71.5C73.2691 71.5 76.5938 74.8246 76.5938 78.9102C76.5938 82.9957 73.2691 86.3203 69.1836 86.3203C65.0981 86.3203 61.7734 82.9957 61.7734 78.9102Z" stroke="white"/>
<path d="M70.9414 89.0781C73.853 89.0781 76.5961 90.234 78.6691 92.3388L79.0254 91.988L78.6691 92.3388C80.7325 94.4339 81.8672 97.1964 81.8672 100.121C81.8672 100.33 81.6975 100.5 81.4883 100.5H56.8789C56.6697 100.5 56.5 100.33 56.5 100.121C56.5 97.1964 57.6347 94.4339 59.6981 92.3388L59.3418 91.988L59.6981 92.3388C61.7711 90.234 64.5143 89.0781 67.4258 89.0781H70.9414Z" stroke="white"/>
</svg>
