<svg width="14" height="14" viewBox="0 0 14 14" fill="none" xmlns="http://www.w3.org/2000/svg">
<path d="M12.5906 4.69904C11.9101 1.70459 9.29805 0.356445 7.00361 0.356445C7.00361 0.356445 7.00361 0.356445 6.99713 0.356445C4.70914 0.356445 2.09063 1.69811 1.41007 4.69256C0.651737 8.037 2.69988 10.8694 4.55359 12.6518C5.24062 13.3129 6.12213 13.6435 7.00361 13.6435C7.88509 13.6435 8.76657 13.3129 9.44713 12.6518C11.3008 10.8694 13.349 8.04348 12.5906 4.69904ZM7.00361 7.94626C5.87583 7.94626 4.96192 7.03237 4.96192 5.90459C4.96192 4.77682 5.87583 3.86293 7.00361 3.86293C8.13138 3.86293 9.04527 4.77682 9.04527 5.90459C9.04527 7.03237 8.13138 7.94626 7.00361 7.94626Z" fill="#B34D75"/>
</svg>
