<svg width="38" height="38" viewBox="0 0 38 38" fill="none" xmlns="http://www.w3.org/2000/svg">
<path d="M14.1711 14.2432H10.5437C10.3827 14.2432 10.2523 14.3737 10.2523 14.5346V26.1878C10.2523 26.3488 10.3827 26.4792 10.5437 26.4792H14.1711C14.332 26.4792 14.4625 26.3488 14.4625 26.1878V14.5346C14.4625 14.3737 14.332 14.2432 14.1711 14.2432Z" fill="#B34D75"/>
<path d="M12.3587 8.4502C11.0388 8.4502 9.96509 9.52279 9.96509 10.8412C9.96509 12.1602 11.0388 13.2332 12.3587 13.2332C13.6775 13.2332 14.7504 12.1601 14.7504 10.8412C14.7504 9.52279 13.6775 8.4502 12.3587 8.4502Z" fill="#B34D75"/>
<path d="M23.3983 13.9536C21.9414 13.9536 20.8645 14.5799 20.2112 15.2915V14.5347C20.2112 14.3737 20.0808 14.2432 19.9198 14.2432H16.446C16.285 14.2432 16.1545 14.3737 16.1545 14.5347V26.1879C16.1545 26.3488 16.285 26.4793 16.446 26.4793H20.0654C20.2264 26.4793 20.3568 26.3488 20.3568 26.1879V20.4222C20.3568 18.4794 20.8846 17.7224 22.2389 17.7224C23.7139 17.7224 23.8312 18.9359 23.8312 20.5222V26.1879C23.8312 26.3489 23.9616 26.4793 24.1226 26.4793H27.7434C27.9044 26.4793 28.0348 26.3489 28.0348 26.1879V19.7959C28.0348 16.907 27.4839 13.9536 23.3983 13.9536Z" fill="#B34D75"/>
</svg>
