<svg width="16" height="16" viewBox="0 0 16 16" fill="none" xmlns="http://www.w3.org/2000/svg">
  <path d="M14.5 12.5923V13.199C14.5 13.914 13.915 14.499 13.2 14.499H2.8C2.085 14.499 1.5 13.914 1.5 13.199V12.5923C1.5 11.0107 3.34167 10.0573 5.075 9.29902C5.14 9.27735 5.18333 9.25568 5.24833 9.21235C5.37833 9.14735 5.53 9.14735 5.66 9.23402C6.35333 9.68902 7.155 9.94902 8 9.94902C8.845 9.94902 9.64667 9.68902 10.34 9.25568C10.47 9.16902 10.6217 9.16902 10.7517 9.23402C10.8167 9.25568 10.86 9.27735 10.925 9.32068C12.6583 10.0573 14.5 11.0107 14.5 12.5923Z" fill="#F5B841" />
  <path d="M8.00006 8.65C9.78302 8.65 11.2284 7.04942 11.2284 5.075C11.2284 3.10058 9.78302 1.5 8.00006 1.5C6.2171 1.5 4.77173 3.10058 4.77173 5.075C4.77173 7.04942 6.2171 8.65 8.00006 8.65Z" fill="#F5B841" />
</svg>