<svg width="46" height="46" viewBox="0 0 46 46" fill="none" xmlns="http://www.w3.org/2000/svg">
<path d="M24.8342 5.81293H17.13H9.42645C7.60565 5.81293 6.125 7.29414 6.125 9.11438V20.12C6.125 21.9408 7.60622 23.4214 9.42645 23.4214H10.5271V26.7229C10.5271 27.1683 10.795 27.5693 11.2063 27.7394C11.6107 27.9077 12.0868 27.8196 12.4059 27.5005L16.4855 23.4209H17.1306H24.8347C26.6555 23.4209 28.1362 21.9396 28.1362 20.1194V9.11495C28.1356 7.29414 26.6544 5.81293 24.8342 5.81293ZM12.7279 15.7178C12.1198 15.7178 11.6272 15.2252 11.6272 14.6172C11.6272 14.0091 12.1198 13.5165 12.7279 13.5165C13.336 13.5165 13.8286 14.0091 13.8286 14.6172C13.8286 15.2252 13.3354 15.7178 12.7279 15.7178ZM18.2307 14.6177C18.2307 15.2258 17.7381 15.7184 17.13 15.7184C16.522 15.7184 16.0294 15.2258 16.0294 14.6177C16.0294 14.0097 16.522 13.5171 17.13 13.5171C17.7381 13.5171 18.2307 14.0097 18.2307 14.6177ZM21.5322 15.7178C20.9241 15.7178 20.4315 15.2252 20.4315 14.6172C20.4315 14.0091 20.9241 13.5165 21.5322 13.5165C22.1402 13.5165 22.6328 14.0091 22.6328 14.6172C22.6328 15.2252 22.1402 15.7178 21.5322 15.7178Z" fill="#7D3C88"/>
<path d="M37.7066 17.7531C37.3528 17.6234 36.9711 17.5523 36.5729 17.5523H29.2892V20.12C29.2892 22.5767 27.2903 24.575 24.8341 24.575H17.8638V31.8588C17.8638 33.6785 19.3461 35.1602 21.1652 35.1602H28.8694H29.515L33.5946 39.2398C33.8062 39.4514 34.0872 39.5658 34.383 39.5624C34.5172 39.5607 34.6549 39.5345 34.7908 39.4822C35.2015 39.3058 35.4728 38.9099 35.4728 38.4623V35.1608H36.5735C38.3932 35.1608 39.875 33.6785 39.875 31.8594V20.8543C39.875 19.4323 38.9705 18.2167 37.7066 17.7531ZM24.4672 27.4572C23.8592 27.4572 23.3666 26.9646 23.3666 26.3566C23.3666 25.7485 23.8592 25.2559 24.4672 25.2559C25.0753 25.2559 25.5679 25.7485 25.5679 26.3566C25.5679 26.9646 25.0747 27.4572 24.4672 27.4572ZM29.97 26.3566C29.97 26.9646 29.4774 27.4572 28.8694 27.4572C28.2613 27.4572 27.7687 26.9646 27.7687 26.3566C27.7687 25.7485 28.2613 25.2559 28.8694 25.2559C29.4769 25.2565 29.97 25.7491 29.97 26.3566ZM33.2715 27.4572C32.6634 27.4572 32.1708 26.9646 32.1708 26.3566C32.1708 25.7485 32.6634 25.2559 33.2715 25.2559C33.8796 25.2559 34.3722 25.7485 34.3722 26.3566C34.3722 26.9646 33.8796 27.4572 33.2715 27.4572Z" fill="#7D3C88"/>
</svg>
