<svg width="46" height="46" viewBox="0 0 46 46" fill="none" xmlns="http://www.w3.org/2000/svg">
<path d="M25.8243 29.0146C25.0744 30.0346 23.9044 30.6346 22.6744 30.6646C22.6444 30.6646 22.6144 30.6646 22.5544 30.6646C21.3544 30.6646 20.1844 30.1246 19.4344 29.1946L14.7245 23.4947C13.2845 21.7547 13.5545 19.2047 15.2644 17.7647C17.0044 16.3248 19.5544 16.5948 20.9944 18.3047L22.3744 19.9847L30.3843 9.15482C30.0843 9.12482 29.7543 9.09482 29.4543 9.09482H15.8944C12.1745 9.06482 9.1145 12.1248 9.1145 15.8448V29.3746C9.1145 33.0946 12.1445 36.1546 15.8944 36.1546H29.4243C33.1743 36.1546 36.2043 33.1246 36.2043 29.3746V15.8448C36.2043 15.5748 36.1743 15.2748 36.1443 15.0048L25.8243 29.0146Z" fill="#7D3C88"/>
<path d="M36.3242 7.92486C35.7242 7.47486 34.8842 7.59486 34.4342 8.22485L22.4943 24.4247L18.8943 20.0747C18.4143 19.5048 17.5744 19.4148 16.9744 19.8947C16.4044 20.3747 16.3144 21.2147 16.7944 21.8147L21.5043 27.5147C21.7743 27.8147 22.1343 27.9947 22.5543 27.9947H22.5843C23.0043 27.9947 23.3943 27.7847 23.6343 27.4547L36.6242 9.81484C37.0742 9.21485 36.9242 8.37485 36.3242 7.92486Z" fill="#7D3C88"/>
</svg>
