<svg width="18" height="19" viewBox="0 0 18 19" fill="none" xmlns="http://www.w3.org/2000/svg">
  <path fill-rule="evenodd" clip-rule="evenodd" d="M2.39995 8.39922C2.39995 6.94053 2.97941 5.54158 4.01087 4.51013C5.04232 3.47868 6.44126 2.89922 7.89995 2.89922C9.35864 2.89922 10.7576 3.47868 11.789 4.51013C12.8205 5.54158 13.4 6.94053 13.4 8.39922C13.4 9.85791 12.8205 11.2569 11.789 12.2883C10.7576 13.3198 9.35864 13.8992 7.89995 13.8992C6.44126 13.8992 5.04232 13.3198 4.01087 12.2883C2.97941 11.2569 2.39995 9.85791 2.39995 8.39922ZM7.89995 0.699219C6.67987 0.699219 5.47726 0.989148 4.39121 1.54512C3.30517 2.10108 2.36678 2.90717 1.65339 3.89695C0.939994 4.88673 0.472016 6.03187 0.288017 7.23799C0.104019 8.44412 0.209268 9.6767 0.595091 10.8342C0.980914 11.9916 1.63627 13.0409 2.50714 13.8954C3.37801 14.7499 4.43948 15.3852 5.60406 15.749C6.76864 16.1128 8.00301 16.1946 9.20542 15.9877C10.4078 15.7809 11.5439 15.2913 12.52 14.5592C12.5512 14.6008 12.5854 14.6402 12.6223 14.6769L15.9223 17.9769C16.1297 18.1773 16.4076 18.2882 16.696 18.2857C16.9844 18.2832 17.2603 18.1675 17.4643 17.9635C17.6682 17.7596 17.7839 17.4837 17.7864 17.1953C17.7889 16.9068 17.678 16.629 17.4777 16.4215L14.1777 13.1215C14.1409 13.0847 14.1016 13.0505 14.06 13.0192C14.9179 11.8752 15.4404 10.5149 15.5688 9.09072C15.6973 7.66652 15.4265 6.23469 14.787 4.95567C14.1475 3.67666 13.1645 2.60099 11.9481 1.84921C10.7317 1.09742 9.32993 0.699219 7.89995 0.699219Z" fill="#0F0F34" />
</svg>