
<svg width="90" height="17" viewBox="0 0 90 17" fill="none" xmlns="http://www.w3.org/2000/svg">
    <g clip-path="url(#clip0_414:1367)">
        <path d="M16.9322 6.5495C16.8738 6.36917 16.7184 6.23775 16.5313 6.21053L11.2747 5.4447L8.92379 0.669212C8.84013 0.499212 8.66742 0.391602 8.47835 0.391602C8.28925 0.391602 8.11657 0.499212 8.03288 0.669212L5.68189 5.4447L0.425392 6.21053C0.238308 6.23775 0.0828187 6.36917 0.0243985 6.54946C-0.034055 6.72979 0.0146948 6.92771 0.150115 7.06002L3.95366 10.7772L3.05589 16.0261C3.0239 16.2129 3.10054 16.4017 3.25351 16.5132C3.34005 16.5762 3.44255 16.6083 3.54555 16.6083C3.62463 16.6083 3.70398 16.5894 3.77664 16.5511L8.47832 14.0729L13.1798 16.551C13.3472 16.6393 13.55 16.6246 13.703 16.5132C13.8559 16.4017 13.9326 16.2129 13.9006 16.026L13.0026 10.7772L16.8066 7.05999C16.9419 6.92771 16.9907 6.72979 16.9322 6.5495Z" fill="#FFC700"/>
    </g>
    <g clip-path="url(#clip1_414:1367)">
        <path d="M35.1932 6.5495C35.1347 6.36917 34.9793 6.23775 34.7922 6.21053L29.5356 5.4447L27.1847 0.669212C27.1011 0.499212 26.9283 0.391602 26.7393 0.391602C26.5502 0.391602 26.3775 0.499212 26.2938 0.669212L23.9428 5.4447L18.6863 6.21053C18.4992 6.23775 18.3437 6.36917 18.2853 6.54946C18.2269 6.72979 18.2756 6.92771 18.411 7.06002L22.2146 10.7772L21.3168 16.0261C21.2848 16.2129 21.3615 16.4017 21.5144 16.5132C21.601 16.5762 21.7035 16.6083 21.8065 16.6083C21.8856 16.6083 21.9649 16.5894 22.0376 16.5511L26.7392 14.0729L31.4407 16.551C31.6081 16.6393 31.8109 16.6246 31.9639 16.5132C32.1169 16.4017 32.1935 16.2129 32.1616 16.026L31.2635 10.7772L35.0675 7.05999C35.2029 6.92771 35.2516 6.72979 35.1932 6.5495Z" fill="#FFC700"/>
    </g>
    <g clip-path="url(#clip2_414:1367)">
        <path d="M53.454 6.5495C53.3955 6.36917 53.2401 6.23775 53.053 6.21053L47.7964 5.4447L45.4455 0.669212C45.3619 0.499212 45.1892 0.391602 45.0001 0.391602C44.811 0.391602 44.6383 0.499212 44.5546 0.669212L42.2036 5.4447L36.9471 6.21053C36.76 6.23775 36.6045 6.36917 36.5461 6.54946C36.4877 6.72979 36.5364 6.92771 36.6718 7.06002L40.4754 10.7772L39.5776 16.0261C39.5456 16.2129 39.6223 16.4017 39.7752 16.5132C39.8618 16.5762 39.9643 16.6083 40.0673 16.6083C40.1464 16.6083 40.2257 16.5894 40.2984 16.5511L45 14.0729L49.7015 16.551C49.8689 16.6393 50.0717 16.6246 50.2247 16.5132C50.3777 16.4017 50.4543 16.2129 50.4224 16.026L49.5243 10.7772L53.3283 7.05999C53.4637 6.92771 53.5125 6.72979 53.454 6.5495Z" fill="#FFC700"/>
    </g>
    <g clip-path="url(#clip3_414:1367)">
        <path d="M71.7149 6.5495C71.6565 6.36917 71.501 6.23775 71.3139 6.21053L66.0573 5.4447L63.7064 0.669212C63.6228 0.499212 63.4501 0.391602 63.261 0.391602C63.0719 0.391602 62.8992 0.499212 62.8155 0.669212L60.4645 5.4447L55.208 6.21053C55.021 6.23775 54.8655 6.36917 54.8071 6.54946C54.7486 6.72979 54.7973 6.92771 54.9328 7.06002L58.7363 10.7772L57.8385 16.0261C57.8066 16.2129 57.8832 16.4017 58.0362 16.5132C58.1227 16.5762 58.2252 16.6083 58.3282 16.6083C58.4073 16.6083 58.4866 16.5894 58.5593 16.5511L63.261 14.0729L67.9624 16.551C68.1299 16.6393 68.3326 16.6246 68.4856 16.5132C68.6386 16.4017 68.7153 16.2129 68.6833 16.026L67.7852 10.7772L71.5892 7.05999C71.7246 6.92771 71.7734 6.72979 71.7149 6.5495Z" fill="#FFC700"/>
    </g>
    <g clip-path="url(#clip4_414:1367)">
        <path d="M89.9757 6.5495C89.9172 6.36917 89.7618 6.23775 89.5747 6.21053L84.3181 5.4447L81.9672 0.669212C81.8836 0.499212 81.7108 0.391602 81.5218 0.391602C81.3327 0.391602 81.16 0.499212 81.0763 0.669212L78.7253 5.4447L73.4688 6.21053C73.2817 6.23775 73.1262 6.36917 73.0678 6.54946C73.0094 6.72979 73.0581 6.92771 73.1935 7.06002L76.9971 10.7772L76.0993 16.0261C76.0673 16.2129 76.144 16.4017 76.2969 16.5132C76.3835 16.5762 76.486 16.6083 76.589 16.6083C76.6681 16.6083 76.7474 16.5894 76.8201 16.5511L81.5217 14.0729L86.2232 16.551C86.3906 16.6393 86.5934 16.6246 86.7464 16.5132C86.8994 16.4017 86.976 16.2129 86.9441 16.026L86.046 10.7772L89.85 7.05999C89.9854 6.92771 90.0341 6.72979 89.9757 6.5495Z" fill="#FFC700"/>
    </g>
    <defs>
        <clipPath id="clip0_414:1367">
            <rect width="16.9565" height="17" fill="white"/>
        </clipPath>
        <clipPath id="clip1_414:1367">
            <rect width="16.9565" height="17" fill="white" transform="translate(18.2609)"/>
        </clipPath>
        <clipPath id="clip2_414:1367">
            <rect width="16.9565" height="17" fill="white" transform="translate(36.5217)"/>
        </clipPath>
        <clipPath id="clip3_414:1367">
            <rect width="16.9565" height="17" fill="white" transform="translate(54.7827)"/>
        </clipPath>
        <clipPath id="clip4_414:1367">
            <rect width="16.9565" height="17" fill="white" transform="translate(73.0434)"/>
        </clipPath>
    </defs>
</svg>
