<svg width="38" height="38" viewBox="0 0 38 38" fill="none" xmlns="http://www.w3.org/2000/svg">
<path d="M28.975 12.4742C28.2416 12.818 27.4523 13.0499 26.6242 13.1537C27.4698 12.6198 28.1181 11.7741 28.4239 10.7652C27.633 11.2602 26.7574 11.6195 25.8248 11.8134C25.0784 10.9745 24.0146 10.45 22.8373 10.45C20.5772 10.45 18.7447 12.3827 18.7447 14.767C18.7447 15.1049 18.7807 15.4342 18.8508 15.7507C15.4491 15.5705 12.4328 13.8521 10.4141 11.2402C10.0617 11.8774 9.86007 12.619 9.86007 13.4109C9.86007 14.9084 10.5825 16.23 11.6808 17.0039C11.0102 16.9813 10.3788 16.787 9.82686 16.4636C9.82646 16.4816 9.82646 16.4999 9.82646 16.5183C9.82646 18.6095 11.2374 20.354 13.1099 20.7512C12.7665 20.8495 12.4049 20.9024 12.0315 20.9024C11.7675 20.9024 11.5111 20.8755 11.2613 20.8247C11.7825 22.5396 13.2938 23.7882 15.0846 23.8228C13.6838 24.9807 11.9193 25.671 10.0014 25.671C9.67136 25.671 9.34536 25.6505 9.02502 25.6103C10.8369 26.8358 12.9881 27.55 15.2992 27.55C22.828 27.55 26.9445 20.972 26.9445 15.2672C26.9445 15.0801 26.9409 14.8935 26.9332 14.7081C27.7326 14.1007 28.4267 13.34 28.975 12.4742Z" fill="#AC14F3"/>
</svg>
