

<svg width="250" height="247" viewBox="0 0 250 247" fill="none" xmlns="http://www.w3.org/2000/svg">
<mask id="mask0_1093_4552" style="mask-type:luminance" maskUnits="userSpaceOnUse" x="0" y="-9" width="393" height="256">
<path d="M392.951 -9H0V246.5H392.951V-9Z" fill="white"/>
</mask>
<g mask="url(#mask0_1093_4552)">
<path d="M157.756 -8.54921C154.403 -9.0168 151.044 -9.39632 147.672 -9.66061C132.878 -10.7991 117.714 -9.55896 103.869 -3.8936C99.0059 -1.90125 92.7847 0.490952 91.0064 6.08176C89.0941 12.1131 89.9738 18.9982 92.8357 24.528C96.0736 30.829 101.448 35.5812 107.866 37.8172C112.704 39.5995 117.854 40.8193 122.01 43.9908C127.938 48.5109 129.245 57.0089 126.089 63.7856C122.711 71.0503 119.479 78.5047 118.587 86.6503C117.86 93.2576 118.919 100.373 122.265 106.072C125.936 112.321 132.228 114.137 138.889 114.842C147.812 115.79 158.011 115.939 162.065 126.294C165.156 134.128 162.492 143.073 159.483 150.941C155.072 162.462 151.955 173.982 157.361 185.855C160.294 192.406 165.522 197.477 171.926 199.984C183.851 204.41 195.567 197.884 207.62 200.432C212.637 201.496 217.57 204.308 220.751 208.645C224.544 213.823 223.976 220.328 224.843 226.515C226.322 237.29 234.296 245.721 244.699 246.452C258.084 247.394 269.558 234.146 275.549 222.842C280.833 212.881 283.995 201.889 288.112 191.371C291.363 183.063 297.674 175.561 306.514 174.558C314.673 173.636 321.71 178.726 329.194 181.05C337.103 183.396 345.525 182.852 353.109 179.505C363.008 175.209 371.039 166.812 376.445 156.993C387.485 136.961 389.237 110.742 387.032 88.0734C385.432 71.5653 380.709 55.2402 372.168 41.3479C363.501 27.4294 351.341 16.3699 337.066 9.42268C321.933 1.96828 304.341 -0.200287 287.928 -1.78604C267.396 -3.77777 246.765 -4.36856 226.163 -3.55476C215.741 -3.14816 205.409 -2.09099 195.012 -1.26422C190.933 -0.945724 186.726 -2.79578 182.73 -3.71742C177.732 -4.86269 172.729 -5.95374 167.699 -6.90247C164.398 -7.52592 161.083 -8.07484 157.756 -8.54921Z" fill="#7C038C"/>
<path d="M115.648 115.98L201.671 136.377L214.684 81.4948L128.662 61.0977L115.648 115.98Z" fill="url(#paint0_linear_1093_4552)"/>
<g style="mix-blend-mode:multiply" opacity="0.44">
<path d="M166.531 91.7217L201.571 135.807L115.646 115.236L166.531 91.7217Z" fill="#FF995F"/>
</g>
<path d="M166.169 93.9598L201.737 135.828L115.491 115.179L166.169 93.9598Z" fill="url(#paint1_linear_1093_4552)"/>
<g style="mix-blend-mode:multiply" opacity="0.44">
<path d="M163.71 104.238L128.663 60.1531L214.588 80.7308L163.71 104.238Z" fill="#FF995F"/>
</g>
<path d="M164.238 102.028L128.663 60.1531L214.916 80.8092L164.238 102.028Z" fill="url(#paint2_linear_1093_4552)"/>
<path d="M224.554 141.997L130.333 154.937L138.589 215.051L232.81 202.111L224.554 141.997Z" fill="url(#paint3_linear_1093_4552)"/>
<g style="mix-blend-mode:multiply" opacity="0.3">
<path d="M180.817 171.688L138.771 215.038L232.635 202.144L180.817 171.688Z" fill="#FF995F"/>
</g>
<path d="M180.965 174.111L138.591 215.045L232.812 202.102L180.965 174.111Z" fill="url(#paint4_linear_1093_4552)"/>
<path d="M172.711 113.996L130.33 154.93L130.686 154.88L178.186 153.847L224.558 141.986L172.711 113.996Z" fill="url(#paint5_linear_1093_4552)"/>
<path d="M246.489 36.7528C246.275 34.5043 245.608 32.3223 244.529 30.3379C243.421 28.2934 241.947 26.4695 240.181 24.9565C238.324 23.3592 236.254 22.0279 234.03 21.0006C231.614 19.8879 229.054 19.1178 226.425 18.7126C220.776 17.8047 214.989 18.3417 209.603 20.2736C207.093 21.1609 204.72 22.3966 202.554 23.9443C200.568 25.3762 198.791 27.077 197.272 28.9979C195.82 30.8124 194.714 32.878 194.008 35.0921C193.224 37.5231 193.009 40.1019 193.38 42.6292C193.75 45.1565 194.697 47.5648 196.146 49.6683C197.801 52.1101 199.941 54.1846 202.433 55.7625C205.17 57.4741 208.182 58.7014 211.335 59.3905C214.775 60.1861 218.321 60.4148 221.834 60.0676C225.294 59.7492 228.681 58.8856 231.87 57.5087L238.335 61.2223C240.711 62.4435 242.341 62.7072 243.225 62.0135C244.094 61.3007 244.137 59.6257 243.367 56.8958L241.514 50.7089C243.269 48.7833 244.636 46.5375 245.541 44.0944C246.404 41.7492 246.728 39.2401 246.489 36.7528Z" fill="url(#paint6_linear_1093_4552)"/>
<path d="M226.292 40.4021C226.343 39.8577 226.555 39.3409 226.901 38.917C227.246 38.493 227.709 38.181 228.232 38.0203C228.755 37.8596 229.313 37.8574 229.837 38.0142C230.361 38.1709 230.827 38.4794 231.176 38.9007C231.524 39.322 231.74 39.8372 231.796 40.3812C231.852 40.9252 231.745 41.4735 231.489 41.9569C231.234 42.4403 230.84 42.837 230.359 43.0969C229.878 43.3568 229.331 43.4683 228.786 43.4172C228.425 43.3832 228.073 43.2782 227.752 43.1083C227.43 42.9384 227.146 42.7067 226.914 42.4267C226.682 42.1467 226.508 41.8238 226.401 41.4764C226.295 41.129 226.257 40.764 226.292 40.4021Z" fill="white"/>
<path d="M216.332 39.4899C216.384 38.9455 216.596 38.4287 216.941 38.0047C217.287 37.5807 217.75 37.2687 218.273 37.108C218.796 36.9473 219.354 36.9452 219.878 37.1019C220.402 37.2586 220.868 37.5671 221.216 37.9884C221.565 38.4098 221.781 38.925 221.837 39.4689C221.892 40.0129 221.786 40.5613 221.53 41.0446C221.274 41.528 220.881 41.9247 220.4 42.1846C219.919 42.4446 219.372 42.556 218.827 42.5049C218.465 42.4719 218.113 42.3675 217.791 42.1978C217.469 42.0282 217.184 41.7966 216.953 41.5164C216.721 41.2361 216.547 40.9128 216.44 40.5651C216.334 40.2173 216.297 39.8519 216.332 39.4899Z" fill="white"/>
<path d="M206.376 38.549C206.427 38.0046 206.639 37.4878 206.985 37.0638C207.33 36.6399 207.793 36.3278 208.316 36.1671C208.839 36.0064 209.397 36.0043 209.921 36.161C210.445 36.3177 210.911 36.6262 211.26 37.0475C211.608 37.4689 211.824 37.9841 211.88 38.5281C211.936 39.072 211.829 39.6204 211.573 40.1037C211.318 40.5871 210.924 40.9838 210.443 41.2438C209.962 41.5037 209.415 41.6151 208.87 41.564C208.509 41.5301 208.157 41.4251 207.836 41.2552C207.514 41.0852 207.23 40.8536 206.998 40.5736C206.766 40.2936 206.592 39.9706 206.485 39.6232C206.379 39.2758 206.341 38.9108 206.376 38.549Z" fill="white"/>
<path d="M283.446 77.8868L231.542 101.152L231.884 101.23L275.342 115.863L321.33 120.304L283.446 77.8868Z" fill="url(#paint7_linear_1093_4552)"/>
<path d="M322.178 50.5796L257.683 36.8237L239.493 122.106L303.988 135.862L322.178 50.5796Z" fill="url(#paint8_linear_1093_4552)"/>
<path d="M275.342 115.863L231.884 101.23L231.542 101.152L219.325 158.437L309.113 177.589L321.33 120.304L275.342 115.863Z" fill="url(#paint9_linear_1093_4552)"/>
<g style="mix-blend-mode:multiply" opacity="0.3">
<path d="M271.879 132.927L219.49 158.487L308.943 177.568L271.879 132.927Z" fill="#FF995F"/>
</g>
<path d="M271.222 135.172L219.325 158.437L309.113 177.589L271.222 135.172Z" fill="url(#paint10_linear_1093_4552)"/>
<path d="M231.251 79.0201C231.641 80.896 232.571 82.6171 233.925 83.972C235.28 85.3268 237.001 86.2565 238.877 86.6467C237.001 87.037 235.28 87.9667 233.925 89.3215C232.571 90.6764 231.641 92.3975 231.251 94.2734C230.86 92.3975 229.931 90.6764 228.576 89.3215C227.221 87.9667 225.5 87.037 223.624 86.6467C225.5 86.2565 227.221 85.3268 228.576 83.972C229.931 82.6171 230.86 80.896 231.251 79.0201Z" fill="white"/>
<path d="M222.248 69.6828C222.407 70.4479 222.786 71.1499 223.338 71.7031C223.889 72.2563 224.591 72.6366 225.355 72.7976C224.591 72.9572 223.89 73.3362 223.338 73.8882C222.786 74.4402 222.407 75.1412 222.248 75.9053C222.088 75.1398 221.709 74.4377 221.155 73.8855C220.602 73.3333 219.899 72.9551 219.133 72.7976C219.899 72.6379 220.602 72.2581 221.155 71.7048C221.708 71.1515 222.088 70.4488 222.248 69.6828Z" fill="white"/>
<path d="M135.661 125.343C135.818 126.109 136.196 126.812 136.749 127.365C137.301 127.919 138.003 128.299 138.768 128.458C138.004 128.618 137.303 128.997 136.751 129.549C136.199 130.101 135.82 130.802 135.661 131.566C135.5 130.801 135.119 130.1 134.566 129.548C134.013 128.996 133.311 128.617 132.546 128.458C133.312 128.298 134.015 127.918 134.568 127.365C135.121 126.812 135.501 126.109 135.661 125.343Z" fill="white"/>
<path d="M112.381 83.532C112.539 84.2978 112.917 85.0008 113.469 85.5543C114.022 86.1078 114.724 86.4875 115.489 86.6468C114.725 86.8064 114.024 87.1854 113.472 87.7374C112.92 88.2894 112.541 88.9904 112.381 89.7545C112.22 88.9902 111.839 88.2894 111.286 87.7376C110.733 87.1859 110.031 86.8069 109.267 86.6468C110.032 86.4862 110.734 86.1062 111.288 85.553C111.841 84.9999 112.221 84.2976 112.381 83.532Z" fill="white"/>
<path d="M243.027 184.574C243.186 185.34 243.565 186.042 244.117 186.595C244.668 187.148 245.37 187.528 246.134 187.689C245.37 187.849 244.669 188.228 244.117 188.78C243.565 189.332 243.186 190.033 243.027 190.797C242.867 190.033 242.488 189.332 241.936 188.78C241.384 188.228 240.683 187.849 239.919 187.689C240.684 187.528 241.385 187.148 241.937 186.595C242.489 186.042 242.867 185.34 243.027 184.574Z" fill="white"/>
<path d="M229.033 214.917C229.217 215.803 229.656 216.615 230.295 217.255C230.935 217.894 231.747 218.333 232.633 218.517C231.747 218.703 230.935 219.143 230.295 219.784C229.656 220.424 229.217 221.237 229.033 222.123C228.849 221.237 228.41 220.424 227.771 219.784C227.131 219.143 226.319 218.703 225.434 218.517C226.319 218.333 227.132 217.894 227.771 217.255C228.41 216.615 228.849 215.803 229.033 214.917Z" fill="white"/>
<path d="M214.202 213.784C214.564 215.519 215.424 217.111 216.678 218.364C217.931 219.618 219.523 220.478 221.258 220.84C219.523 221.202 217.93 222.062 216.677 223.315C215.423 224.569 214.563 226.161 214.202 227.897C213.843 226.161 212.984 224.569 211.732 223.315C210.479 222.061 208.887 221.201 207.152 220.84C208.887 220.479 210.478 219.618 211.731 218.365C212.983 217.111 213.842 215.519 214.202 213.784Z" fill="white"/>
<path d="M115.183 203.926C115.342 204.691 115.721 205.393 116.273 205.947C116.825 206.5 117.526 206.88 118.291 207.041C117.526 207.199 116.824 207.577 116.272 208.13C115.72 208.682 115.341 209.384 115.183 210.149C115.024 209.383 114.644 208.681 114.091 208.129C113.537 207.577 112.834 207.199 112.068 207.041C112.834 206.88 113.536 206.5 114.089 205.947C114.643 205.394 115.023 204.692 115.183 203.926Z" fill="white"/>
<path d="M123.837 185.237C124.083 186.421 124.67 187.506 125.524 188.361C126.379 189.215 127.465 189.802 128.648 190.049C127.465 190.296 126.38 190.883 125.525 191.737C124.671 192.592 124.084 193.677 123.837 194.86C123.589 193.677 123.002 192.592 122.148 191.737C121.293 190.883 120.208 190.296 119.025 190.049C120.209 189.802 121.294 189.215 122.149 188.361C123.003 187.506 123.59 186.421 123.837 185.237Z" fill="white"/>
<path d="M183.231 37.5511C183.373 38.2315 183.71 38.8557 184.201 39.3471C184.692 39.8384 185.317 40.1754 185.997 40.3166C185.317 40.4578 184.692 40.7948 184.201 41.2861C183.71 41.7775 183.373 42.4018 183.231 43.0822C183.09 42.4018 182.753 41.7775 182.262 41.2861C181.771 40.7948 181.146 40.4578 180.466 40.3166C181.146 40.1754 181.771 39.8384 182.262 39.3471C182.753 38.8557 183.09 38.2315 183.231 37.5511Z" fill="white"/>
<path d="M214.003 7.98541C214.143 8.66711 214.48 9.29293 214.971 9.78565C215.462 10.2784 216.087 10.6164 216.769 10.7581C216.088 10.8993 215.464 11.2363 214.973 11.7276C214.481 12.219 214.144 12.8433 214.003 13.5236C213.861 12.8423 213.523 12.2174 213.031 11.7259C212.538 11.2345 211.912 10.898 211.23 10.7581C211.913 10.6177 212.54 10.2802 213.032 9.78736C213.525 9.29455 213.863 8.66806 214.003 7.98541Z" fill="white"/>
<path d="M240.252 67.0883C240.392 67.77 240.729 68.3959 241.22 68.8886C241.711 69.3813 242.336 69.7194 243.018 69.861C242.337 70.0022 241.713 70.3392 241.222 70.8305C240.73 71.3219 240.393 71.9462 240.252 72.6266C240.111 71.9452 239.772 71.3203 239.28 70.8288C238.787 70.3374 238.161 70.0009 237.479 69.861C238.162 69.7206 238.789 69.3831 239.281 68.8903C239.774 68.3975 240.112 67.771 240.252 67.0883Z" fill="white"/>
<path d="M248.906 172.935C249.045 173.617 249.382 174.242 249.873 174.735C250.365 175.228 250.99 175.566 251.671 175.708C250.991 175.849 250.366 176.186 249.875 176.677C249.384 177.168 249.047 177.793 248.906 178.473C248.764 177.792 248.426 177.167 247.933 176.675C247.44 176.184 246.815 175.848 246.133 175.708C246.815 175.567 247.442 175.23 247.935 174.737C248.428 174.244 248.765 173.618 248.906 172.935Z" fill="white"/>
<path d="M179.517 49.0766C179.915 50.975 180.858 52.7162 182.23 54.0872C183.603 55.4581 185.345 56.3994 187.243 56.7959C185.343 57.1935 183.599 58.1369 182.227 59.5106C180.855 60.8842 179.913 62.6285 179.517 64.5295C179.124 62.6332 178.187 60.8922 176.822 59.519C175.456 58.1458 173.72 57.1996 171.826 56.7959C173.726 56.3989 175.469 55.4565 176.841 54.0842C178.213 52.7119 179.156 50.9692 179.553 49.0695L179.517 49.0766Z" fill="white"/>
<path d="M122.41 129.199C122.844 131.286 123.878 133.201 125.385 134.709C126.892 136.216 128.805 137.252 130.892 137.688C128.805 138.122 126.891 139.155 125.384 140.662C123.877 142.169 122.843 144.084 122.41 146.17C121.975 144.084 120.942 142.17 119.435 140.663C117.928 139.157 116.014 138.123 113.928 137.688C116.014 137.251 117.927 136.215 119.433 134.708C120.94 133.2 121.974 131.286 122.41 129.199Z" fill="white"/>
<path d="M160.033 178.978L111.157 223.249L169.698 287.878L218.574 243.607L160.033 178.978Z" fill="url(#paint11_linear_1093_4552)"/>
<path d="M159.288 187.949L120.312 223.253L121.594 224.669L160.57 189.365L159.288 187.949Z" fill="#A7C6D9"/>
<path d="M161.371 194L124.26 227.615L125.542 229.031L162.653 195.416L161.371 194Z" fill="#A7C6D9"/>
<path d="M167.171 196.668L128.195 231.972L129.478 233.388L168.454 198.083L167.171 196.668Z" fill="#A7C6D9"/>
<path d="M169.257 202.711L132.146 236.326L133.428 237.742L170.539 204.127L169.257 202.711Z" fill="#A7C6D9"/>
<path d="M175.059 205.374L136.083 240.679L137.365 242.094L176.342 206.79L175.059 205.374Z" fill="#A7C6D9"/>
<path d="M169.493 218.351L140.036 245.033L141.319 246.449L170.775 219.767L169.493 218.351Z" fill="#A7C6D9"/>
<path d="M182.95 214.081L143.974 249.385L145.256 250.801L184.232 215.497L182.95 214.081Z" fill="#A7C6D9"/>
<path d="M184.258 220.832L147.923 253.744L149.205 255.16L185.54 222.248L184.258 220.832Z" fill="#A7C6D9"/>
<path d="M190.845 222.788L151.869 258.092L153.152 259.508L192.128 224.204L190.845 222.788Z" fill="#A7C6D9"/>
<path d="M192.146 229.539L155.812 262.45L157.094 263.866L193.429 230.954L192.146 229.539Z" fill="#A7C6D9"/>
<path d="M198.73 231.506L159.754 266.81L161.036 268.226L200.012 232.922L198.73 231.506Z" fill="#A7C6D9"/>
</g>
<defs>
<linearGradient id="paint0_linear_1093_4552" x1="186.774" y1="70.1302" x2="144.701" y2="125.856" gradientUnits="userSpaceOnUse">
<stop stop-color="#FFC25F"/>
<stop offset="0.54" stop-color="#FFC05F"/>
<stop offset="0.73" stop-color="#FFB95F"/>
<stop offset="0.87" stop-color="#FFAE5F"/>
<stop offset="0.98" stop-color="#FF9D5F"/>
<stop offset="1" stop-color="#FF995F"/>
</linearGradient>
<linearGradient id="paint1_linear_1093_4552" x1="149.091" y1="75.0144" x2="159.163" y2="128.415" gradientUnits="userSpaceOnUse">
<stop stop-color="#FFD95F"/>
<stop offset="0.23" stop-color="#FFD35F"/>
<stop offset="0.52" stop-color="#FFC25F"/>
<stop offset="0.86" stop-color="#FFA65F"/>
<stop offset="1" stop-color="#FF995F"/>
</linearGradient>
<linearGradient id="paint2_linear_1093_4552" x1="211.846" y1="96.6785" x2="125.817" y2="76.2797" gradientUnits="userSpaceOnUse">
<stop stop-color="#FFD95F"/>
<stop offset="0.49" stop-color="#FFD75F"/>
<stop offset="0.67" stop-color="#FFD05F"/>
<stop offset="0.79" stop-color="#FFC55F"/>
<stop offset="0.9" stop-color="#FFB45F"/>
<stop offset="0.98" stop-color="#FF9E5F"/>
<stop offset="1" stop-color="#FF995F"/>
</linearGradient>
<linearGradient id="paint3_linear_1093_4552" x1="219.629" y1="132.672" x2="160.297" y2="204.134" gradientUnits="userSpaceOnUse">
<stop stop-color="#FFC25F"/>
<stop offset="0.54" stop-color="#FFC05F"/>
<stop offset="0.73" stop-color="#FFB95F"/>
<stop offset="0.87" stop-color="#FFAE5F"/>
<stop offset="0.98" stop-color="#FF9D5F"/>
<stop offset="1" stop-color="#FF995F"/>
</linearGradient>
<linearGradient id="paint4_linear_1093_4552" x1="167.715" y1="160.782" x2="186.589" y2="210.94" gradientUnits="userSpaceOnUse">
<stop stop-color="#FFD95F"/>
<stop offset="0.49" stop-color="#FFD75F"/>
<stop offset="0.67" stop-color="#FFD05F"/>
<stop offset="0.79" stop-color="#FFC55F"/>
<stop offset="0.9" stop-color="#FFB45F"/>
<stop offset="0.98" stop-color="#FF9E5F"/>
<stop offset="1" stop-color="#FF995F"/>
</linearGradient>
<linearGradient id="paint5_linear_1093_4552" x1="173.132" y1="119.342" x2="177.957" y2="151.901" gradientUnits="userSpaceOnUse">
<stop stop-color="#FFD95F"/>
<stop offset="0.49" stop-color="#FFD75F"/>
<stop offset="0.67" stop-color="#FFD05F"/>
<stop offset="0.79" stop-color="#FFC55F"/>
<stop offset="0.9" stop-color="#FFB45F"/>
<stop offset="0.98" stop-color="#FF9E5F"/>
<stop offset="1" stop-color="#FF995F"/>
</linearGradient>
<linearGradient id="paint6_linear_1093_4552" x1="229.492" y1="80.3839" x2="215.977" y2="26.0025" gradientUnits="userSpaceOnUse">
<stop stop-color="#F24C27"/>
<stop offset="0.2" stop-color="#F3532C"/>
<stop offset="0.5" stop-color="#F7683B"/>
<stop offset="0.85" stop-color="#FC8954"/>
<stop offset="1" stop-color="#FF995F"/>
</linearGradient>
<linearGradient id="paint7_linear_1093_4552" x1="284.636" y1="83.3466" x2="276.96" y2="108.985" gradientUnits="userSpaceOnUse">
<stop stop-color="#FFD95F"/>
<stop offset="0.49" stop-color="#FFD75F"/>
<stop offset="0.67" stop-color="#FFD05F"/>
<stop offset="0.79" stop-color="#FFC55F"/>
<stop offset="0.9" stop-color="#FFB45F"/>
<stop offset="0.98" stop-color="#FF9E5F"/>
<stop offset="1" stop-color="#FF995F"/>
</linearGradient>
<linearGradient id="paint8_linear_1093_4552" x1="327.852" y1="57.6167" x2="257.558" y2="100.568" gradientUnits="userSpaceOnUse">
<stop stop-color="#CEE8F2"/>
<stop offset="0.36" stop-color="#DCEFF6"/>
<stop offset="1" stop-color="white"/>
</linearGradient>
<linearGradient id="paint9_linear_1093_4552" x1="244.807" y1="102.998" x2="304.159" y2="187.597" gradientUnits="userSpaceOnUse">
<stop offset="0.29" stop-color="#FFC25F"/>
<stop offset="1" stop-color="#FF995F"/>
</linearGradient>
<linearGradient id="paint10_linear_1093_4552" x1="276.183" y1="126.854" x2="263.168" y2="171.63" gradientUnits="userSpaceOnUse">
<stop stop-color="#FFD95F"/>
<stop offset="0.49" stop-color="#FFD75F"/>
<stop offset="0.67" stop-color="#FFD05F"/>
<stop offset="0.79" stop-color="#FFC55F"/>
<stop offset="0.9" stop-color="#FFB45F"/>
<stop offset="0.98" stop-color="#FF9E5F"/>
<stop offset="1" stop-color="#FF995F"/>
</linearGradient>
<linearGradient id="paint11_linear_1093_4552" x1="169.06" y1="178.483" x2="162.796" y2="260.615" gradientUnits="userSpaceOnUse">
<stop stop-color="#CEE8F2"/>
<stop offset="0.36" stop-color="#DCEFF6"/>
<stop offset="1" stop-color="white"/>
</linearGradient>
</defs>
</svg>
