
<svg width="733" height="385" viewBox="0 0 733 385" fill="none" xmlns="http://www.w3.org/2000/svg">
<mask id="mask0_1092_4519" style="mask-type:luminance" maskUnits="userSpaceOnUse" x="0" y="-99" width="745" height="484">
<path d="M744.568 -99H0.191406V385H744.568V-99Z" fill="white"/>
</mask>
<g mask="url(#mask0_1092_4519)">
<path d="M279.523 -97.7866C272.365 -98.7847 265.195 -99.5948 257.997 -100.159C226.415 -102.589 194.045 -99.942 164.491 -87.8482C154.109 -83.5952 140.829 -78.4885 137.032 -66.5538C132.95 -53.6789 134.828 -38.9811 140.938 -27.1766C147.849 -13.726 159.323 -3.58151 173.022 1.19174C183.35 4.99637 194.344 7.60034 203.216 14.3705C215.87 24.0196 218.659 42.1603 211.924 56.6266C204.713 72.1344 197.814 88.0473 195.909 105.436C194.358 119.54 196.617 134.73 203.76 146.896C211.598 160.234 225.027 164.111 239.246 165.616C258.296 167.641 280.067 167.959 288.721 190.064C295.32 206.787 289.632 225.882 283.21 242.677C273.794 267.27 267.14 291.863 278.679 317.208C284.941 331.192 296.1 342.017 309.77 347.37C335.229 356.816 360.238 342.885 385.968 348.325C396.677 350.596 407.208 356.599 413.998 365.858C422.094 376.91 420.883 390.798 422.734 404.005C425.891 427.007 442.913 445.003 465.119 446.565C493.693 448.576 518.185 420.295 530.976 396.165C542.256 374.899 549.005 351.435 557.795 328.983C564.734 311.248 578.205 295.233 597.077 293.092C614.494 291.125 629.516 301.989 645.49 306.951C662.375 311.958 680.352 310.796 696.543 303.653C717.674 294.481 734.819 276.557 746.357 255.596C769.924 212.833 773.666 156.863 768.958 108.474C765.543 73.2338 755.46 38.3846 737.227 8.72867C718.727 -20.983 692.769 -44.5917 662.295 -59.422C629.992 -75.3349 592.437 -79.9641 557.4 -83.3492C513.571 -87.601 469.531 -88.8621 425.55 -87.1249C403.303 -86.257 381.247 -84.0002 359.054 -82.2353C350.346 -81.5554 341.365 -85.5047 332.834 -87.4721C322.166 -89.9169 311.485 -92.246 300.749 -94.2712C293.701 -95.6022 286.625 -96.7739 279.523 -97.7866Z" fill="#7C038C"/>
<path d="M219.266 137.753L382.221 176.392L406.872 72.4266L243.918 33.7879L219.266 137.753Z" fill="url(#paint0_linear_1092_4519)"/>
<g style="mix-blend-mode:multiply" opacity="0.44">
<path d="M315.655 91.7996L382.032 175.311L219.263 136.343L315.655 91.7996Z" fill="#FF995F"/>
</g>
<path d="M314.967 96.0393L382.343 175.351L218.967 136.235L314.967 96.0393Z" fill="url(#paint1_linear_1092_4519)"/>
<g style="mix-blend-mode:multiply" opacity="0.44">
<path d="M310.308 115.509L243.918 31.9984L406.687 70.9792L310.308 115.509Z" fill="#FF995F"/>
</g>
<path d="M311.307 111.324L243.918 31.9984L407.308 71.1277L311.307 111.324Z" fill="url(#paint2_linear_1092_4519)"/>
<path d="M425.568 187.037L247.083 211.55L262.722 325.425L441.207 300.913L425.568 187.037Z" fill="url(#paint3_linear_1092_4519)"/>
<g style="mix-blend-mode:multiply" opacity="0.3">
<path d="M342.713 243.281L263.063 325.401L440.874 300.976L342.713 243.281Z" fill="#FF995F"/>
</g>
<path d="M342.997 247.872L262.727 325.415L441.212 300.895L342.997 247.872Z" fill="url(#paint4_linear_1092_4519)"/>
<path d="M327.361 133.994L247.077 211.537L247.752 211.443L337.731 209.485L425.576 187.017L327.361 133.994Z" fill="url(#paint5_linear_1092_4519)"/>
<path d="M467.123 -12.3293C466.716 -16.5888 465.453 -20.7222 463.41 -24.4813C461.31 -28.3542 458.519 -31.8094 455.173 -34.6755C451.655 -37.7012 447.734 -40.2232 443.521 -42.1692C438.944 -44.277 434.095 -45.7358 429.114 -46.5034C418.413 -48.2232 407.451 -47.2059 397.249 -43.5464C392.494 -41.8655 387.999 -39.5247 383.895 -36.5928C380.133 -33.8803 376.766 -30.6585 373.89 -27.0197C371.14 -23.5824 369.044 -19.6695 367.706 -15.4753C366.221 -10.8701 365.814 -5.9852 366.516 -1.19765C367.218 3.58991 369.011 8.15206 371.757 12.1367C374.891 16.7623 378.945 20.6922 383.666 23.681C388.851 26.9235 394.556 29.2484 400.53 30.5537C407.046 32.0609 413.764 32.4942 420.419 31.8364C426.972 31.2333 433.388 29.5973 439.43 26.9891L451.676 34.0237C456.177 36.3371 459.265 36.8367 460.939 35.5225C462.586 34.1723 462.667 30.9992 461.209 25.8279L457.698 14.108C461.023 10.4603 463.613 6.20604 465.327 1.57793C466.961 -2.86457 467.574 -7.61758 467.123 -12.3293Z" fill="url(#paint6_linear_1092_4519)"/>
<path d="M428.857 -5.4162C428.955 -6.44745 429.357 -7.42651 430.011 -8.22963C430.666 -9.03274 431.543 -9.62385 432.533 -9.92825C433.524 -10.2327 434.582 -10.2367 435.574 -9.93982C436.567 -9.64296 437.449 -9.05854 438.109 -8.26043C438.77 -7.46232 439.178 -6.48635 439.284 -5.45587C439.39 -4.4254 439.188 -3.38668 438.704 -2.47101C438.219 -1.55534 437.474 -0.803823 436.563 -0.311453C435.651 0.180918 434.615 0.392046 433.583 0.295236C432.898 0.230894 432.232 0.0320702 431.623 -0.289861C431.015 -0.611793 430.475 -1.05052 430.037 -1.58096C429.598 -2.1114 429.268 -2.72315 429.065 -3.38123C428.863 -4.03931 428.792 -4.73081 428.857 -5.4162Z" fill="white"/>
<path d="M622.25 191.635C624.222 188.66 626.782 186.12 629.77 184.168C632.828 182.159 636.228 180.727 639.802 179.942C643.568 179.113 647.43 178.809 651.279 179.037C655.462 179.291 659.588 180.127 663.539 181.522C672.033 184.496 679.642 189.557 685.669 196.239C688.483 199.343 690.851 202.824 692.704 206.582C694.401 210.04 695.614 213.716 696.309 217.505C696.971 221.107 696.971 224.799 696.309 228.401C695.583 232.365 693.958 236.109 691.559 239.346C689.16 242.583 686.05 245.227 682.469 247.075C678.352 249.217 673.84 250.494 669.21 250.829C664.134 251.166 659.038 250.632 654.142 249.249C648.781 247.78 643.692 245.455 639.073 242.363C634.518 239.35 630.463 235.641 627.056 231.372L615.336 231.709C611.097 231.601 608.585 230.764 607.951 229.171C607.316 227.578 608.464 225.12 611.569 221.961L618.685 214.67C617.697 210.697 617.477 206.573 618.037 202.518C618.609 198.621 620.049 194.902 622.25 191.635Z" fill="url(#paint7_linear_1092_4519)"/>
<path d="M647.539 211.78C647.875 210.985 647.967 210.109 647.804 209.262C647.642 208.415 647.232 207.635 646.626 207.021C646.02 206.406 645.245 205.986 644.4 205.812C643.555 205.638 642.678 205.719 641.879 206.044C641.079 206.369 640.395 206.923 639.911 207.638C639.427 208.352 639.166 209.193 639.16 210.056C639.155 210.919 639.405 211.764 639.88 212.484C640.355 213.204 641.033 213.768 641.828 214.103C642.893 214.552 644.093 214.559 645.164 214.124C646.235 213.688 647.089 212.845 647.539 211.78Z" fill="white"/>
<path d="M662.041 217.897C662.378 217.102 662.471 216.225 662.309 215.376C662.147 214.528 661.737 213.748 661.13 213.133C660.524 212.518 659.749 212.097 658.903 211.923C658.057 211.75 657.179 211.831 656.379 212.157C655.58 212.483 654.895 213.039 654.411 213.754C653.928 214.47 653.668 215.312 653.664 216.176C653.66 217.039 653.913 217.884 654.39 218.604C654.867 219.324 655.546 219.886 656.343 220.219C657.407 220.664 658.604 220.669 659.671 220.234C660.739 219.799 661.591 218.958 662.041 217.897Z" fill="white"/>
<path d="M676.556 224C676.891 223.205 676.984 222.329 676.821 221.481C676.658 220.634 676.248 219.854 675.642 219.24C675.036 218.626 674.262 218.205 673.417 218.032C672.572 217.858 671.694 217.938 670.895 218.263C670.096 218.588 669.411 219.143 668.927 219.857C668.443 220.571 668.182 221.413 668.177 222.276C668.171 223.138 668.422 223.983 668.897 224.704C669.372 225.424 670.049 225.987 670.844 226.322C671.372 226.546 671.938 226.664 672.511 226.669C673.084 226.673 673.652 226.564 674.183 226.348C674.714 226.133 675.196 225.814 675.604 225.411C676.011 225.008 676.334 224.528 676.556 224Z" fill="white"/>
<path d="M537.131 65.5918L438.808 109.663L439.456 109.812L521.779 137.532L608.895 145.943L537.131 65.5918Z" fill="url(#paint8_linear_1092_4519)"/>
<path d="M610.501 13.8631L488.326 -12.1951L453.869 149.357L576.044 175.415L610.501 13.8631Z" fill="url(#paint9_linear_1092_4519)"/>
<path d="M521.78 137.532L439.457 109.812L438.809 109.663L415.666 218.18L585.753 254.461L608.896 145.943L521.78 137.532Z" fill="url(#paint10_linear_1092_4519)"/>
<g style="mix-blend-mode:multiply" opacity="0.3">
<path d="M515.218 169.856L415.977 218.275L585.429 254.42L515.218 169.856Z" fill="#FF995F"/>
</g>
<path d="M513.976 174.109L415.666 218.18L585.753 254.461L513.976 174.109Z" fill="url(#paint11_linear_1092_4519)"/>
<path d="M595.889 22.6493L498.461 1.86926L497.706 5.40825L595.134 26.1883L595.889 22.6493Z" fill="#A7C6D9"/>
<path d="M588.91 32.5384L496.144 12.7526L495.389 16.2915L588.155 36.0774L588.91 32.5384Z" fill="#A7C6D9"/>
<path d="M591.248 44.4119L493.82 23.6319L493.065 27.1709L590.493 47.9509L591.248 44.4119Z" fill="#A7C6D9"/>
<path d="M584.264 54.3143L491.498 34.5285L490.743 38.0675L583.51 57.8533L584.264 54.3143Z" fill="#A7C6D9"/>
<path d="M586.605 66.1878L489.177 45.4077L488.422 48.9467L585.85 69.7268L586.605 66.1878Z" fill="#A7C6D9"/>
<path d="M560.479 72.0047L486.847 56.3L486.092 59.8389L559.724 75.5437L560.479 72.0047Z" fill="#A7C6D9"/>
<path d="M581.95 87.9638L484.522 67.1838L483.768 70.7228L581.195 91.5028L581.95 87.9638Z" fill="#A7C6D9"/>
<path d="M573.03 97.4327L482.205 78.0609L481.45 81.5999L572.276 100.972L573.03 97.4327Z" fill="#A7C6D9"/>
<path d="M577.307 109.74L479.879 88.9597L479.124 92.4987L576.552 113.279L577.307 109.74Z" fill="#A7C6D9"/>
<path d="M568.387 119.211L477.562 99.8397L476.807 103.379L567.632 122.75L568.387 119.211Z" fill="#A7C6D9"/>
<path d="M572.667 131.502L475.239 110.722L474.484 114.261L571.912 135.041L572.667 131.502Z" fill="#A7C6D9"/>
<path d="M632.188 320.297C632.777 323.13 634.181 325.73 636.227 327.776C638.273 329.822 640.873 331.226 643.706 331.815C640.873 332.404 638.273 333.808 636.227 335.854C634.181 337.9 632.777 340.499 632.188 343.332C631.599 340.499 630.195 337.9 628.149 335.854C626.103 333.808 623.504 332.404 620.671 331.815C623.504 331.226 626.103 329.822 628.149 327.776C630.195 325.73 631.599 323.13 632.188 320.297Z" fill="white"/>
<path d="M615.823 247.345C616.493 250.556 618.085 253.502 620.404 255.821C622.723 258.14 625.669 259.732 628.88 260.402C625.668 261.068 622.72 262.659 620.4 264.979C618.08 267.299 616.489 270.246 615.823 273.458C615.157 270.246 613.566 267.299 611.246 264.979C608.926 262.659 605.979 261.068 602.767 260.402C605.978 259.732 608.923 258.14 611.243 255.821C613.562 253.502 615.154 250.556 615.823 247.345Z" fill="white"/>
<path d="M438.256 67.7386C438.995 71.2922 440.756 74.5525 443.323 77.1191C445.889 79.6856 449.15 81.4467 452.703 82.186C449.15 82.9253 445.889 84.6863 443.323 87.2529C440.756 89.8195 438.995 93.0798 438.256 96.6333C437.517 93.0798 435.756 89.8195 433.189 87.2529C430.622 84.6863 427.362 82.9253 423.809 82.186C427.362 81.4467 430.622 79.6856 433.189 77.1191C435.756 74.5525 437.517 71.2922 438.256 67.7386Z" fill="white"/>
<path d="M421.201 50.0508C421.503 51.5 422.22 52.83 423.266 53.8779C424.311 54.9258 425.64 55.6463 427.088 55.9512C425.641 56.2536 424.313 56.9715 423.267 58.0172C422.222 59.0628 421.504 60.3907 421.201 61.8382C420.9 60.3882 420.18 59.0581 419.132 58.0121C418.083 56.966 416.751 56.2496 415.301 55.9512C416.752 55.6487 418.083 54.9292 419.131 53.8811C420.179 52.833 420.899 51.5018 421.201 50.0508Z" fill="white"/>
<path d="M257.177 155.49C257.475 156.94 258.192 158.272 259.238 159.32C260.284 160.369 261.614 161.088 263.064 161.39C261.616 161.692 260.288 162.41 259.243 163.456C258.197 164.502 257.479 165.829 257.177 167.277C256.872 165.828 256.151 164.5 255.104 163.455C254.056 162.409 252.726 161.692 251.276 161.39C252.727 161.087 254.059 160.368 255.107 159.32C256.155 158.272 256.874 156.941 257.177 155.49Z" fill="white"/>
<path d="M213.079 76.2856C213.378 77.7363 214.094 79.068 215.14 80.1165C216.186 81.1649 217.516 81.8844 218.966 82.1861C217.519 82.4884 216.191 83.2063 215.145 84.252C214.099 85.2976 213.382 86.6255 213.079 88.073C212.773 86.6252 212.052 85.2977 211.004 84.2525C209.956 83.2072 208.627 82.4892 207.179 82.1861C208.629 81.8819 209.959 81.1619 211.007 80.1141C212.055 79.0662 212.775 77.7359 213.079 76.2856Z" fill="white"/>
<path d="M460.561 267.693C460.862 269.142 461.58 270.472 462.625 271.52C463.671 272.568 464.999 273.288 466.448 273.593C465 273.896 463.672 274.614 462.627 275.659C461.581 276.705 460.863 278.033 460.561 279.48C460.258 278.033 459.54 276.705 458.495 275.659C457.449 274.614 456.121 273.896 454.674 273.593C456.122 273.288 457.451 272.568 458.496 271.52C459.542 270.472 460.259 269.142 460.561 267.693Z" fill="white"/>
<path d="M434.055 325.172C434.403 326.849 435.234 328.388 436.446 329.6C437.657 330.811 439.196 331.642 440.874 331.99C439.196 332.343 437.657 333.177 436.446 334.391C435.235 335.604 434.404 337.144 434.055 338.823C433.706 337.144 432.875 335.604 431.664 334.391C430.453 333.177 428.914 332.343 427.236 331.99C428.914 331.642 430.453 330.811 431.664 329.6C432.876 328.388 433.707 326.849 434.055 325.172Z" fill="white"/>
<path d="M405.957 323.025C406.643 326.312 408.273 329.328 410.647 331.702C413.022 334.076 416.037 335.706 419.324 336.392C416.037 337.076 413.02 338.706 410.646 341.081C408.271 343.455 406.642 346.472 405.957 349.759C405.277 346.472 403.651 343.455 401.278 341.08C398.905 338.705 395.89 337.076 392.604 336.392C395.89 335.707 398.904 334.077 401.276 331.702C403.649 329.328 405.276 326.312 405.957 323.025Z" fill="white"/>
<path d="M218.385 304.351C218.686 305.801 219.404 307.131 220.449 308.179C221.495 309.226 222.823 309.947 224.272 310.252C222.823 310.551 221.493 311.268 220.447 312.314C219.401 313.36 218.684 314.69 218.385 316.139C218.083 314.689 217.364 313.359 216.315 312.313C215.267 311.267 213.935 310.55 212.484 310.252C213.935 309.948 215.265 309.228 216.313 308.18C217.361 307.132 218.081 305.802 218.385 304.351Z" fill="white"/>
<path d="M234.778 268.949C235.245 271.19 236.356 273.246 237.975 274.865C239.594 276.484 241.651 277.596 243.892 278.063C241.651 278.531 239.596 279.643 237.977 281.262C236.358 282.88 235.247 284.936 234.778 287.177C234.309 284.936 233.198 282.88 231.579 281.262C229.96 279.643 227.905 278.531 225.664 278.063C227.905 277.596 229.962 276.484 231.581 274.865C233.2 273.246 234.311 271.19 234.778 268.949Z" fill="white"/>
<path d="M455.309 45.136C455.574 46.4273 456.211 47.6128 457.142 48.5462C458.073 49.4796 459.257 50.12 460.548 50.3883C459.259 50.6558 458.076 51.2941 457.146 52.2249C456.215 53.1557 455.576 54.3383 455.309 55.6272C455.041 54.3365 454.4 53.1527 453.467 52.2217C452.534 51.2907 451.348 50.6534 450.057 50.3883C451.35 50.1223 452.537 49.483 453.47 48.5494C454.404 47.6159 455.043 46.4291 455.309 45.136Z" fill="white"/>
<path d="M471.699 245.644C471.964 246.935 472.601 248.121 473.532 249.054C474.463 249.987 475.647 250.628 476.937 250.896C475.649 251.164 474.466 251.802 473.535 252.733C472.604 253.664 471.966 254.846 471.699 256.135C471.43 254.844 470.79 253.66 469.857 252.73C468.923 251.799 467.738 251.161 466.446 250.896C467.739 250.63 468.926 249.991 469.86 249.057C470.793 248.124 471.433 246.937 471.699 245.644Z" fill="white"/>
<path d="M632.187 277.117C632.452 278.409 633.089 279.594 634.02 280.528C634.951 281.461 636.135 282.101 637.426 282.37C636.141 282.635 634.961 283.27 634.03 284.195C633.1 285.121 632.459 286.298 632.187 287.582C631.92 286.293 631.281 285.11 630.351 284.179C629.42 283.249 628.237 282.61 626.948 282.343C628.239 282.074 629.423 281.434 630.354 280.501C631.285 279.567 631.922 278.382 632.187 277.09V277.117Z" fill="white"/>
<path d="M676.893 347.261C677.161 348.55 677.799 349.733 678.73 350.664C679.661 351.594 680.843 352.233 682.132 352.5C680.843 352.768 679.661 353.406 678.73 354.337C677.799 355.268 677.161 356.45 676.893 357.739C676.626 356.45 675.987 355.268 675.057 354.337C674.126 353.406 672.943 352.768 671.654 352.5C672.943 352.233 674.126 351.594 675.057 350.664C675.987 349.733 676.626 348.55 676.893 347.261Z" fill="white"/>
<path d="M340.255 11.0159C341.01 14.6121 342.796 17.9104 345.395 20.5075C347.995 23.1045 351.295 24.8877 354.892 25.6388C351.291 26.3918 347.989 28.179 345.389 30.7811C342.789 33.3833 341.005 36.6875 340.255 40.2887C339.511 36.6964 337.736 33.3985 335.15 30.7972C332.563 28.1959 329.275 26.4035 325.687 25.6388C329.285 24.8867 332.586 23.1015 335.186 20.5019C337.786 17.9023 339.571 14.6011 340.323 11.0024L340.255 11.0159Z" fill="white"/>
<path d="M232.076 162.794C232.9 166.747 234.859 170.374 237.713 173.231C240.567 176.087 244.192 178.049 248.144 178.875C244.191 179.696 240.565 181.655 237.71 184.509C234.856 187.364 232.897 190.99 232.076 194.943C231.254 190.991 229.295 187.365 226.441 184.511C223.586 181.657 219.961 179.698 216.009 178.875C219.96 178.047 223.585 176.085 226.438 173.229C229.292 170.373 231.251 166.746 232.076 162.794Z" fill="white"/>
<path d="M595.487 286.772L511.855 250.707C509.367 249.636 506.693 249.066 503.985 249.029C501.277 248.992 498.588 249.49 496.073 250.493C493.557 251.496 491.264 252.985 489.324 254.876C487.385 256.766 485.837 259.02 484.769 261.509L403.648 449.608C402.577 452.096 402.006 454.77 401.97 457.478C401.933 460.186 402.43 462.875 403.434 465.39C404.437 467.906 405.926 470.199 407.816 472.139C409.707 474.078 411.961 475.626 414.45 476.694L498.082 512.758C500.571 513.829 503.246 514.4 505.955 514.437C508.664 514.474 511.354 513.977 513.871 512.973C516.387 511.97 518.682 510.481 520.622 508.59C522.563 506.7 524.112 504.446 525.181 501.956L606.262 313.857C607.334 311.371 607.906 308.699 607.944 305.992C607.983 303.285 607.488 300.597 606.487 298.082C605.487 295.566 604 293.273 602.113 291.332C600.225 289.391 597.974 287.842 595.487 286.772Z" fill="#570080"/>
<path d="M494.011 264.402L412.086 454.356C409.838 459.567 412.241 465.613 417.452 467.86L502.442 504.516C507.653 506.763 513.699 504.361 515.946 499.15L597.871 309.196C600.118 303.985 597.716 297.939 592.505 295.692L507.515 259.037C502.304 256.789 496.258 259.192 494.011 264.402Z" fill="url(#paint12_linear_1092_4519)"/>
<path d="M571.994 283.069L530.918 265.354C528.789 264.435 526.318 265.417 525.4 267.547L524.608 269.382C523.69 271.511 524.671 273.982 526.801 274.901L567.876 292.616C570.006 293.534 572.477 292.553 573.395 290.423L574.187 288.588C575.105 286.459 574.123 283.988 571.994 283.069Z" fill="#570080"/>
<path d="M585.213 301.408L587.63 302.434L588.859 299.585L586.415 298.518L585.213 301.408ZM582.364 300.179L584.808 301.232L586.037 298.383L583.606 297.33L582.364 300.179ZM590.911 303.879C590.886 303.933 590.851 303.981 590.806 304.02C590.762 304.06 590.71 304.09 590.654 304.108C590.602 304.134 590.544 304.148 590.485 304.148C590.427 304.148 590.369 304.134 590.317 304.108L582.215 300.584C582.11 300.536 582.028 300.449 581.986 300.341C581.946 300.232 581.946 300.113 581.986 300.004L583.228 297.155C583.278 297.05 583.366 296.969 583.473 296.926C583.581 296.883 583.701 296.883 583.809 296.925L591.91 300.449C592.015 300.497 592.097 300.585 592.14 300.692C592.166 300.745 592.179 300.802 592.179 300.861C592.179 300.92 592.166 300.977 592.14 301.03L590.911 303.879ZM592.774 301.799L592.491 301.664H592.369L592.545 301.259C592.633 301.043 592.633 300.801 592.545 300.584C592.502 300.476 592.438 300.377 592.357 300.294C592.276 300.21 592.179 300.144 592.072 300.098L583.971 296.574C583.863 296.524 583.745 296.499 583.626 296.499C583.508 296.499 583.39 296.524 583.282 296.574C583.066 296.664 582.892 296.833 582.796 297.047L581.567 299.896C581.476 300.111 581.474 300.353 581.559 300.57C581.645 300.787 581.813 300.962 582.026 301.057L590.128 304.581C590.344 304.668 590.586 304.668 590.803 304.581C590.914 304.541 591.016 304.478 591.102 304.396C591.188 304.315 591.256 304.217 591.302 304.108L591.478 303.703H591.599L591.883 303.825C591.935 303.851 591.993 303.865 592.052 303.865C592.11 303.865 592.168 303.851 592.221 303.825C592.275 303.806 592.325 303.776 592.367 303.736C592.409 303.697 592.442 303.649 592.464 303.595L592.99 302.38C593.032 302.272 593.032 302.152 592.989 302.045C592.947 301.937 592.865 301.849 592.761 301.799H592.774Z" fill="#FF6CD2"/>
<path d="M508.615 265.006C508.405 264.554 508.122 264.139 507.778 263.777C507.441 263.429 507.037 263.154 506.59 262.967C506.163 262.78 505.705 262.675 505.24 262.657C504.744 262.651 504.251 262.729 503.782 262.886H503.701C503.62 262.781 503.561 262.662 503.525 262.535C503.459 262.415 503.422 262.281 503.417 262.144C503.976 261.929 504.573 261.828 505.172 261.846C505.777 261.864 506.373 261.997 506.928 262.238C507.484 262.483 507.992 262.826 508.426 263.251C508.8 263.656 509.101 264.121 509.317 264.628V264.709C509.213 264.8 509.088 264.865 508.953 264.898C508.849 264.957 508.734 264.994 508.615 265.006ZM507.414 265.479C507.258 265.184 507.062 264.911 506.833 264.668C506.619 264.448 506.361 264.273 506.077 264.155C505.902 264.073 505.715 264.018 505.523 263.993H504.997H504.565L504.254 264.061H504.119C504.04 263.95 503.981 263.827 503.944 263.696C503.877 263.581 503.84 263.451 503.836 263.318C504.237 263.154 504.672 263.085 505.105 263.116C505.538 263.126 505.965 263.223 506.36 263.399C507.166 263.74 507.809 264.379 508.156 265.182C508.156 265.182 508.156 265.182 508.156 265.263C508.156 265.344 508.021 265.371 507.792 265.452C507.67 265.49 507.54 265.5 507.414 265.479ZM506.212 265.951C506.175 265.91 506.143 265.865 506.117 265.816C506.046 265.714 505.964 265.619 505.874 265.533C505.771 265.428 505.647 265.345 505.51 265.29C505.376 265.223 505.227 265.191 505.078 265.195C504.952 265.181 504.825 265.181 504.7 265.195H504.551C504.46 265.09 504.395 264.965 504.362 264.83C504.297 264.715 504.26 264.585 504.254 264.452C504.501 264.367 504.763 264.33 505.024 264.344C505.293 264.36 505.557 264.419 505.807 264.52C506.045 264.634 506.264 264.784 506.455 264.965C506.645 265.145 506.796 265.361 506.901 265.6C506.907 265.615 506.91 265.631 506.91 265.647C506.91 265.664 506.907 265.68 506.901 265.695C506.796 265.775 506.677 265.834 506.55 265.87C506.446 265.929 506.331 265.965 506.212 265.978V265.951ZM505.402 266.329C505.28 266.39 505.146 266.422 505.01 266.424C505.01 266.424 504.916 266.289 504.835 266.073C504.768 265.957 504.731 265.828 504.727 265.695C504.727 265.627 504.848 265.6 504.997 265.614C505.112 265.589 505.232 265.589 505.348 265.614C505.453 265.664 505.549 265.733 505.631 265.816C505.739 265.911 505.78 266.005 505.753 266.073C505.726 266.14 505.618 266.235 505.402 266.329Z" fill="#FF6CD2"/>
<path d="M580.541 295.048C580.559 295.054 580.575 295.062 580.589 295.074C580.603 295.085 580.614 295.1 580.622 295.116C580.632 295.132 580.637 295.151 580.637 295.17C580.637 295.189 580.632 295.207 580.622 295.224L578.948 299.099C578.933 299.128 578.909 299.151 578.881 299.166H578.773L578.381 299.004C578.348 298.985 578.32 298.957 578.3 298.923C578.29 298.907 578.285 298.888 578.285 298.869C578.285 298.85 578.29 298.832 578.3 298.815L579.974 294.954C579.979 294.936 579.988 294.92 580 294.906C580.011 294.893 580.026 294.881 580.042 294.873H580.15L580.541 295.048ZM579.191 295.372C579.208 295.378 579.225 295.386 579.238 295.398C579.252 295.41 579.264 295.424 579.272 295.44C579.282 295.459 579.287 295.48 579.287 295.501C579.287 295.522 579.282 295.543 579.272 295.561L577.922 298.64C577.916 298.659 577.906 298.676 577.892 298.691C577.877 298.705 577.86 298.715 577.841 298.721H577.733L577.355 298.545C577.337 298.54 577.321 298.531 577.307 298.52C577.293 298.508 577.282 298.494 577.274 298.478C577.26 298.443 577.26 298.405 577.274 298.37L578.624 295.278C578.629 295.261 578.638 295.244 578.65 295.231C578.661 295.217 578.675 295.205 578.692 295.197H578.8L579.191 295.372ZM577.841 295.696C577.841 295.696 577.841 295.696 577.841 295.777C577.854 295.812 577.854 295.851 577.841 295.885L576.842 298.194C576.842 298.194 576.842 298.262 576.761 298.275H576.653L576.261 298.1L576.194 298.032C576.18 297.998 576.18 297.959 576.194 297.924L577.193 295.602C577.212 295.569 577.24 295.541 577.274 295.521C577.29 295.511 577.309 295.506 577.328 295.506C577.347 295.506 577.365 295.511 577.382 295.521L577.841 295.696ZM575.14 296.345C575.16 296.35 575.177 296.361 575.191 296.375C575.205 296.389 575.216 296.406 575.221 296.426C575.235 296.46 575.235 296.499 575.221 296.534L574.884 297.303C574.878 297.322 574.868 297.34 574.854 297.354C574.839 297.368 574.822 297.378 574.803 297.384H574.695L574.317 297.209C574.298 297.203 574.28 297.192 574.266 297.178C574.252 297.164 574.242 297.147 574.236 297.128C574.222 297.093 574.222 297.054 574.236 297.02L574.573 296.25C574.573 296.25 574.573 296.25 574.654 296.169C574.689 296.157 574.727 296.157 574.762 296.169L575.14 296.345ZM576.491 296.02C576.499 296.047 576.499 296.075 576.491 296.102C576.504 296.136 576.504 296.175 576.491 296.21L575.816 297.749C575.824 297.775 575.824 297.803 575.816 297.83C575.781 297.843 575.742 297.843 575.708 297.83L575.316 297.654C575.29 297.663 575.261 297.663 575.235 297.654C575.225 297.638 575.22 297.619 575.22 297.6C575.22 297.581 575.225 297.563 575.235 297.546L575.897 295.994C575.897 295.994 575.897 295.926 575.978 295.912C575.994 295.903 576.013 295.898 576.032 295.898C576.051 295.898 576.069 295.903 576.086 295.912L576.491 296.02Z" fill="#FF6CD2"/>
<path d="M516.583 269.826C516.326 269.719 516.122 269.516 516.015 269.259C515.959 269.132 515.93 268.994 515.93 268.854C515.93 268.715 515.959 268.577 516.015 268.449C516.064 268.32 516.14 268.202 516.238 268.104C516.336 268.007 516.453 267.931 516.583 267.882C516.709 267.829 516.844 267.802 516.981 267.802C517.118 267.802 517.253 267.829 517.379 267.882C517.51 267.931 517.63 268.006 517.73 268.104C517.83 268.202 517.908 268.319 517.96 268.449C518.013 268.577 518.041 268.715 518.041 268.854C518.041 268.993 518.013 269.131 517.96 269.259C517.908 269.391 517.83 269.51 517.73 269.61C517.63 269.71 517.511 269.788 517.379 269.84C517.121 269.933 516.837 269.928 516.583 269.826ZM512.356 266.991C512.403 266.861 512.479 266.742 512.577 266.644C512.675 266.546 512.793 266.471 512.923 266.424C513.112 266.355 513.316 266.342 513.512 266.385C513.708 266.428 513.887 266.527 514.029 266.668C514.171 266.81 514.269 266.99 514.312 267.186C514.356 267.381 514.342 267.586 514.274 267.774C514.223 267.904 514.146 268.022 514.049 268.122C513.952 268.222 513.835 268.301 513.707 268.355C513.58 268.408 513.445 268.435 513.308 268.435C513.171 268.435 513.036 268.408 512.91 268.355C512.78 268.304 512.662 268.227 512.562 268.13C512.462 268.033 512.383 267.916 512.329 267.787C512.279 267.66 512.255 267.523 512.26 267.386C512.265 267.249 512.297 267.115 512.356 266.991ZM517.595 267.301C517.395 267.214 517.178 267.173 516.961 267.18C516.741 267.187 516.526 267.238 516.326 267.328C516.129 267.41 515.95 267.529 515.799 267.679C515.648 267.837 515.524 268.02 515.435 268.22C515.367 268.401 515.33 268.593 515.327 268.787C515.327 268.978 515.354 269.169 515.408 269.354L514.125 268.841C514.285 268.739 514.434 268.621 514.571 268.49C514.699 268.345 514.804 268.181 514.881 268.004C514.96 267.797 515.002 267.577 515.003 267.355C514.987 267.142 514.937 266.932 514.854 266.734C514.774 266.533 514.65 266.353 514.49 266.208C514.342 266.044 514.157 265.919 513.95 265.843C513.743 265.761 513.523 265.72 513.301 265.722C513.087 265.729 512.875 265.78 512.68 265.87C512.483 265.95 512.304 266.07 512.154 266.221C511.988 266.373 511.863 266.563 511.789 266.775C511.705 266.98 511.668 267.202 511.681 267.423C511.678 267.633 511.725 267.841 511.816 268.03C511.899 268.23 512.018 268.414 512.167 268.571C512.323 268.731 512.512 268.856 512.721 268.935L516.366 270.38C516.571 270.468 516.792 270.51 517.015 270.501C517.228 270.492 517.438 270.446 517.636 270.366C517.834 270.281 518.013 270.157 518.162 270.002C518.323 269.851 518.447 269.667 518.527 269.462C518.608 269.256 518.645 269.035 518.635 268.814C518.64 268.599 518.594 268.386 518.5 268.193C518.417 267.993 518.298 267.809 518.149 267.652C517.987 267.51 517.799 267.4 517.595 267.328V267.301Z" fill="#FF6CD2"/>
<path d="M303.344 257.091L210.757 340.955L321.652 463.384L414.239 379.519L303.344 257.091Z" fill="url(#paint13_linear_1092_4519)"/>
<path d="M301.932 274.085L228.099 340.963L230.528 343.645L304.361 276.767L301.932 274.085Z" fill="#A7C6D9"/>
<path d="M305.88 285.547L235.579 349.225L238.008 351.907L308.309 288.229L305.88 285.547Z" fill="#A7C6D9"/>
<path d="M316.867 290.601L243.033 357.479L245.462 360.161L319.296 293.283L316.867 290.601Z" fill="#A7C6D9"/>
<path d="M320.816 302.05L250.515 365.728L252.944 368.41L323.245 304.732L320.816 302.05Z" fill="#A7C6D9"/>
<path d="M331.811 307.095L257.978 373.972L260.407 376.654L334.24 309.777L331.811 307.095Z" fill="#A7C6D9"/>
<path d="M321.267 331.677L265.467 382.221L267.896 384.903L323.696 334.359L321.267 331.677Z" fill="#A7C6D9"/>
<path d="M346.756 323.588L272.923 390.466L275.352 393.148L349.186 326.27L346.756 323.588Z" fill="#A7C6D9"/>
<path d="M349.232 336.377L280.402 398.722L282.832 401.404L351.661 339.058L349.232 336.377Z" fill="#A7C6D9"/>
<path d="M361.714 340.081L287.881 406.959L290.31 409.641L364.144 342.763L361.714 340.081Z" fill="#A7C6D9"/>
<path d="M364.176 352.87L295.347 415.215L297.776 417.897L366.606 355.552L364.176 352.87Z" fill="#A7C6D9"/>
<path d="M376.65 356.597L302.816 423.475L305.246 426.157L379.079 359.279L376.65 356.597Z" fill="#A7C6D9"/>
</g>
<defs>
<linearGradient id="paint0_linear_1092_4519" x1="354.001" y1="50.8983" x2="274.301" y2="156.46" gradientUnits="userSpaceOnUse">
<stop stop-color="#FFC25F"/>
<stop offset="0.54" stop-color="#FFC05F"/>
<stop offset="0.73" stop-color="#FFB95F"/>
<stop offset="0.87" stop-color="#FFAE5F"/>
<stop offset="0.98" stop-color="#FF9D5F"/>
<stop offset="1" stop-color="#FF995F"/>
</linearGradient>
<linearGradient id="paint1_linear_1092_4519" x1="282.616" y1="60.1505" x2="301.695" y2="161.309" gradientUnits="userSpaceOnUse">
<stop stop-color="#FFD95F"/>
<stop offset="0.23" stop-color="#FFD35F"/>
<stop offset="0.52" stop-color="#FFC25F"/>
<stop offset="0.86" stop-color="#FFA65F"/>
<stop offset="1" stop-color="#FF995F"/>
</linearGradient>
<linearGradient id="paint2_linear_1092_4519" x1="401.494" y1="101.189" x2="238.526" y2="62.5475" gradientUnits="userSpaceOnUse">
<stop stop-color="#FFD95F"/>
<stop offset="0.49" stop-color="#FFD75F"/>
<stop offset="0.67" stop-color="#FFD05F"/>
<stop offset="0.79" stop-color="#FFC55F"/>
<stop offset="0.9" stop-color="#FFB45F"/>
<stop offset="0.98" stop-color="#FF9E5F"/>
<stop offset="1" stop-color="#FF995F"/>
</linearGradient>
<linearGradient id="paint3_linear_1092_4519" x1="416.238" y1="169.372" x2="303.845" y2="304.745" gradientUnits="userSpaceOnUse">
<stop stop-color="#FFC25F"/>
<stop offset="0.54" stop-color="#FFC05F"/>
<stop offset="0.73" stop-color="#FFB95F"/>
<stop offset="0.87" stop-color="#FFAE5F"/>
<stop offset="0.98" stop-color="#FF9D5F"/>
<stop offset="1" stop-color="#FF995F"/>
</linearGradient>
<linearGradient id="paint4_linear_1092_4519" x1="317.897" y1="222.623" x2="353.65" y2="317.638" gradientUnits="userSpaceOnUse">
<stop stop-color="#FFD95F"/>
<stop offset="0.49" stop-color="#FFD75F"/>
<stop offset="0.67" stop-color="#FFD05F"/>
<stop offset="0.79" stop-color="#FFC55F"/>
<stop offset="0.9" stop-color="#FFB45F"/>
<stop offset="0.98" stop-color="#FF9E5F"/>
<stop offset="1" stop-color="#FF995F"/>
</linearGradient>
<linearGradient id="paint5_linear_1092_4519" x1="328.158" y1="144.121" x2="337.299" y2="205.799" gradientUnits="userSpaceOnUse">
<stop stop-color="#FFD95F"/>
<stop offset="0.49" stop-color="#FFD75F"/>
<stop offset="0.67" stop-color="#FFD05F"/>
<stop offset="0.79" stop-color="#FFC55F"/>
<stop offset="0.9" stop-color="#FFB45F"/>
<stop offset="0.98" stop-color="#FF9E5F"/>
<stop offset="1" stop-color="#FF995F"/>
</linearGradient>
<linearGradient id="paint6_linear_1092_4519" x1="434.925" y1="70.3221" x2="409.323" y2="-32.694" gradientUnits="userSpaceOnUse">
<stop stop-color="#F24C27"/>
<stop offset="0.2" stop-color="#F3532C"/>
<stop offset="0.5" stop-color="#F7683B"/>
<stop offset="0.85" stop-color="#FC8954"/>
<stop offset="1" stop-color="#FF995F"/>
</linearGradient>
<linearGradient id="paint7_linear_1092_4519" x1="613.116" y1="262.766" x2="671.948" y2="197.581" gradientUnits="userSpaceOnUse">
<stop stop-color="#F24C27"/>
<stop offset="0.2" stop-color="#F3532C"/>
<stop offset="0.5" stop-color="#F7683B"/>
<stop offset="0.85" stop-color="#FC8954"/>
<stop offset="1" stop-color="#FF995F"/>
</linearGradient>
<linearGradient id="paint8_linear_1092_4519" x1="539.386" y1="75.9345" x2="524.844" y2="124.502" gradientUnits="userSpaceOnUse">
<stop stop-color="#FFD95F"/>
<stop offset="0.49" stop-color="#FFD75F"/>
<stop offset="0.67" stop-color="#FFD05F"/>
<stop offset="0.79" stop-color="#FFC55F"/>
<stop offset="0.9" stop-color="#FFB45F"/>
<stop offset="0.98" stop-color="#FF9E5F"/>
<stop offset="1" stop-color="#FF995F"/>
</linearGradient>
<linearGradient id="paint9_linear_1092_4519" x1="621.249" y1="27.1936" x2="488.09" y2="108.558" gradientUnits="userSpaceOnUse">
<stop stop-color="#CEE8F2"/>
<stop offset="0.36" stop-color="#DCEFF6"/>
<stop offset="1" stop-color="white"/>
</linearGradient>
<linearGradient id="paint10_linear_1092_4519" x1="463.936" y1="113.16" x2="576.369" y2="273.418" gradientUnits="userSpaceOnUse">
<stop offset="0.29" stop-color="#FFC25F"/>
<stop offset="1" stop-color="#FF995F"/>
</linearGradient>
<linearGradient id="paint11_linear_1092_4519" x1="523.373" y1="158.352" x2="498.718" y2="243.173" gradientUnits="userSpaceOnUse">
<stop stop-color="#FFD95F"/>
<stop offset="0.49" stop-color="#FFD75F"/>
<stop offset="0.67" stop-color="#FFD05F"/>
<stop offset="0.79" stop-color="#FFC55F"/>
<stop offset="0.9" stop-color="#FFB45F"/>
<stop offset="0.98" stop-color="#FF9E5F"/>
<stop offset="1" stop-color="#FF995F"/>
</linearGradient>
<linearGradient id="paint12_linear_1092_4519" x1="486.288" y1="208.516" x2="504.165" y2="374.039" gradientUnits="userSpaceOnUse">
<stop stop-color="#570080"/>
<stop offset="1" stop-color="#D9048E"/>
</linearGradient>
<linearGradient id="paint13_linear_1092_4519" x1="320.444" y1="256.153" x2="308.578" y2="411.739" gradientUnits="userSpaceOnUse">
<stop stop-color="#CEE8F2"/>
<stop offset="0.36" stop-color="#DCEFF6"/>
<stop offset="1" stop-color="white"/>
</linearGradient>
</defs>
</svg>
