<svg width="33" height="32" viewBox="0 0 33 32" fill="none" xmlns="http://www.w3.org/2000/svg">
<circle cx="16.5" cy="16" r="16" fill="white"/>
<path d="M25.6909 13.8731C25.5684 13.72 25.413 13.5964 25.2363 13.5115C25.0596 13.4265 24.866 13.3823 24.67 13.3822H23.5247V12.0733C23.5247 11.7262 23.3868 11.3933 23.1413 11.1478C22.8959 10.9024 22.563 10.7645 22.2158 10.7645H14.716L13.7932 9.3836C13.6733 9.20384 13.5107 9.05657 13.32 8.95494C13.1293 8.85331 12.9164 8.80047 12.7003 8.80115H8.30901C7.96188 8.80115 7.62896 8.93905 7.3835 9.18452C7.13803 9.42998 7.00013 9.7629 7.00013 10.11V21.8899C6.99654 22.1333 7.06483 22.3723 7.19647 22.5771C7.31357 22.7669 7.47724 22.9237 7.67196 23.0325C7.86667 23.1413 8.08596 23.1986 8.30901 23.1988H23.0339C23.33 23.199 23.6174 23.0988 23.8492 22.9145C24.0809 22.7303 24.2434 22.4729 24.31 22.1844L25.9723 14.9856C26.013 14.791 26.0088 14.5896 25.96 14.3968C25.9113 14.2041 25.8192 14.0249 25.6909 13.8731ZM22.2158 13.3822H11.254C10.8336 13.3819 10.4243 13.5166 10.0862 13.7663C9.74808 14.0161 9.49905 14.3678 9.37575 14.7696L8.30901 18.1989V10.11H12.7068L13.8194 11.7854C13.8794 11.8742 13.9603 11.9469 14.0551 11.9971C14.1498 12.0473 14.2554 12.0735 14.3626 12.0733H22.2158V13.3822Z" fill="#A8A6DD"/>
</svg>
