<svg width="50" height="50" viewBox="0 0 50 50" fill="none" xmlns="http://www.w3.org/2000/svg">
<path d="M25 16.4134C24.081 16.8659 23.0919 17.171 22.0541 17.3076C23.1137 16.6051 23.9262 15.4923 24.3093 14.1648C23.3182 14.8162 22.221 15.2888 21.0523 15.544C20.117 14.4402 18.7839 13.75 17.3086 13.75C14.4764 13.75 12.18 16.2932 12.18 19.4304C12.18 19.8749 12.2252 20.3082 12.313 20.7247C8.05016 20.4875 4.27045 18.2265 1.74066 14.7897C1.29915 15.6283 1.04642 16.6039 1.04642 17.6459C1.04642 19.6164 1.95177 21.3553 3.32806 22.3737C2.48767 22.3439 1.69651 22.0882 1.00481 21.6627C1.0043 21.6863 1.0043 21.7105 1.0043 21.7347C1.0043 24.4863 2.77236 26.7816 5.11895 27.3043C4.68861 27.4336 4.23543 27.5032 3.76753 27.5032C3.43666 27.5032 3.11542 27.4678 2.80231 27.401C3.45543 29.6575 5.34935 31.3003 7.59343 31.3458C5.83805 32.8694 3.62696 33.7777 1.22354 33.7777C0.809939 33.7777 0.401417 33.7507 0 33.6979C2.27047 35.3103 4.9662 36.25 7.86239 36.25C17.297 36.25 22.4555 27.5949 22.4555 20.0885C22.4555 19.8423 22.4509 19.5967 22.4413 19.3528C23.443 18.5536 24.3129 17.5526 25 16.4134Z" fill="#496AF1"/>
</svg>
