<svg width="50" height="50" viewBox="0 0 50 50" fill="none" xmlns="http://www.w3.org/2000/svg">
<path fill-rule="evenodd" clip-rule="evenodd" d="M9.73454 14.0695C9.9668 14.0691 10.2166 14.0692 10.4863 14.0694L10.9307 14.0695C14.4907 14.0695 14.9127 14.0823 16.3185 14.1462C17.6185 14.2056 18.3241 14.4228 18.7941 14.6053C19.4163 14.847 19.8599 15.1359 20.3263 15.6026C20.793 16.0692 21.0819 16.5137 21.3241 17.1359C21.5066 17.6054 21.7241 18.3109 21.7833 19.6109C21.8472 21.0165 21.8611 21.4387 21.8611 24.9971C21.8611 28.5555 21.8472 28.9777 21.7833 30.3833C21.7238 31.6833 21.5066 32.3889 21.3241 32.8583C21.0824 33.4805 20.793 33.9236 20.3263 34.39C19.8596 34.8567 19.4166 35.1455 18.7941 35.3872C18.3246 35.5706 17.6185 35.7872 16.3185 35.8467C14.9129 35.9106 14.4907 35.9244 10.9307 35.9244C7.37035 35.9244 6.9484 35.9106 5.54283 35.8467C4.24282 35.7867 3.53726 35.5694 3.06698 35.3869C2.44475 35.1453 2.0003 34.8564 1.53363 34.3897C1.06696 33.923 0.778064 33.4797 0.535839 32.8572C0.353337 32.3877 0.135835 31.6822 0.0766675 30.3822C0.0127779 28.9766 0 28.5544 0 24.9938C0 21.4332 0.0127779 21.0132 0.0766675 19.6076C0.136113 18.3076 0.353337 17.602 0.535839 17.132C0.777508 16.5098 1.06696 16.0653 1.53363 15.5987C2.0003 15.132 2.44475 14.8431 3.06698 14.6009C3.53698 14.4176 4.24282 14.2009 5.54283 14.1412C6.77285 14.0856 7.24952 14.0689 9.73454 14.0662V14.0695ZM18.0475 16.2833C17.1642 16.2833 16.4475 16.9991 16.4475 17.8827C16.4475 18.7661 17.1642 19.4827 18.0475 19.4827C18.9309 19.4827 19.6475 18.7661 19.6475 17.8827C19.6475 16.9994 18.9309 16.2827 18.0475 16.2827V16.2833ZM4.08398 25.0001C4.08398 21.2188 7.1497 18.153 10.931 18.1528C14.7124 18.1528 17.7775 21.2187 17.7775 25.0001C17.7775 28.7816 14.7127 31.846 10.9313 31.846C7.14985 31.846 4.08398 28.7816 4.08398 25.0001Z" fill="#496AF1"/>
<path d="M10.9308 20.5557C13.3853 20.5557 15.3753 22.5454 15.3753 25.0002C15.3753 27.4546 13.3853 29.4446 10.9308 29.4446C8.47607 29.4446 6.48633 27.4546 6.48633 25.0002C6.48633 22.5454 8.47607 20.5557 10.9308 20.5557Z" fill="#496AF1"/>
</svg>
