<svg width="50" height="50" viewBox="0 0 50 50" fill="none" xmlns="http://www.w3.org/2000/svg">
<path d="M5.53522 18.741H0.762373C0.550546 18.741 0.378906 18.9127 0.378906 19.1244V34.4576C0.378906 34.6694 0.550546 34.841 0.762373 34.841H5.53522C5.74705 34.841 5.91869 34.6694 5.91869 34.4576V19.1244C5.91869 18.9127 5.74705 18.741 5.53522 18.741Z" fill="#496AF1"/>
<path d="M3.14949 11.1187C1.41284 11.1187 0 12.53 0 14.2647C0 16.0002 1.41284 17.412 3.14949 17.412C4.88475 17.412 6.29644 16.0001 6.29644 14.2647C6.29652 12.53 4.88475 11.1187 3.14949 11.1187Z" fill="#496AF1"/>
<path d="M17.6758 18.36C15.7589 18.36 14.3418 19.1841 13.4823 20.1204V19.1245C13.4823 18.9128 13.3107 18.7411 13.0988 18.7411H8.528C8.31617 18.7411 8.14453 18.9128 8.14453 19.1245V34.4577C8.14453 34.6695 8.31617 34.8411 8.528 34.8411H13.2904C13.5022 34.8411 13.6739 34.6695 13.6739 34.4577V26.8713C13.6739 24.3149 14.3683 23.319 16.1503 23.319C18.0911 23.319 18.2453 24.9156 18.2453 27.0029V34.4577C18.2453 34.6696 18.417 34.8412 18.6288 34.8412H23.393C23.6048 34.8412 23.7765 34.6696 23.7765 34.4577V26.0473C23.7765 22.246 23.0516 18.36 17.6758 18.36Z" fill="#496AF1"/>
</svg>
