<svg width="18" height="18" viewBox="0 0 18 18" fill="none" xmlns="http://www.w3.org/2000/svg">
<g clip-path="url(#clip0_32_1857)">
<path d="M0.0555755 3.13591C2.61753 5.3056 7.11295 9.12275 8.43422 10.3129C8.61159 10.4736 8.80183 10.5552 8.99932 10.5552C9.19642 10.5552 9.38633 10.4743 9.5633 10.3145C10.8857 9.12311 15.3811 5.3056 17.9431 3.13591C18.1026 3.00108 18.1269 2.7641 17.9978 2.59927C17.6993 2.21839 17.2542 2 16.7772 2H1.22149C0.744499 2 0.299375 2.21839 0.000887528 2.59931C-0.128249 2.7641 -0.103931 3.00108 0.0555755 3.13591Z" fill="white"/>
<path d="M18.1057 4.31165C17.9679 4.24748 17.8057 4.26987 17.691 4.36787C16.0131 5.79012 13.8025 7.66927 12.1352 9.1033C12.0475 9.17851 11.9982 9.28902 12.0001 9.40485C12.0019 9.52031 12.0555 9.62929 12.1459 9.70144C13.695 10.9422 16.0295 12.6489 17.7153 13.8619C17.7826 13.9105 17.8623 13.9352 17.9424 13.9352C18.0032 13.9352 18.064 13.9212 18.1198 13.8923C18.2497 13.8258 18.3313 13.6921 18.3313 13.5463V4.66446C18.3313 4.51293 18.2432 4.37508 18.1057 4.31165Z" fill="white"/>
<path d="M0.283974 13.8617C1.97019 12.6487 4.30507 10.942 5.8538 9.70123C5.94418 9.62908 5.99774 9.52006 5.99964 9.40464C6.00153 9.28881 5.95217 9.1783 5.86445 9.10309C4.19719 7.66906 1.98612 5.78991 0.308292 4.36765C0.192828 4.26965 0.030295 4.24803 -0.106425 4.31143C-0.243911 4.37487 -0.332031 4.51272 -0.332031 4.66424V13.5461C-0.332031 13.692 -0.250364 13.8257 -0.120498 13.8921C-0.0646798 13.921 -0.00390324 13.935 0.0568734 13.935C0.13701 13.935 0.216745 13.9103 0.283974 13.8617Z" fill="white"/>
<path d="M17.8563 14.9199C16.2282 13.7551 13.2291 11.5836 11.4388 10.1305C11.293 10.0117 11.0818 10.0154 10.9382 10.1393C10.587 10.4457 10.293 10.704 10.0845 10.8916C9.44417 11.4696 8.55549 11.4696 7.91367 10.8908C7.70593 10.7036 7.412 10.4446 7.06069 10.1392C6.91828 10.0146 6.70675 10.0109 6.56051 10.1305C4.7763 11.5786 1.77378 13.7528 0.143019 14.9199C0.0522373 14.9852 -0.00624245 15.0858 -0.0176176 15.1971C-0.0286281 15.3084 0.00819518 15.4189 0.0845396 15.5009C0.378907 15.8181 0.793624 16 1.22165 16H16.7774C17.2054 16 17.6197 15.8181 17.9148 15.501C17.9907 15.4193 18.028 15.3088 18.017 15.1975C18.0055 15.0863 17.9471 14.9853 17.8563 14.9199Z" fill="white"/>
</g>
<defs>
<clipPath id="clip0_32_1857">
<rect width="18" height="18" fill="white"/>
</clipPath>
</defs>
</svg>
