<svg width="22" height="22" viewBox="0 0 22 22" fill="none" xmlns="http://www.w3.org/2000/svg">
<path d="M22 4.20071V17.8774C22 18.9716 21.2929 19.9876 20.1929 20.222L13.1214 21.9414C12.4143 22.0977 11.7071 21.9414 11.1571 21.4725C10.5286 21.0036 10.2143 20.3002 10.2143 19.5968H3.92857C2.59286 19.5968 1.57143 18.5808 1.57143 17.2522V17.1741V16.4707C1.57143 16.0018 1.88571 15.6892 2.35714 15.6892C2.82857 15.6892 3.14286 16.0018 3.14286 16.4707V17.1741C3.14286 17.643 3.45714 17.9556 3.85 18.0337H3.92857H10.2143V3.96625H3.92857C3.45714 3.96625 3.14286 4.27886 3.14286 4.74778V4.82593V5.52931C3.14286 5.99822 2.82857 6.31083 2.35714 6.31083C1.88571 6.31083 1.57143 5.99822 1.57143 5.52931V4.82593C1.57143 3.49734 2.59286 2.4032 3.85 2.4032H3.92857H10.2143C10.2143 1.69982 10.5286 0.996448 11.1571 0.527531C11.7071 0.0586145 12.4143 -0.0976909 13.1214 0.0586146L20.1929 1.77797C21.2929 2.09059 22 3.02842 22 4.20071ZM3.14286 13.3446V14.1261C3.14286 14.595 3.53571 14.9076 3.92857 14.9076C4.08571 14.9076 4.24286 14.8295 4.32143 14.7513L9.03571 11.6252C9.42857 11.3908 9.42857 10.5311 9.03571 10.2966L4.32143 7.17052C3.92857 6.93606 3.45714 7.01421 3.22143 7.40497C3.22143 7.56128 3.14286 7.71758 3.14286 7.87389V8.65542H1.57143C0.707143 8.65542 0 9.35879 0 10.2185V11.7815C0 12.6412 0.707143 13.3446 1.57143 13.3446H3.14286Z" fill="#496AF1"/>
</svg>
