<svg width="129" height="121" viewBox="0 0 129 121" fill="none" xmlns="http://www.w3.org/2000/svg">
<path d="M128.132 35.4626L103.565 1.56578C102.852 0.582145 101.711 0 100.496 0C99.2812 0 98.1401 0.582145 97.4271 1.56578L72.8595 35.4626C72.0234 36.6158 71.9049 38.1406 72.5523 39.4092C73.1996 40.6779 74.5039 41.4768 75.9282 41.4768H84.7761V117.21C84.7761 118.216 85.1763 119.181 85.888 119.892C86.5988 120.602 87.5617 121 88.5661 121H88.5719L111.497 120.964C113.588 120.961 115.281 119.265 115.281 117.174V41.4768H125.063C126.488 41.4768 127.792 40.6781 128.439 39.4095C129.087 38.1406 128.968 36.616 128.132 35.4626Z" fill="white"/>
<path d="M69.1032 49.491H46.1777C44.0846 49.491 42.3877 51.1879 42.3877 53.281V117.21C42.3877 118.216 42.7877 119.181 43.4999 119.892C44.2107 120.602 45.1739 121 46.1777 121H46.1835L69.109 120.964C71.1998 120.961 72.8929 119.265 72.8929 117.174V53.281C72.8932 51.1879 71.1965 49.491 69.1032 49.491Z" fill="white"/>
<path d="M26.7155 68.6936H3.79001C1.69691 68.6936 0 70.3905 0 72.4836V117.21C0 118.216 0.399972 119.181 1.11224 119.892C1.82299 120.602 2.78591 121 3.79001 121H3.79582L26.7213 120.964C28.8121 120.961 30.5055 119.265 30.5055 117.174V72.4836C30.5055 70.3905 28.8086 68.6936 26.7155 68.6936Z" fill="white"/>
</svg>
