<svg width="32" height="32" viewBox="0 0 32 32" fill="none" xmlns="http://www.w3.org/2000/svg">
<circle cx="16" cy="16" r="16" fill="#F5B841"/>
<path d="M20.2623 11.6003H20.2715M12.3332 23.3337H19.6665C21.6915 23.3337 23.3332 21.692 23.3332 19.667V12.3337C23.3332 10.3086 21.6915 8.66699 19.6665 8.66699H12.3332C10.3081 8.66699 8.6665 10.3086 8.6665 12.3337V19.667C8.6665 21.692 10.3081 23.3337 12.3332 23.3337ZM19.4373 16.0003C19.4373 17.8988 17.8983 19.4378 15.9998 19.4378C14.1014 19.4378 12.5623 17.8988 12.5623 16.0003C12.5623 14.1018 14.1014 12.5628 15.9998 12.5628C17.8983 12.5628 19.4373 14.1018 19.4373 16.0003Z" stroke="white" stroke-width="2" stroke-linecap="round" stroke-linejoin="round"/>
</svg>
