<svg width="14" height="15" viewBox="0 0 14 15" fill="none" xmlns="http://www.w3.org/2000/svg">
<g clip-path="url(#clip0_1_429)">
<path d="M12.5904 5.19904C11.9098 2.20459 9.29778 0.856445 7.00333 0.856445C7.00333 0.856445 7.00333 0.856445 6.99685 0.856445C4.70887 0.856445 2.09035 2.19811 1.4098 5.19256C0.651462 8.537 2.69961 11.3694 4.55331 13.1518C5.24035 13.8129 6.12185 14.1435 7.00333 14.1435C7.88481 14.1435 8.76629 13.8129 9.44685 13.1518C11.3006 11.3694 13.3487 8.54348 12.5904 5.19904ZM7.00333 8.44626C5.87555 8.44626 4.96165 7.53237 4.96165 6.40459C4.96165 5.27682 5.87555 4.36293 7.00333 4.36293C8.13111 4.36293 9.045 5.27682 9.045 6.40459C9.045 7.53237 8.13111 8.44626 7.00333 8.44626Z" fill="#496AF1"/>
</g>
<defs>
<clipPath id="clip0_1_429">
<rect width="14" height="14" fill="#B34D75" transform="translate(0 0.5)"/>
</clipPath>
</defs>
</svg>
