<svg width="23" height="23" viewBox="0 0 23 23" fill="none" xmlns="http://www.w3.org/2000/svg">
<path fill-rule="evenodd" clip-rule="evenodd" d="M4.90001 10.4C4.90001 8.94126 5.47948 7.54231 6.51093 6.51086C7.54238 5.47941 8.94132 4.89995 10.4 4.89995C11.8587 4.89995 13.2577 5.47941 14.2891 6.51086C15.3206 7.54231 15.9 8.94126 15.9 10.4C15.9 11.8586 15.3206 13.2576 14.2891 14.289C13.2577 15.3205 11.8587 15.9 10.4 15.9C8.94132 15.9 7.54238 15.3205 6.51093 14.289C5.47948 13.2576 4.90001 11.8586 4.90001 10.4ZM10.4 2.69995C9.17993 2.69995 7.97732 2.98988 6.89127 3.54585C5.80523 4.10181 4.86684 4.9079 4.15345 5.89768C3.44006 6.88746 2.97208 8.0326 2.78808 9.23873C2.60408 10.4449 2.70933 11.6774 3.09515 12.8349C3.48097 13.9924 4.13633 15.0416 5.0072 15.8961C5.87808 16.7506 6.93954 17.3859 8.10412 17.7497C9.26871 18.1135 10.5031 18.1953 11.7055 17.9885C12.9079 17.7816 14.0439 17.292 15.02 16.56C15.0513 16.6016 15.0855 16.6409 15.1223 16.6777L18.4223 19.9777C18.6298 20.178 18.9076 20.2889 19.1961 20.2864C19.4845 20.2839 19.7604 20.1682 19.9643 19.9643C20.1683 19.7603 20.2839 19.4844 20.2865 19.196C20.289 18.9076 20.1781 18.6297 19.9777 18.4223L16.6777 15.1223C16.641 15.0854 16.6016 15.0512 16.56 15.02C17.418 13.876 17.9405 12.5157 18.0689 11.0915C18.1973 9.66725 17.9266 8.23542 17.2871 6.95641C16.6476 5.67739 15.6646 4.60173 14.4481 3.84994C13.2317 3.09815 11.83 2.69995 10.4 2.69995Z" fill="#496AF1"/>
</svg>
