<svg width="129" height="120" viewBox="0 0 129 120" fill="none" xmlns="http://www.w3.org/2000/svg">
<path d="M122.551 60C122.551 92.8492 95.2407 119.5 61.5254 119.5C27.8101 119.5 0.5 92.8492 0.5 60C0.5 27.1508 27.8101 0.5 61.5254 0.5C95.2407 0.5 122.551 27.1508 122.551 60Z" stroke="#B34D75"/>
<path d="M72.6744 71.3084C72.6744 67.7829 69.8065 64.9148 66.2808 64.9148C66.1458 64.9148 66.0122 64.9205 65.8796 64.9286V65.7384C66.0125 65.7289 66.1451 65.7178 66.2808 65.7178C69.3633 65.7178 71.871 68.2259 71.871 71.3084C71.871 74.3909 69.3633 76.8986 66.2808 76.8986C66.1902 76.8986 66.1024 76.8896 66.0132 76.8848V77.1867V77.6946V79.2842H64.0278V80.3551H68.5337V79.2842H66.8159V77.6774C70.0919 77.4042 72.6744 74.6531 72.6744 71.3084Z" fill="#B34D75"/>
<path d="M43.4944 30.2684L42.9448 30.8413L43.6819 31.4514L44.423 30.8413L43.4944 30.2684Z" fill="#B34D75"/>
<path d="M10.5435 28.9349L10.4792 28.2584C9.90643 29.156 9.35683 30.0651 8.8291 30.9899L10.5435 28.9349Z" fill="#B34D75"/>
<path d="M29.6709 14.8125V13.8762H27.4971L27.3756 14.3238H26.0522V14.4373V15.6337H29.0416L29.6709 14.8125Z" fill="#B34D75"/>
<path d="M120.693 46.3694L121.119 47.167C121.045 46.8268 120.962 46.4868 120.881 46.1503L120.693 46.3694Z" fill="#B34D75"/>
<path d="M39.7246 32.4445L40.8588 32.2314L41.7679 31.6546V30.4622H39.7246C39.7246 30.6456 39.7246 32.4445 39.7246 32.4445Z" fill="#B34D75"/>
<path d="M117.295 35.6393C116.853 34.6461 116.376 33.6606 115.875 32.6947L115.492 33.1208V35.7739L116.673 35.6157L117.295 35.6393Z" fill="#B34D75"/>
<path d="M29.6183 18.4454C29.6183 18.4454 29.728 17.1315 29.6183 17.1315C29.5069 17.1315 28.1775 17.3563 28.1775 17.3563L26.0562 17.9564L26.627 18.6292L29.6183 18.4454Z" fill="#B34D75"/>
<path d="M107.741 23.9064L108.934 22.1486C107.976 20.9871 106.975 19.863 105.935 18.7739L105.927 21.6969L103.315 23.0051L103.573 23.8674L107.741 23.9064Z" fill="#B34D75"/>
<path d="M34.688 23.83L33.2509 23.4897L31.6616 24.2426L32.643 26.229L34.1915 25.7403L34.688 23.83Z" fill="#B34D75"/>
<path d="M40.7476 28.5479V29.9732L42.0006 29.672L40.7476 28.5479Z" fill="#B34D75"/>
<path d="M37.1868 28.0222L35.4444 28.7357L35.1045 29.596L36.4692 29.9732H40.1017V28.7357H39.5737V28.0222H37.1868Z" fill="#B34D75"/>
<path d="M115.241 38.3219L113.654 36.5954L113.349 33.8289L111.726 34.7049L110.846 38.0934L108.5 35.6241L108.406 33.2857L106.138 31.3578L105.302 30.5326H102.674L103.503 32.8515L106.67 34.5935L107.218 35.1744L106.537 35.5147L106.565 37.3486L105.02 37.986L103.706 37.6969L102.885 36.5452L105.02 36.6607L105.599 35.8923L100.86 32.729L100.5 31.3801L98.5687 33.1005L96.613 32.7037L93.6411 36.5244L93.0589 38.0257L91.1546 38.194L88.3393 38.2098L86.6579 37.4334L86.1648 34.1274L86.7632 32.5573L89.6297 31.9317L92.7499 32.5573L93.1333 30.8466L91.8039 30.5336L92.2602 27.8751L95.4 27.3905L97.5977 24.3191L99.8655 23.9435L101.915 24.2427H102.665L102.251 21.3607L99.7638 22.3519L98.8877 20.1992L97.4409 20.0017L97.175 18.5255L98.356 17.2547L101.156 16.1696L101.879 14.8968C93.9174 7.96197 84.1142 3.05629 73.2962 0.989483C73.0478 0.94674 72.8071 0.901641 72.5591 0.858561C71.4464 0.657299 70.3048 0.526378 69.1629 0.38536C66.9204 0.141018 64.6463 0 62.3314 0C48.9855 0 36.6463 4.2292 26.5751 11.3851L29.1205 11.3656L30.4873 12.1144L33.0623 12.658L33.2655 13.6589L37.3537 13.8077L36.7964 12.5096L33.1656 12.4099L34.0221 11.6103L33.7229 10.6639H30.4381L34.0258 8.01851H37.457L39.0719 10.2162L41.7502 10.3647L43.3593 8.81413L44.5732 9.41456L42.3503 11.5611C42.3503 11.5611 39.2708 11.6103 39.4232 11.6103C39.5757 11.6103 39.6793 13.7043 39.6793 13.7043L43.4118 13.6047L43.8163 12.6075L46.3933 12.455L46.6946 10.9614L45.1851 10.709L45.6896 9.36374L46.847 9.01573L50.8864 9.21498L48.6614 11.2135L49.0212 12.7599L51.3438 13.108L51.1873 10.3199L53.4103 9.17021L57.35 8.72225L63.0554 11.2209V13.3678L64.8735 13.8154L63.9604 15.5086H61.3857L60.6251 17.456L54.7339 16.0855L59.3599 13.6515L57.5984 12.1693L53.6139 12.666L53.2581 13.0238L53.2464 13.0198L53.1821 13.1039L52.0324 14.2812L50.1339 14.4414L50.2863 15.378L50.947 15.6459L50.9238 15.9589L49.3773 16.174L49.2655 17.0595L47.7874 17.1359L47.5235 15.378L44.8724 16.174L39.4586 19.3101L40.059 21.5155L41.5742 22.4929L44.6045 22.9055V26.3095L46.0066 26.0846L47.295 23.4255L50.5192 22.4165V18.332L52.308 16.9986L56.6369 18.0076L56.3339 20.7037H57.4934L60.6782 19.1573L60.8287 22.6982L63.1476 24.0939L63.0517 26.188L60.8287 26.9385L60.9811 27.6308L63.6521 28.8353L63.6053 30.2822L62.8272 30.3488C62.8272 30.3253 62.8194 30.3098 62.8194 30.3098L59.4411 29.2813L59.3004 28.208H59.2963L60.2818 27.5392V26.5615L59.2199 26.3017L58.9598 27.203L57.0946 27.4867L56.9088 27.4221V27.514L56.2656 27.6119L55.7399 26.5619L55.1318 26.3021H53.8061L53.206 26.7867V27.8718L54.3402 28.2433L55.4606 28.3998L55.2085 28.5112L54.184 29.6296L53.7381 29.0686L52.7506 28.8162L50.0581 31.3188L50.4159 31.6022L46.4391 33.7723L42.6989 37.6182L42.4465 39.3269L38.7023 41.7609L36.8411 43.6066L37.0485 47.3L34.4694 46.1133L34.491 43.9509H27.3246L23.6117 45.81L22.0026 48.7448L21.3615 51.0755L22.4072 53.3338L25.3305 53.6818L29.9797 50.6103L30.3822 52.1333L28.965 54.7827L32.5059 55.375L32.858 60.7734L33.3019 60.8498C33.2979 60.8458 33.2979 60.8421 33.2979 60.8421L33.3467 60.8579L37.7068 61.5909L40.7863 58.0715L44.5265 58.8241L45.8363 60.6287L49.4241 60.4177L49.52 59.3716L51.4946 60.318L53.7159 63.7573L57.5516 63.8139L58.9692 66.2597L59.1708 69.2513L63.4175 70.8486L68.7688 70.8995L70.3368 73.4395L72.7085 74.19L72.2589 76.2898L69.6566 79.5551L68.9 86.7813L66.5499 88.6193L63.0698 88.5173L61.9043 90.5117L62.7706 94.258L58.9817 99.0442L57.7657 101.242L54.1561 102.962L51.7864 103.318L51.6867 104.315L53.3524 104.789L53.1511 105.864L51.6595 107.279L52.5665 108.406L54.3614 108.46L54.2618 109.833L53.7849 111.178L53.6364 112.277L56.2915 114.486L55.9358 115.636L52.3188 115.57L48.7233 112.461L45.9215 107.592L46.3166 102.892L44.195 100.092L45.0515 95.3605L43.7981 95.0045V84.7243C43.7981 84.7243 40.2592 82.0732 40.058 82.0732C39.8547 82.0732 38.1887 81.6313 38.1887 81.6313L37.8367 79.688L33.24 73.9944L33.6916 71.9492L33.8441 68.6058L37.0232 66.4064L36.5756 62.6642L31.9301 62.3202L28.2932 58.226L25.7162 57.53L24.0502 57.2251L24.2535 55.7274L22.1322 55.4282V56.2766L16.8297 54.9802L14.6946 51.7523L15.4357 50.4266L14.5596 50.4188L14.3072 49.5781L14.9268 49.2651L12.2091 45.3452L11.6285 41.8019H10.2618L10.7191 45.2449L13.0421 48.7875L12.7896 50.1897L10.8191 49.8904L8.40025 45.806V41.0568L5.87438 39.8543V36.9605C4.53319 40.0868 3.46361 43.3578 2.66226 46.7268L3.49525 46.5585L3.98797 48.9006L5.03029 50.5626L5.72225 51.3467L6.9756 51.8317L5.79058 53.2237L3.49525 53.4445H1.73706L1.9326 51.4188L3.36769 51.1216L3.24249 50.1735L2.05377 49.4287C1.38906 52.941 1.02558 56.556 1 60.2571C1.17602 93.2331 28.3568 120 61.7573 120C80.7479 120 97.7307 111.33 108.883 97.8006H106.885V93.8083L104.562 90.7228V85.913L102.794 84.177L102.642 82.1748L104.887 77.9325L100.624 70.4969L101.133 65.4506L97.3002 65.0575L95.8809 63.6618H93.3039L91.9903 64.8582H87.4464L87.298 65.2591H84.7641L78.9689 58.7228L79.0079 53.6296L79.9698 53.2816L80.3292 51.3363H78.9685L78.4055 49.289L85.1235 44.5008V41.112L88.4083 39.3074L89.7377 39.4383H92.4437L94.5589 38.3179L101.379 37.7902V41.2332L106.756 42.5821L107.819 43.3309H108.805V41.4617L111.906 41.1645L114.858 43.3346H119.707L120.043 43.0297C119.57 41.4129 119.019 39.827 118.405 38.2687L115.241 38.3219ZM27.3404 61.9191L26.1867 62.0756V59.481L26.5603 59.0627C27.053 60.0091 27.5161 60.969 27.9563 61.9426L27.3404 61.9191ZM31.2721 72.4379L31.4599 72.2188C31.54 72.555 31.6204 72.8835 31.7005 73.22L31.2721 72.4379Z" fill="#B34D75"/>
<path d="M34.8721 33.4495L35.938 34.0125L38.5167 30.4622H36.5067L35.105 31.9558L34.8721 33.4495Z" fill="#B34D75"/>
<path d="M42.2646 31.7701V32.8512L42.7967 33.6041H44.7262V32.4446L42.4174 31.7701H42.2646Z" fill="#B34D75"/>
<path d="M39.7244 33.4927L38.817 33.565L38.5161 34.8749H40.4459L41.3196 34.0127V32.8512L39.9179 33.041L39.7244 33.4927Z" fill="#B34D75"/>
<path d="M31.272 72.4379L31.6964 73.22C31.6163 72.8835 31.5358 72.5546 31.4557 72.2188L31.272 72.4379Z" fill="#B34D75"/>
<path d="M26.187 59.4811V62.0756L27.3407 61.9191L27.9526 61.9386C27.5164 60.965 27.0476 60.0088 26.5566 59.0587L26.187 59.4811Z" fill="#B34D75"/>
<path d="M33.308 60.8613L33.3473 60.8691L33.3022 60.8535L33.308 60.8613Z" fill="#B34D75"/>
<path d="M14.526 50.4262L15.4041 50.4383L15.535 50.1977L14.8955 49.2728L14.2739 49.5895L14.526 50.4262Z" fill="#B34D75"/>
<path d="M3.24307 50.1859L3.36827 51.136L1.93318 51.4312L1.7373 53.4569H3.46755L5.76086 53.2381L6.94757 51.8441L5.69423 51.3591L5.00024 50.5753L3.96027 48.9134L3.46755 46.5709L2.63457 46.7392L2.49389 46.7665C2.29431 47.6328 2.11863 48.5048 1.95809 49.3805L2.05401 49.4411L3.24307 50.1859Z" fill="#B34D75"/>
<path d="M128.156 24.3182C128.156 33.04 120.861 40.1365 111.828 40.1365C102.796 40.1365 95.5 33.04 95.5 24.3182C95.5 15.5965 102.796 8.5 111.828 8.5C120.861 8.5 128.156 15.5965 128.156 24.3182Z" fill="#111111" stroke="#B34D75"/>
<path d="M118.58 19.2326C118.108 18.7607 117.343 18.761 116.871 19.2326L109.183 26.9214L105.766 23.5042C105.294 23.0323 104.529 23.0323 104.057 23.5042C103.585 23.976 103.585 24.7409 104.057 25.2128L108.328 29.4841C108.564 29.7199 108.873 29.8381 109.182 29.8381C109.492 29.8381 109.801 29.7202 110.037 29.4841L118.58 20.9411C119.051 20.4696 119.051 19.7044 118.58 19.2326Z" fill="#B34D75"/>
</svg>
