<svg width="18" height="18" viewBox="0 0 18 18" fill="none" xmlns="http://www.w3.org/2000/svg">
<path d="M17.8734 2.87709L13.0797 16.3129C12.965 16.6466 12.7487 16.9359 12.461 17.1403C12.1734 17.3447 11.829 17.4538 11.4762 17.4522C11.1274 17.4562 10.786 17.3521 10.4989 17.1541C10.2117 16.9561 9.99295 16.674 9.87264 16.3467L8.08345 11.688L9.38315 10.3883L11.4846 8.28687C11.6435 8.12794 11.7328 7.9124 11.7328 7.68765C11.7328 7.46291 11.6435 7.24737 11.4846 7.08844C11.3257 6.92952 11.1101 6.84024 10.8854 6.84024C10.6606 6.84024 10.4451 6.92952 10.2862 7.08844L8.18473 9.1899L6.85127 10.498L2.20106 8.7004C1.8538 8.5958 1.54947 8.38212 1.33314 8.09103C1.11681 7.79993 1 7.4469 1 7.08423C1 6.72155 1.11681 6.36852 1.33314 6.07742C1.54947 5.78633 1.8538 5.57265 2.20106 5.46805L15.6706 0.674363C15.9787 0.547811 16.3172 0.515202 16.6438 0.580639C16.9703 0.646076 17.2701 0.806635 17.5056 1.04211C17.7411 1.27758 17.9017 1.57745 17.9671 1.90397C18.0325 2.23049 17.9999 2.56907 17.8734 2.87709Z" fill="#496AF1"/>
</svg>
