<svg width="16" height="16" viewBox="0 0 16 16" fill="none" xmlns="http://www.w3.org/2000/svg">
<path d="M8.31359 0.692316L10.5966 5.24086L15.7 5.97043C15.7648 5.97986 15.8256 6.00684 15.8756 6.04831C15.9255 6.08978 15.9627 6.1441 15.9829 6.20516C16.0031 6.26621 16.0054 6.33157 15.9898 6.39388C15.9741 6.45619 15.941 6.51297 15.8941 6.55783L12.202 10.0976L13.0737 15.0968C13.0849 15.16 13.0779 15.225 13.0533 15.2845C13.0288 15.344 12.9877 15.3955 12.9348 15.4333C12.8819 15.471 12.8193 15.4935 12.754 15.4982C12.6887 15.5028 12.6234 15.4894 12.5655 15.4596L8.00052 13.0997L3.43557 15.4603C3.37769 15.4902 3.31238 15.5037 3.24708 15.4991C3.18178 15.4945 3.11909 15.4721 3.06616 15.4344C3.01322 15.3966 2.97214 15.3451 2.94761 15.2856C2.92307 15.2261 2.91605 15.1611 2.92734 15.0979L3.79908 10.0976L0.105859 6.55783C0.0590308 6.51297 0.0259117 6.45619 0.0102315 6.39388C-0.00544867 6.33157 -0.00306709 6.26621 0.0171081 6.20516C0.0372832 6.1441 0.0744506 6.08978 0.124425 6.04831C0.174398 6.00684 0.235194 5.97986 0.299965 5.97043L5.40341 5.24086L7.68745 0.692316C7.71593 0.634676 7.76041 0.586066 7.81578 0.552053C7.87115 0.51804 7.93517 0.5 8.00052 0.5C8.06587 0.5 8.1299 0.51804 8.18527 0.552053C8.24064 0.586066 8.28511 0.634676 8.31359 0.692316Z" fill="#fff"/>
</svg>
