<svg width="119" height="70" viewBox="0 0 119 70" fill="none" xmlns="http://www.w3.org/2000/svg">
<path d="M70.5 35C70.5 54.0472 54.8367 69.5 35.5 69.5C16.1633 69.5 0.5 54.0472 0.5 35C0.5 15.9528 16.1633 0.5 35.5 0.5C54.8367 0.5 70.5 15.9528 70.5 35Z" fill="#B34D75" stroke="#111111"/>
<path d="M42.8609 35.4233C41.3631 34.3246 39.6274 33.7207 37.9045 33.2328C37.6703 33.1668 37.4405 33.1135 37.2063 33.0518V22.6376C38.8701 22.8867 40.1006 23.4054 40.9195 24.0456C41.4995 24.4961 41.8989 25.0011 42.1728 25.5685C42.4424 26.1361 42.587 26.7763 42.588 27.5109C42.588 28.4527 43.3522 29.2169 44.294 29.2169C45.2358 29.2169 46 28.4527 46 27.5109C46.0012 26.32 45.7567 25.1544 45.2517 24.0979C44.4966 22.5068 43.1522 21.2035 41.404 20.355C40.195 19.7657 38.7847 19.3916 37.2073 19.2063V17.706C37.2073 16.763 36.443 16 35.5013 16C34.5583 16 33.7952 16.763 33.7952 17.706V19.1118C32.559 19.2073 31.4488 19.4496 30.4663 19.8238C28.535 20.554 27.1215 21.8004 26.2467 23.2004C25.3687 24.6015 25.0025 26.1244 25.0013 27.5109C24.9967 28.97 25.348 30.2838 26.0091 31.354C26.5833 32.2912 27.3636 33.019 28.2143 33.5775C29.7098 34.5545 31.4182 35.0799 33.1207 35.5348C33.3447 35.5929 33.5698 35.6497 33.794 35.7054V46.9082C32.1343 46.725 30.8617 46.1926 30.0078 45.467C28.9603 44.5661 28.4237 43.4186 28.4122 41.9537C28.4122 41.0107 27.6479 40.2477 26.7061 40.2477C25.7644 40.2477 25.0001 41.0107 25.0001 41.9537C24.9876 44.3387 26.0043 46.5634 27.8036 48.0714C29.347 49.377 31.4055 50.1596 33.7938 50.353V51.8348C33.7938 52.7765 34.5569 53.5408 35.4999 53.5408C36.4416 53.5408 37.2059 52.7765 37.2059 51.8348V50.2914C39.1371 50.0967 40.9408 49.6204 42.4832 48.6651C43.5363 48.0076 44.4496 47.0978 45.0662 45.9481C45.6873 44.8015 46.0012 43.446 45.9986 41.9537C46.0008 40.3966 45.6666 39.0161 45.032 37.8649C44.4795 36.8575 43.7128 36.0509 42.8609 35.4233ZM33.7928 32.1785C32.1324 31.7337 30.7007 31.213 29.8259 30.5418C29.3551 30.1857 29.0297 29.8116 28.7965 29.3555C28.5654 28.896 28.4143 28.326 28.412 27.5107C28.4108 26.4622 28.7965 25.2065 29.738 24.2502C30.2124 23.7669 30.8309 23.3358 31.6783 23.0128C32.2618 22.7911 32.9668 22.6271 33.7926 22.542V32.1785H33.7928ZM42.0635 44.3266C41.8223 44.7701 41.512 45.1353 41.107 45.4628C40.5018 45.9497 39.6626 46.3419 38.6163 46.6024C38.1795 46.7115 37.7029 46.7922 37.2059 46.8549V36.586C38.2489 36.8872 39.2044 37.2196 39.9777 37.6355C40.841 38.0926 41.4631 38.6113 41.8861 39.2507C42.3047 39.8932 42.581 40.6996 42.5868 41.9529C42.5844 42.9846 42.3796 43.7361 42.0635 44.3266Z" fill="#A8A6DD"/>
<path d="M118.5 35C118.5 54.0472 102.837 69.5 83.5 69.5C64.1633 69.5 48.5 54.0472 48.5 35C48.5 15.9528 64.1633 0.5 83.5 0.5C102.837 0.5 118.5 15.9528 118.5 35Z" fill="#A8A6DD" stroke="#111111"/>
<path d="M97.5061 24.6779C96.6031 23.7737 95.1368 23.7743 94.2327 24.6779L79.5001 39.4111L72.9521 32.8631C72.0479 31.959 70.5823 31.959 69.6781 32.8631C68.774 33.7673 68.774 35.2329 69.6781 36.1371L77.8628 44.3217C78.3146 44.7735 78.907 45 79.4995 45C80.0919 45 80.6849 44.7741 81.1367 44.3217L97.5061 27.9518C98.4102 27.0483 98.4102 25.582 97.5061 24.6779Z" fill="#B34D75"/>
</svg>
