<svg width="22" height="22" viewBox="0 0 22 22" fill="none" xmlns="http://www.w3.org/2000/svg">
<path d="M11 0C8.82441 0 6.69767 0.645139 4.88873 1.85383C3.07979 3.06253 1.66989 4.78049 0.83733 6.79048C0.00476615 8.80047 -0.213071 11.0122 0.211367 13.146C0.635804 15.2798 1.68345 17.2398 3.22183 18.7782C4.76021 20.3165 6.72022 21.3642 8.85401 21.7886C10.9878 22.2131 13.1995 21.9952 15.2095 21.1627C17.2195 20.3301 18.9375 18.9202 20.1462 17.1113C21.3549 15.3023 22 13.1756 22 11C22 9.55546 21.7155 8.12506 21.1627 6.79048C20.6099 5.4559 19.7996 4.24327 18.7782 3.22182C17.7567 2.20038 16.5441 1.39013 15.2095 0.837325C13.8749 0.284523 12.4445 0 11 0ZM11 3.3C11.6527 3.3 12.2907 3.49354 12.8334 3.85615C13.3761 4.21876 13.799 4.73415 14.0488 5.33714C14.2986 5.94014 14.3639 6.60366 14.2366 7.2438C14.1093 7.88393 13.795 8.47194 13.3335 8.93345C12.8719 9.39496 12.2839 9.70926 11.6438 9.83659C11.0037 9.96392 10.3401 9.89857 9.73715 9.6488C9.13415 9.39903 8.61876 8.97606 8.25615 8.43338C7.89354 7.8907 7.7 7.25268 7.7 6.6C7.7 5.72478 8.04768 4.88542 8.66655 4.26655C9.28542 3.64768 10.1248 3.3 11 3.3ZM17.2333 16.1333C17.1282 16.2604 17.0194 16.3827 16.907 16.5C16.1522 17.3089 15.2392 17.9538 14.2246 18.3948C13.2099 18.8358 12.1155 19.0633 11.0092 19.0633C9.90287 19.0633 8.80839 18.8358 7.79377 18.3948C6.77916 17.9538 5.86609 17.3089 5.11134 16.5C4.99889 16.3778 4.89011 16.2556 4.785 16.1333C4.63953 15.9599 4.54447 15.7499 4.5102 15.5262C4.47593 15.3025 4.50377 15.0736 4.59067 14.8647C5.269 13.277 7.87967 12.1 11 12.1C14.1203 12.1 16.731 13.277 17.4203 14.861C17.5089 15.0698 17.5384 15.299 17.5054 15.5234C17.4724 15.7478 17.3783 15.9588 17.2333 16.1333Z" fill="#496AF1"/>
</svg>
