<svg width="39" height="38" viewBox="0 0 39 38" fill="none" xmlns="http://www.w3.org/2000/svg">
<path fill-rule="evenodd" clip-rule="evenodd" d="M27.5491 27.0491C28.2813 26.317 29.4686 26.317 30.2008 27.0491L37.7008 34.5491C38.433 35.2813 38.433 36.4686 37.7008 37.2008C36.9686 37.933 35.7813 37.933 35.0491 37.2008L27.5491 29.7008C26.817 28.9686 26.817 27.7813 27.5491 27.0491Z" fill="white"/>
<path fill-rule="evenodd" clip-rule="evenodd" d="M17.625 0.25C8.3052 0.25 0.75 7.8052 0.75 17.125C0.75 26.4449 8.3052 34 17.625 34C26.9449 34 34.5 26.4449 34.5 17.125C34.5 7.8052 26.9449 0.25 17.625 0.25ZM17.625 9.625C18.6606 9.625 19.5 10.4645 19.5 11.5V15.25H23.25C24.2856 15.25 25.125 16.0894 25.125 17.125C25.125 18.1606 24.2856 19 23.25 19H19.5V22.75C19.5 23.7856 18.6606 24.625 17.625 24.625C16.5894 24.625 15.75 23.7856 15.75 22.75V19H12C10.9645 19 10.125 18.1606 10.125 17.125C10.125 16.0894 10.9645 15.25 12 15.25H15.75V11.5C15.75 10.4645 16.5894 9.625 17.625 9.625Z" fill="white"/>
</svg>
