<svg width="34" height="40" viewBox="0 0 34 40" fill="none" xmlns="http://www.w3.org/2000/svg">
<path d="M3.12668 9.94279L3.60074 9.78382L3.12668 9.94279ZM7.17002 18.4068L6.74093 18.6635L7.17002 18.4068ZM20.9278 32.4556L20.6469 32.8692L20.9278 32.4556ZM33.2899 39.2346L29.8583 34.5916L27.5531 39.8849L33.2899 39.2346ZM0.50277 1.05699C0.561225 1.56649 0.701215 2.38719 0.899134 3.36508L1.87926 3.16671C1.68309 2.19746 1.5498 1.40975 1.49625 0.94301L0.50277 1.05699ZM1.97688 7.87501C2.18905 8.64042 2.41613 9.39649 2.65262 10.1018L3.60074 9.78382C3.3711 9.099 3.14913 8.3604 2.94054 7.60789L1.97688 7.87501ZM2.65262 10.1018C2.93593 10.9466 3.19664 11.6752 3.45565 12.3385L4.38715 11.9747C4.13562 11.3306 3.88046 10.618 3.60074 9.78382L2.65262 10.1018ZM5.54237 16.629C5.89279 17.2405 6.28652 17.9038 6.74093 18.6635L7.59911 18.1501C7.14508 17.3911 6.75545 16.7346 6.41002 16.1318L5.54237 16.629ZM6.74093 18.6635C7.10438 19.2711 7.62953 20.0095 8.21703 20.7815L9.01278 20.1758C8.43265 19.4136 7.93392 18.7098 7.59911 18.1501L6.74093 18.6635ZM11.4363 24.7203C12.3392 25.7716 13.0246 26.5363 13.1141 26.6334L13.8494 25.9558C13.7711 25.8707 13.0942 25.1158 12.1949 24.0687L11.4363 24.7203ZM13.1141 26.6334C13.1137 26.6331 13.1163 26.6359 13.123 26.6439C13.1295 26.6517 13.1378 26.6618 13.1487 26.6755C13.1597 26.6892 13.1719 26.7045 13.1866 26.7229C13.201 26.741 13.2173 26.7614 13.2352 26.7838C13.3076 26.8739 13.406 26.994 13.5392 27.1449C13.8055 27.4468 14.2054 27.866 14.8113 28.4178L15.4846 27.6785C14.3166 26.6148 14.0095 26.1294 13.8494 25.9558L13.1141 26.6334ZM18.647 31.4706C19.2468 31.9039 19.9111 32.3696 20.6469 32.8692L21.2086 32.0419C20.4803 31.5474 19.824 31.0872 19.2325 30.66L18.647 31.4706ZM20.6469 32.8692C21.1466 33.2085 21.6407 33.5356 22.1283 33.8507L22.6711 33.0108C22.1898 32.6997 21.702 32.3769 21.2086 32.0419L20.6469 32.8692ZM25.1558 35.7104C26.2478 36.3469 27.29 36.9179 28.2688 37.4269L28.7302 36.5398C27.7652 36.0378 26.737 35.4745 25.6593 34.8464L25.1558 35.7104Z" fill="#7D3C88"/>
</svg>
