<svg width="177" height="245" viewBox="0 0 177 245" fill="none" xmlns="http://www.w3.org/2000/svg">
  <path d="M88.381 7.1881C95.8657 4.29061 103.203 1.46399 111.217 0.313751C119.298 -0.846041 131.305 -2.85194 138.556 2.30039C145.027 6.89867 148.528 13.8678 144.108 20.6441C130.163 42.0205 110.242 57.0303 93.7403 76.1245C73.105 100.002 44.8683 125.082 37.1492 156.771C32.4828 175.928 34.372 198.993 55.1848 207.515C71.3319 214.127 87.1093 199.359 97.72 189.203C114.561 173.083 131.503 154.839 153.563 146.019C160.816 143.119 174.402 140.283 179.972 148.068C182.511 151.616 183.375 156.242 185.192 160.166C187.717 165.617 191.64 168.837 196.291 172.371" stroke="#F5B841" stroke-width="70" stroke-linecap="round" />
</svg>