<svg width="44" height="44" viewBox="0 0 44 44" fill="none" xmlns="http://www.w3.org/2000/svg">
  <g clip-path="url(#clip0_110_5143)">
    <path d="M19.4437 39.8808L36.4717 37.5928L41.7234 15.4183L18.0446 13.0967L14.6533 30.893H14.6505L0.319824 33.0183L19.4437 39.8808ZM19.0161 14.6612L39.3401 17.0502L34.9184 35.7311L15.9767 30.3742L19.0161 14.6612ZM17.5189 36.8666L14.6841 37.2031L9.99043 35.4114L12.2518 35.1114L17.5189 36.8666Z" fill="#0F0F34" />
    <path d="M42.8252 16.0449L37.5917 38.3695L19.3805 41.0318V41.0262L0 33.9337V35.0342L19.2473 42.3973L38.5815 39.3242L44 16.8609L42.8252 16.0449Z" fill="#0F0F34" />
    <path d="M3.17127 17.7724L10.2889 15.448C10.6072 15.5896 11.0151 15.6106 11.4161 15.4802C11.8185 15.3485 12.1311 15.0919 12.3077 14.7905L19.2446 12.5249C19.2446 12.5249 16.2472 3.33941 16.0902 2.86134C16.0201 2.64685 15.7327 2.58656 15.3107 2.62862L14.9826 1.61642L14.8186 1.6066C14.7597 1.6038 13.4195 1.5309 11.8325 2.04682C10.1333 2.60058 8.83793 3.59736 7.97854 5.00912C6.45463 4.37685 4.81996 4.33619 3.1208 4.89276C1.5324 5.40727 0.493563 6.26106 0.450102 6.29611L0.321124 6.39845L0.629551 7.33775C0.179527 7.5859 -0.0700186 7.84525 0.0169019 8.10742C0.46272 9.47431 3.17127 17.7724 3.17127 17.7724ZM11.9839 2.50805C13.1699 2.12252 14.2312 2.08467 14.6252 2.08607L17.6898 11.4735C16.951 11.4244 16.1603 11.5366 15.3275 11.8085C13.2905 12.4731 11.6068 13.8862 11.1077 14.332L9.88939 10.6043L10.2609 10.8132L8.42997 5.21381C9.22767 3.93243 10.4179 3.01836 11.9839 2.50805ZM3.27081 5.3526C4.83398 4.84089 6.33546 4.87594 7.7346 5.44092L9.56414 11.0417L9.73658 10.6547L10.9563 14.3895C10.2833 14.3363 7.99536 14.2283 5.95694 14.8928C5.15362 15.1564 4.47789 15.5125 3.94935 15.9555L0.887509 6.57089C1.20435 6.33536 2.07916 5.74094 3.27081 5.3526Z" fill="#0F0F34" />
    <path d="M1.34465 22.3849C1.40213 23.4167 1.74981 29.6792 1.74981 29.6792L7.12206 29.3806C7.31973 29.5348 7.59451 29.6273 7.90014 29.6105C8.20576 29.5923 8.46932 29.4703 8.64597 29.2951L13.8836 29.0049C13.8836 29.0049 13.4995 22.0709 13.4785 21.7106C13.4701 21.5479 13.2808 21.454 12.9794 21.4049L12.9387 20.6423L12.8266 20.6044C12.7887 20.5918 11.869 20.2932 10.6732 20.3591C9.389 20.4306 8.3067 20.8834 7.44731 21.7036C6.5052 20.9816 5.37804 20.6521 4.09386 20.7236C2.8966 20.7895 2.01898 21.189 1.97973 21.2059L1.87178 21.2563L1.91103 21.9643C1.55354 22.0512 1.33343 22.1872 1.34465 22.3849ZM10.69 20.7068C11.5858 20.6577 12.3303 20.8287 12.6023 20.903L12.9948 27.9899C12.4929 27.816 11.9195 27.7487 11.2928 27.7852C9.75631 27.8707 8.32352 28.5394 7.89593 28.7581L7.74031 25.9444L7.95762 26.1575L7.72209 21.9293C8.51419 21.1862 9.50817 20.7727 10.69 20.7068ZM4.11489 21.0741C5.29813 21.0082 6.32996 21.3082 7.19916 21.9601L7.43329 26.187L7.62536 25.95L7.78237 28.7694C7.32534 28.6123 5.75797 28.1118 4.21863 28.1974C3.61019 28.2296 3.07745 28.3544 2.62602 28.5633L2.23488 21.482C2.49705 21.3741 3.21484 21.1217 4.11489 21.0741Z" fill="#0F0F34" />
    <path d="M33.7814 12.6468C34.0772 12.7197 34.3674 12.6804 34.5875 12.5627L39.685 13.8104C39.685 13.8104 41.3365 7.06566 41.4206 6.71378C41.4598 6.55536 41.307 6.41096 41.0322 6.27637L41.2159 5.53194L41.1192 5.46324C41.0883 5.43941 40.2976 4.88845 39.1312 4.60245C37.8807 4.29683 36.7143 4.41319 35.6558 4.94873C34.966 3.98419 33.9833 3.3407 32.7341 3.03508C31.5677 2.74768 30.6116 2.87525 30.5709 2.87946L30.4532 2.89769L30.2821 3.58744C29.9134 3.56641 29.6653 3.6309 29.6176 3.82297C29.3695 4.82816 27.8806 10.921 27.8806 10.921L33.1057 12.1996C33.2473 12.4071 33.4856 12.5739 33.7814 12.6468ZM35.8479 5.24734C36.8222 4.76648 37.8933 4.66133 39.0429 4.94172C39.9135 5.15482 40.5766 5.53614 40.8178 5.68615L39.1298 12.5795C38.6952 12.2683 38.1695 12.037 37.561 11.8869C36.068 11.521 34.5006 11.7454 34.0267 11.8281L34.6969 9.09147L34.8427 9.35924L35.8479 5.24734ZM29.0442 10.1051L30.7308 3.21593C31.0126 3.19069 31.7738 3.15985 32.6472 3.37575C33.7968 3.65754 34.6983 4.24636 35.339 5.12257L34.331 9.23447L34.5861 9.06203L33.9146 11.8056C33.522 11.5196 32.1678 10.5845 30.6719 10.2186C30.0817 10.0728 29.5335 10.0364 29.0442 10.1051Z" fill="#0F0F34" />
  </g>
  <defs>
    <clipPath id="clip0_110_5143">
      <rect width="44" height="44" fill="white" />
    </clipPath>
  </defs>
</svg>