<svg width="16" height="16" viewBox="0 0 16 16" fill="none" xmlns="http://www.w3.org/2000/svg">
  <g clip-path="url(#clip0_113_3464)">
    <path d="M14 0.5H2C1.175 0.5 0.5 1.175 0.5 2V14C0.5 14.825 1.175 15.5 2 15.5H14C14.825 15.5 15.5 14.825 15.5 14V2C15.5 1.175 14.825 0.5 14 0.5ZM8.75 11.75H7.25V10.25H8.75V11.75ZM8.75 9.5H7.25C7.25 7.55 8.75 7.925 8.75 6.35C8.75 6.05 8.6 5.375 7.925 5.375C7.7 5.375 7.175 5.75 7.175 6.5H5.75C5.75 6.5 5.45 4.25 7.925 4.25C9.875 4.25 10.25 5.675 10.25 6.35C10.25 8.075 8.75 8.225 8.75 9.5Z" fill="#0F0F34" />
  </g>
  <defs>
    <clipPath id="clip0_113_3464">
      <rect width="16" height="16" fill="white" />
    </clipPath>
  </defs>
</svg>