
<svg width="18" height="19" viewBox="0 0 18 19" fill="none" xmlns="http://www.w3.org/2000/svg">
<path d="M9 17C13.1421 17 16.5 13.6421 16.5 9.5C16.5 5.35786 13.1421 2 9 2C4.85786 2 1.5 5.35786 1.5 9.5C1.5 10.6998 1.78171 11.8337 2.28259 12.8394C2.4157 13.1066 2.46001 13.4121 2.38284 13.7004L1.93613 15.37C1.74221 16.0947 2.40526 16.7577 3.13001 16.5639L4.79954 16.1172C5.08795 16.04 5.39341 16.0843 5.66065 16.2174C6.66628 16.7183 7.80022 17 9 17Z" fill="#0F0F34"/>
<path d="M11.25 9.5C11.25 9.91422 11.5858 10.25 12 10.25C12.4142 10.25 12.75 9.91422 12.75 9.5C12.75 9.08578 12.4142 8.75 12 8.75C11.5858 8.75 11.25 9.08578 11.25 9.5Z" fill="white"/>
<path d="M8.25 9.5C8.25 9.91422 8.58578 10.25 9 10.25C9.41422 10.25 9.75 9.91422 9.75 9.5C9.75 9.08578 9.41422 8.75 9 8.75C8.58578 8.75 8.25 9.08578 8.25 9.5Z" fill="white"/>
<path d="M5.25 9.5C5.25 9.91422 5.58579 10.25 6 10.25C6.41421 10.25 6.75 9.91422 6.75 9.5C6.75 9.08578 6.41421 8.75 6 8.75C5.58579 8.75 5.25 9.08578 5.25 9.5Z" fill="white"/>
</svg>
