<svg width="33" height="32" viewBox="0 0 33 32" fill="none" xmlns="http://www.w3.org/2000/svg">
<circle cx="16.5" cy="16" r="16" fill="white"/>
<g clip-path="url(#clip0_1_277)">
<path d="M19.6897 24.4422L19.8932 23.2562C19.896 23.2394 19.8947 23.2221 19.8893 23.2058C19.884 23.1896 19.8749 23.1749 19.8627 23.1629L19.0012 22.3229C18.7713 22.0988 18.6086 21.8148 18.5317 21.5031C18.4548 21.1913 18.4666 20.8643 18.5658 20.5589C18.665 20.2535 18.8477 19.982 19.0932 19.775C19.3387 19.5681 19.6372 19.4339 19.9549 19.3877L21.1456 19.2147C21.1626 19.2123 21.1787 19.2057 21.1926 19.1956C21.2064 19.1856 21.2177 19.1723 21.2253 19.1569L21.6873 18.2207C21.5085 17.9393 21.2593 17.7095 20.9643 17.5542C20.3505 17.2512 17.8263 16.4985 17.2408 16.1926C17.2426 17.58 16.7792 19.0284 15.7885 20.5587L15.6047 18.1105L16.0197 17.6504C16.1121 17.4865 16.1916 17.3156 16.2573 17.1392C16.2735 17.093 16.2785 17.0436 16.2717 16.9951C16.2649 16.9466 16.2466 16.9004 16.2183 16.8604C16.19 16.8205 16.1526 16.7878 16.1091 16.7653C16.0656 16.7428 16.0173 16.7311 15.9683 16.7311H14.1577C14.1088 16.7311 14.0605 16.7428 14.017 16.7653C13.9735 16.7878 13.936 16.8205 13.9077 16.8604C13.8794 16.9004 13.8611 16.9466 13.8543 16.9951C13.8476 17.0436 13.8525 17.093 13.8688 17.1392C13.9345 17.3156 14.0139 17.4865 14.1064 17.6504L14.5214 18.1106L14.3376 20.5587C13.3468 19.0284 12.8834 17.58 12.8852 16.1926C12.3001 16.4985 9.77556 17.2512 9.16174 17.5542C8.53176 17.865 8.13475 18.6224 7.9969 19.2886L7.81061 21.9302L7.68677 25.326C7.68675 25.327 7.68687 25.3279 7.68713 25.3289C7.70798 25.4202 7.75938 25.5016 7.83281 25.5597C7.90625 25.6178 7.99732 25.6491 8.09096 25.6483H19.9269C19.7009 25.2897 19.6164 24.8598 19.6897 24.4422Z" fill="#496AF1"/>
<path d="M11.9629 12.301C12.0379 12.3477 12.106 12.4048 12.165 12.4706C12.2325 12.5778 12.2726 12.7 12.2821 12.8263C12.3855 13.538 12.6747 14.21 13.1207 14.7743C13.3446 15.054 13.6218 15.2866 13.9363 15.4583C14.2508 15.6301 14.5963 15.7377 14.9527 15.7749C14.9953 15.7786 15.038 15.7798 15.0808 15.7809C15.1234 15.7798 15.166 15.7786 15.2087 15.7749C15.5651 15.7377 15.9106 15.6301 16.2251 15.4583C16.5396 15.2866 16.8168 15.0541 17.0407 14.7743C17.4866 14.2099 17.7759 13.538 17.8793 12.8263C17.8888 12.7 17.929 12.5779 17.9964 12.4706C18.0554 12.4048 18.1235 12.3477 18.1987 12.301C18.365 12.1765 18.5045 12.0197 18.6088 11.84C18.7131 11.6603 18.78 11.4614 18.8056 11.2552C18.8385 10.9798 18.713 10.619 18.435 10.6202C18.552 9.94259 18.6556 9.24036 18.4935 8.57114C18.3867 8.16337 18.193 7.78353 17.9256 7.45766C17.6582 7.1318 17.3235 6.86762 16.9445 6.68324C16.3653 6.40507 15.7188 6.29765 15.0808 6.37354C14.4427 6.29763 13.7962 6.40505 13.217 6.68324C12.8379 6.8676 12.5032 7.13177 12.2358 7.45763C11.9684 7.7835 11.7746 8.16335 11.6678 8.57114C11.5058 9.24036 11.6094 9.94258 11.7264 10.6202C11.4483 10.619 11.3229 10.9798 11.3558 11.2552C11.3814 11.4614 11.4483 11.6604 11.5527 11.8401C11.657 12.0198 11.7965 12.1766 11.9629 12.301Z" fill="#496AF1"/>
<path d="M26.5303 20.1872L25.3396 20.0142C25.1931 19.9929 25.0539 19.9362 24.9341 19.8492C24.8143 19.7621 24.7174 19.6473 24.6518 19.5145L24.1195 18.4359C24.0441 18.283 23.9274 18.1544 23.7827 18.0644C23.6379 17.9744 23.4709 17.9268 23.3005 17.9268C23.1301 17.9268 22.9631 17.9744 22.8184 18.0644C22.6736 18.1544 22.557 18.283 22.4816 18.4359L22.1075 19.1936L21.9492 19.5145C21.8836 19.6473 21.7868 19.7621 21.667 19.8492C21.5472 19.9362 21.408 19.9928 21.2615 20.0142L20.0711 20.1872C19.9025 20.2117 19.7441 20.2828 19.6138 20.3927C19.4835 20.5025 19.3865 20.6466 19.3339 20.8086C19.2812 20.9707 19.275 21.1442 19.3158 21.3097C19.3567 21.4751 19.443 21.6258 19.565 21.7447L20.4265 22.5847C20.5325 22.688 20.6118 22.8155 20.6575 22.9563C20.7032 23.0971 20.714 23.2469 20.6889 23.3927L20.4857 24.5787C20.4633 24.7099 20.4697 24.8444 20.5046 24.9728C20.5394 25.1012 20.6018 25.2205 20.6875 25.3224C20.7732 25.4242 20.88 25.5061 21.0006 25.5624C21.1212 25.6187 21.2526 25.6481 21.3857 25.6484H22.035C22.1286 25.6491 22.2197 25.6179 22.2932 25.5598C22.3666 25.5017 22.418 25.4202 22.4388 25.3289C22.4391 25.328 22.4392 25.327 22.4392 25.3261L22.4353 25.213L22.8757 24.9815C23.0068 24.9127 23.1526 24.8767 23.3007 24.8767C23.4488 24.8767 23.5946 24.9127 23.7257 24.9815L24.7904 25.5415C24.9412 25.6207 25.1112 25.6562 25.2812 25.6439C25.4512 25.6317 25.6143 25.5721 25.7522 25.4719C25.8901 25.3718 25.9972 25.235 26.0614 25.0772C26.1256 24.9193 26.1444 24.7467 26.1157 24.5787L25.9121 23.3927C25.8871 23.2468 25.8979 23.097 25.9436 22.9562C25.9894 22.8155 26.0688 22.6879 26.1749 22.5847L27.0364 21.7447C27.1584 21.6258 27.2448 21.4751 27.2856 21.3097C27.3265 21.1442 27.3202 20.9707 27.2675 20.8086C27.2149 20.6466 27.1179 20.5025 26.9876 20.3927C26.8573 20.2828 26.6989 20.2117 26.5303 20.1872Z" fill="#496AF1"/>
</g>
<defs>
<clipPath id="clip0_1_277">
<rect width="20" height="20" fill="white" transform="translate(7.5 6)"/>
</clipPath>
</defs>
</svg>
