<svg width="14" height="15" viewBox="0 0 14 15" fill="none" xmlns="http://www.w3.org/2000/svg">
<path d="M0.777802 7.50005C0.777802 10.9365 3.56358 13.7223 7.00002 13.7223C10.4365 13.7223 13.2222 10.9365 13.2222 7.50005C13.2222 4.06361 10.4365 1.27783 7.00002 1.27783C3.56358 1.27783 0.777802 4.06361 0.777802 7.50005ZM6.27086 3.46533C6.27086 3.06261 6.59731 2.73617 7.00002 2.73617C7.40274 2.73617 7.72919 3.06261 7.72919 3.46533V7.07906L9.59583 8.15677C9.94459 8.35811 10.0641 8.80407 9.86273 9.15283C9.66138 9.50159 9.21543 9.62108 8.86667 9.41973L6.63544 8.13154C6.40174 7.99659 6.27117 7.75181 6.27095 7.50005H6.27086V3.46533Z" fill="#AC14F3"/>
</svg>
