<svg width="32" height="32" viewBox="0 0 32 32" fill="none" xmlns="http://www.w3.org/2000/svg">
<path d="M15.8902 5.33782C11.5578 5.19182 8 8.66029 8 12.9597C8 17.839 12.6825 21.3801 15.307 26.4726C15.4403 26.7312 15.8125 26.7315 15.9462 26.473C18.3204 21.8907 22.3784 18.8181 23.1304 14.4036C23.909 9.83546 20.5215 5.49396 15.8902 5.33782ZM15.6262 16.9543C13.4201 16.9543 11.6315 15.1658 11.6315 12.9597C11.6315 10.7536 13.4201 8.96501 15.6262 8.96501C17.8324 8.96501 19.6209 10.7536 19.6209 12.9597C19.6209 15.1658 17.8324 16.9543 15.6262 16.9543Z" fill="#B34D75"/>
</svg>
