<svg width="32" height="32" viewBox="0 0 32 32" fill="none" xmlns="http://www.w3.org/2000/svg">
<path d="M7.05558 10.4693C9.61753 12.639 14.113 16.4561 15.4342 17.6463C15.6116 17.807 15.8018 17.8886 15.9993 17.8886C16.1964 17.8886 16.3863 17.8077 16.5633 17.6478C17.8857 16.4565 22.3811 12.639 24.9431 10.4693C25.1026 10.3345 25.1269 10.0975 24.9978 9.93265C24.6993 9.55176 24.2542 9.33337 23.7772 9.33337H8.22149C7.7445 9.33337 7.29937 9.55176 7.00089 9.93268C6.87175 10.0975 6.89607 10.3345 7.05558 10.4693Z" fill="#ffff"/>
<path d="M25.1057 11.645C24.9679 11.5809 24.8057 11.6032 24.691 11.7012C23.0131 13.1235 20.8025 15.0026 19.1352 16.4367C19.0475 16.5119 18.9982 16.6224 19.0001 16.7382C19.0019 16.8537 19.0555 16.9627 19.1459 17.0348C20.695 18.2755 23.0295 19.9823 24.7153 21.1953C24.7826 21.2439 24.8623 21.2686 24.9424 21.2686C25.0032 21.2686 25.064 21.2545 25.1198 21.2257C25.2497 21.1592 25.3313 21.0255 25.3313 20.8797V11.9978C25.3313 11.8463 25.2432 11.7085 25.1057 11.645Z" fill="#ffff"/>
<path d="M7.28397 21.1951C8.97019 19.9821 11.3051 18.2754 12.8538 17.0346C12.9442 16.9625 12.9977 16.8534 12.9996 16.738C13.0015 16.6222 12.9522 16.5117 12.8644 16.4365C11.1972 15.0024 8.98612 13.1233 7.30829 11.701C7.19283 11.603 7.03029 11.5814 6.89357 11.6448C6.75609 11.7082 6.66797 11.8461 6.66797 11.9976V20.8795C6.66797 21.0253 6.74964 21.159 6.8795 21.2255C6.93532 21.2544 6.9961 21.2684 7.05687 21.2684C7.13701 21.2684 7.21674 21.2437 7.28397 21.1951Z" fill="#ffff"/>
<path d="M24.8563 22.2533C23.2282 21.0885 20.2291 18.917 18.4388 17.4639C18.293 17.345 18.0818 17.3488 17.9382 17.4726C17.587 17.7791 17.293 18.0374 17.0845 18.225C16.4442 18.803 15.5555 18.803 14.9137 18.2242C14.7059 18.037 14.412 17.7779 14.0607 17.4726C13.9183 17.348 13.7067 17.3442 13.5605 17.4638C11.7763 18.912 8.77378 21.0862 7.14302 22.2533C7.05224 22.3186 6.99376 22.4192 6.98238 22.5305C6.97137 22.6418 7.0082 22.7523 7.08454 22.8343C7.37891 23.1515 7.79362 23.3334 8.22165 23.3334H23.7774C24.2054 23.3334 24.6197 23.1515 24.9148 22.8343C24.9907 22.7527 25.028 22.6422 25.017 22.5309C25.0055 22.4197 24.9471 22.3186 24.8563 22.2533Z" fill="#ffff"/>
</svg>
