<svg width="24" height="25" viewBox="0 0 24 25" fill="none" xmlns="http://www.w3.org/2000/svg">
<path fill-rule="evenodd" clip-rule="evenodd" d="M24 12.5C24 19.1274 18.6274 24.5 12 24.5C5.37258 24.5 0 19.1274 0 12.5C0 5.87258 5.37258 0.5 12 0.5C18.6274 0.5 24 5.87258 24 12.5ZM16.8 6.5H10.8C10.1087 6.5 9.6 7.00863 9.6 7.7V10.1H7.2C6.50863 10.1 6 10.6087 6 11.3V17.3C6 17.9913 6.50863 18.5 7.2 18.5H13.2C13.8913 18.5 14.4 17.9913 14.4 17.3V14.9H16.8C17.4913 14.9 18 14.3913 18 13.7V7.7C18 7.00863 17.4913 6.5 16.8 6.5ZM7.2 11.3H9.6V13.7C9.6 14.3913 10.1087 14.9 10.8 14.9H13.2V17.3H7.2V11.3ZM10.8 13.7V7.7H16.8V13.7H10.8Z" fill="#496AF1"/>
</svg>
