<svg width="24" height="24" viewBox="0 0 24 24" fill="none" xmlns="http://www.w3.org/2000/svg">
<g clip-path="url(#clip0_32_2124)">
<path fill-rule="evenodd" clip-rule="evenodd" d="M24 12.0002C24 18.6276 18.6274 24.0002 12 24.0002C5.37258 24.0002 0 18.6276 0 12.0002C0 5.37282 5.37258 0.000244141 12 0.000244141C18.6274 0.000244141 24 5.37282 24 12.0002ZM18 16.8002V14.4002H16.8V16.8002H7.2V14.4002H6V16.8002C6 17.463 6.53726 18.0002 7.2 18.0002H16.8C17.4628 18.0002 18 17.463 18 16.8002ZM14.5758 10.3759L12.6 12.3517V6.00024H11.4V12.3517L9.42427 10.3759L8.57574 11.2246L12 14.6488L15.4243 11.2246L14.5758 10.3759Z" fill="#496AF1"/>
</g>
<defs>
<clipPath id="clip0_32_2124">
<rect width="24" height="24" fill="white" transform="translate(0 0.000244141)"/>
</clipPath>
</defs>
</svg>
