<svg width="16" height="16" viewBox="0 0 16 16" fill="none" xmlns="http://www.w3.org/2000/svg">
<g clip-path="url(#clip0_690_7230)">
<path d="M12.6029 3.39587H3.39453V12.6042H12.6029V3.39587Z" fill="white"/>
<path fill-rule="evenodd" clip-rule="evenodd" d="M0.445312 8.00001C0.445312 3.82719 3.82805 0.444458 8.00087 0.444458C12.1736 0.444458 15.5564 3.82719 15.5564 8.00001C15.5564 12.1728 12.1736 15.5556 8.00087 15.5556C3.82805 15.5556 0.445312 12.1728 0.445312 8.00001ZM10.8018 5.95464C11.0968 6.24971 11.0968 6.72811 10.8018 7.02316L8.01923 9.80572C7.59181 10.2331 6.89881 10.2331 6.47138 9.80572L5.19994 8.53427C4.90488 8.23922 4.90488 7.7608 5.19994 7.46576C5.49501 7.17072 5.9734 7.17072 6.26846 7.46576L7.24531 8.44262L9.73328 5.95464C10.0283 5.65958 10.5067 5.65958 10.8018 5.95464Z" fill="#7D3C88"/>
</g>
<defs>
<clipPath id="clip0_690_7230">
<rect width="16" height="16" fill="white"/>
</clipPath>
</defs>
</svg>
