<svg width="14" height="14" viewBox="0 0 14 14" fill="none" xmlns="http://www.w3.org/2000/svg">
<g clip-path="url(#clip0_664_21324)">
<path d="M14 11.9465V12.5998C14 13.3698 13.37 13.9998 12.6 13.9998H1.4C0.63 13.9998 0 13.3698 0 12.5998V11.9465C0 10.2432 1.98333 9.2165 3.85 8.39984C3.92 8.3765 3.96667 8.35317 4.03667 8.3065C4.17667 8.2365 4.34 8.2365 4.48 8.32984C5.22667 8.81984 6.09 9.09984 7 9.09984C7.91 9.09984 8.77333 8.81984 9.52 8.35317C9.66 8.25984 9.82333 8.25984 9.96333 8.32984C10.0333 8.35317 10.08 8.3765 10.15 8.42317C12.0167 9.2165 14 10.2432 14 11.9465Z" fill="#B34D75"/>
<path d="M7.0001 7.69985C8.92022 7.69985 10.4768 5.97614 10.4768 3.84985C10.4768 1.72355 8.92022 -0.000152588 7.0001 -0.000152588C5.07999 -0.000152588 3.52344 1.72355 3.52344 3.84985C3.52344 5.97614 5.07999 7.69985 7.0001 7.69985Z" fill="#B34D75"/>
</g>
<defs>
<clipPath id="clip0_664_21324">
<rect width="14" height="14" fill="white"/>
</clipPath>
</defs>
</svg>
