<svg width="38" height="38" viewBox="0 0 38 38" fill="none" xmlns="http://www.w3.org/2000/svg">
<path fill-rule="evenodd" clip-rule="evenodd" d="M18.0911 10.6928C18.2676 10.6926 18.4575 10.6926 18.6624 10.6927L19.0001 10.6928C21.7057 10.6928 22.0264 10.7026 23.0949 10.7511C24.0829 10.7963 24.6191 10.9614 24.9763 11.1001C25.4492 11.2837 25.7864 11.5033 26.1408 11.858C26.4955 12.2126 26.715 12.5504 26.8991 13.0233C27.0378 13.3801 27.2031 13.9163 27.2481 14.9043C27.2967 15.9726 27.3072 16.2935 27.3072 18.9978C27.3072 21.7022 27.2967 22.0231 27.2481 23.0913C27.2029 24.0793 27.0378 24.6156 26.8991 24.9723C26.7155 25.4452 26.4955 25.782 26.1408 26.1364C25.7861 26.4911 25.4494 26.7106 24.9763 26.8943C24.6195 27.0336 24.0829 27.1983 23.0949 27.2435C22.0266 27.292 21.7057 27.3026 19.0001 27.3026C16.2943 27.3026 15.9736 27.292 14.9054 27.2435C13.9174 27.1979 13.3811 27.0328 13.0237 26.8941C12.5508 26.7104 12.213 26.4909 11.8584 26.1362C11.5037 25.7815 11.2841 25.4446 11.1 24.9715C10.9613 24.6147 10.796 24.0785 10.7511 23.0905C10.7025 22.0222 10.6928 21.7013 10.6928 18.9953C10.6928 16.2892 10.7025 15.97 10.7511 14.9018C10.7963 13.9138 10.9613 13.3776 11.1 13.0204C11.2837 12.5475 11.5037 12.2097 11.8584 11.855C12.213 11.5003 12.5508 11.2808 13.0237 11.0967C13.3809 10.9574 13.9174 10.7927 14.9054 10.7473C15.8402 10.7051 16.2024 10.6924 18.0911 10.6903V10.6928ZM24.4088 12.3753C23.7375 12.3753 23.1928 12.9193 23.1928 13.5909C23.1928 14.2622 23.7375 14.8069 24.4088 14.8069C25.0802 14.8069 25.6248 14.2622 25.6248 13.5909C25.6248 12.9195 25.0802 12.3749 24.4088 12.3749V12.3753ZM13.7962 19.0001C13.7962 16.1263 16.1261 13.7963 18.9999 13.7962C21.8738 13.7962 24.2032 16.1263 24.2032 19.0001C24.2032 21.874 21.874 24.203 19.0001 24.203C16.1262 24.203 13.7962 21.874 13.7962 19.0001Z" fill="#AC14F3"/>
<path d="M19.0001 15.6223C20.8655 15.6223 22.3779 17.1345 22.3779 19.0001C22.3779 20.8655 20.8655 22.3779 19.0001 22.3779C17.1345 22.3779 15.6223 20.8655 15.6223 19.0001C15.6223 17.1345 17.1345 15.6223 19.0001 15.6223Z" fill="#AC14F3"/>
</svg>
