<svg width="14" height="14" viewBox="0 0 14 14" fill="none" xmlns="http://www.w3.org/2000/svg">
<g clip-path="url(#clip0_664_21332)">
<path d="M14 7C14 10.8613 10.8613 14 7 14C3.13871 14 0 10.8613 0 7C0 3.13871 3.13871 0 7 0C10.8613 0 14 3.13871 14 7ZM9.61371 8.55806C9.61371 7.09032 8.04435 6.67258 7.36694 6.48065C6.08548 6.125 5.97823 5.6621 5.99516 5.425C6.04032 4.84919 6.67258 4.70806 7.25968 4.83226C7.72258 4.93387 8.19677 5.20484 8.4621 5.41371L9.30323 4.43145C8.89113 4.14919 8.36048 3.78226 7.5871 3.63548V2.68145H6.3621V3.60161C5.17661 3.69194 4.38629 4.4371 4.38629 5.45887C4.38629 6.45806 5.10887 6.92661 5.83145 7.27661C6.43548 7.56452 8.11774 7.86371 8.02177 8.62581C7.97097 9.0379 7.53064 9.34274 6.80242 9.25242C6.17016 9.17339 5.49274 8.64274 5.49274 8.64274L4.56694 9.5629C5.12581 10.0145 5.71855 10.2968 6.3621 10.4266V11.3242H7.5871V10.4718C8.75564 10.3419 9.61371 9.54597 9.61371 8.55806Z" fill="#B34D75"/>
</g>
<defs>
<clipPath id="clip0_664_21332">
<rect width="14" height="14" fill="white"/>
</clipPath>
</defs>
</svg>
