<svg width="10" height="10" viewBox="0 0 10 10" fill="none" xmlns="http://www.w3.org/2000/svg">
  <path d="M4.99804 9.93361C5.28514 9.93361 5.52536 9.70508 5.52536 9.42383V5.52736H9.31054C9.59179 5.52736 9.83786 5.28711 9.83786 5.00001C9.83786 4.71291 9.59179 4.47853 9.31054 4.47853H5.52536V0.576181C5.52536 0.294931 5.28514 0.0664062 4.99804 0.0664062C4.71091 0.0664062 4.47656 0.294931 4.47656 0.576181V4.47853H0.691387C0.410137 4.47853 0.164062 4.71291 0.164062 5.00001C0.164062 5.28711 0.410137 5.52736 0.691387 5.52736H4.47656V9.42383C4.47656 9.70508 4.71091 9.93361 4.99804 9.93361Z" fill="white" />
</svg>