<svg width="56" height="55" viewBox="0 0 56 55" fill="none" xmlns="http://www.w3.org/2000/svg">
<path fill-rule="evenodd" clip-rule="evenodd" d="M5.34543 10.4048C3.92982 10.4048 2.79175 11.5422 2.79175 12.9553V28.5511C2.79175 29.9674 3.93046 31.1029 5.34543 31.1029H14.6869V32.3915C13.2681 32.3915 12.1066 33.8306 12.1066 34.8887V35.7555C12.1066 36.0134 12.252 36.1366 12.4838 36.1366H21.5236C21.7542 36.1366 21.8971 36.014 21.8971 35.7555V34.8887C21.8971 33.8306 20.7399 32.3915 19.3205 32.3915V31.1029H26.9949C28.8074 31.1029 28.8074 27.8868 26.9949 27.8868H6.79407C5.77539 27.8868 5.62932 27.2581 5.62932 26.4788V13.9511C5.62932 13.17 5.69282 12.5419 6.71087 12.5419H27.2928C28.3114 12.5419 28.3769 13.1693 28.3769 13.9511V19.4783C28.3769 21.4197 31.2125 21.4197 31.2125 19.4783V12.9553C31.2125 11.5422 30.0738 10.4048 28.662 10.4048C20.8892 10.4048 13.1151 10.4048 5.34543 10.4048Z" fill="#7D3C88"/>
<path d="M38.1057 19.1436C33.5674 19.1436 29.9131 22.6797 29.9131 27.34C29.9131 32.0015 33.5674 35.5339 38.1057 35.5339C42.6466 35.5339 46.3021 32.0009 46.3021 27.34C46.3021 22.6797 42.6466 19.1436 38.1057 19.1436Z" fill="#7D3C88"/>
<path d="M33.0682 36.7609C27.1269 38.1142 24.2665 40.0951 23.1049 45.6622C22.7836 47.1642 23.2764 47.6037 23.8912 47.812C28.1062 49.2384 35.0426 49.7471 38.105 49.7471C41.1674 49.7471 48.1038 49.2384 52.3214 47.812C52.9343 47.6037 53.4265 47.1642 53.109 45.6622C51.948 40.0951 49.0863 38.1142 43.1457 36.7609L38.6468 37.7929C38.2238 37.892 37.9894 37.892 37.5652 37.7929L33.0682 36.7609Z" fill="#7D3C88"/>
<path d="M20.0216 16.1866L22.1415 18.8597C22.3797 19.263 22.3041 19.7628 21.6925 19.7628H12.3612C11.9306 19.7628 11.8747 19.4052 12.0436 19.1213L13.78 17.3114C14.1013 16.9779 14.1807 16.9601 14.5776 17.3114L16.2606 18.8038C16.5089 19.0223 16.6442 19.0407 16.8462 18.8L19.0556 16.1866C19.4005 15.7795 19.718 15.7992 20.0216 16.1866ZM16.5451 15.0034C17.0881 15.0034 17.5251 15.4423 17.5251 15.9821C17.5251 16.5245 17.0881 16.9608 16.5451 16.9608C16.0066 16.9608 15.5665 16.5238 15.5665 15.9821C15.5665 15.4385 16.0028 15.0034 16.5451 15.0034ZM8.95395 13.9238C8.42556 13.9238 7.99878 14.3639 7.99878 14.9101V19.9844C7.99878 20.5287 8.42556 20.9669 8.95395 20.9669H25.0509C25.5793 20.9669 26.006 20.5293 26.006 19.9844V14.9101C26.006 14.3645 25.5793 13.9238 25.0509 13.9238H8.95395Z" fill="#7D3C88"/>
<path fill-rule="evenodd" clip-rule="evenodd" d="M21.838 22.2536H25.1697C25.6327 22.2536 26.0055 22.6543 26.0055 23.1567V25.5148C26.0055 26.0184 25.632 26.4217 25.1697 26.4217H21.838C21.375 26.4217 21.001 26.0184 21.001 25.5148V23.1561C21.0003 22.6537 21.375 22.2536 21.838 22.2536Z" fill="#7D3C88"/>
<path fill-rule="evenodd" clip-rule="evenodd" d="M8.83836 22.2536H12.1662C12.6324 22.2536 13.0058 22.6543 13.0058 23.1567V25.5148C13.0058 26.0184 12.6324 26.4217 12.1662 26.4217H8.83836C8.37221 26.4217 7.99878 26.0184 7.99878 25.5148V23.1561C7.99878 22.6537 8.37221 22.2536 8.83836 22.2536Z" fill="#7D3C88"/>
<path fill-rule="evenodd" clip-rule="evenodd" d="M15.3378 22.2536H18.6656C19.1318 22.2536 19.5052 22.6543 19.5052 23.1567V25.5148C19.5052 26.0184 19.1318 26.4217 18.6656 26.4217H15.3378C14.8748 26.4217 14.5007 26.0184 14.5007 25.5148V23.1561C14.5007 22.6537 14.8754 22.2536 15.3378 22.2536Z" fill="#7D3C88"/>
</svg>
