<svg width="16" height="15" viewBox="0 0 16 15" fill="none" xmlns="http://www.w3.org/2000/svg">
<path fill-rule="evenodd" clip-rule="evenodd" d="M0.5 7.5C0.5 3.35786 3.85786 0 8 0C12.1421 0 15.5 3.35786 15.5 7.5C15.5 11.6421 12.1421 15 8 15C3.85786 15 0.5 11.6421 0.5 7.5ZM10.7803 5.46967C11.0732 5.76256 11.0732 6.23745 10.7803 6.53032L8.01822 9.29242C7.59395 9.7167 6.90605 9.7167 6.48176 9.29242L5.21967 8.03032C4.92678 7.73745 4.92678 7.26255 5.21967 6.96967C5.51256 6.6768 5.98743 6.6768 6.28033 6.96967L7.25 7.93935L9.71967 5.46967C10.0125 5.17678 10.4874 5.17678 10.7803 5.46967Z" fill="white"/>
</svg>
