<svg width="16" height="16" viewBox="0 0 16 16" fill="none" xmlns="http://www.w3.org/2000/svg">
  <path d="M5.16672 1.66602C5.16672 1.38988 4.94286 1.16602 4.66672 1.16602C4.39058 1.16602 4.16672 1.38988 4.16672 1.66602V2.71886C3.20717 2.79569 2.57724 2.98426 2.11444 3.44706C1.65164 3.90986 1.46306 4.5398 1.38623 5.49935H14.6139C14.5371 4.5398 14.3485 3.90986 13.8857 3.44706C13.4229 2.98426 12.7929 2.79569 11.8334 2.71886V1.66602C11.8334 1.38988 11.6095 1.16602 11.3334 1.16602C11.0573 1.16602 10.8334 1.38988 10.8334 1.66602V2.67462C10.3899 2.66602 9.89272 2.66602 9.33339 2.66602H6.66672C6.10737 2.66602 5.61024 2.66602 5.16672 2.67462V1.66602Z" fill="#F5B841" />
  <path fill-rule="evenodd" clip-rule="evenodd" d="M1.33325 8C1.33325 7.44067 1.33325 6.94353 1.34185 6.5H14.658C14.6666 6.94353 14.6666 7.44067 14.6666 8V9.33333C14.6666 11.8475 14.6666 13.1046 13.8855 13.8856C13.1045 14.6667 11.8474 14.6667 9.33325 14.6667H6.66658C4.15243 14.6667 2.89535 14.6667 2.1143 13.8856C1.33325 13.1046 1.33325 11.8475 1.33325 9.33333V8ZM11.3333 9.33333C11.7015 9.33333 11.9999 9.03487 11.9999 8.66667C11.9999 8.29847 11.7015 8 11.3333 8C10.9651 8 10.6666 8.29847 10.6666 8.66667C10.6666 9.03487 10.9651 9.33333 11.3333 9.33333ZM11.3333 12C11.7015 12 11.9999 11.7015 11.9999 11.3333C11.9999 10.9651 11.7015 10.6667 11.3333 10.6667C10.9651 10.6667 10.6666 10.9651 10.6666 11.3333C10.6666 11.7015 10.9651 12 11.3333 12ZM8.66658 8.66667C8.66658 9.03487 8.36812 9.33333 7.99992 9.33333C7.63172 9.33333 7.33325 9.03487 7.33325 8.66667C7.33325 8.29847 7.63172 8 7.99992 8C8.36812 8 8.66658 8.29847 8.66658 8.66667ZM8.66658 11.3333C8.66658 11.7015 8.36812 12 7.99992 12C7.63172 12 7.33325 11.7015 7.33325 11.3333C7.33325 10.9651 7.63172 10.6667 7.99992 10.6667C8.36812 10.6667 8.66658 10.9651 8.66658 11.3333ZM4.66658 9.33333C5.03477 9.33333 5.33325 9.03487 5.33325 8.66667C5.33325 8.29847 5.03477 8 4.66658 8C4.2984 8 3.99992 8.29847 3.99992 8.66667C3.99992 9.03487 4.2984 9.33333 4.66658 9.33333ZM4.66658 12C5.03477 12 5.33325 11.7015 5.33325 11.3333C5.33325 10.9651 5.03477 10.6667 4.66658 10.6667C4.2984 10.6667 3.99992 10.9651 3.99992 11.3333C3.99992 11.7015 4.2984 12 4.66658 12Z" fill="#F5B841" />
</svg>